<svg xmlns="http://www.w3.org/2000/svg" viewBox="0 0 1200 600"><defs><style>.cls-1{fill:#469dcd;}.cls-1,.cls-2{stroke:#fff;stroke-miterlimit:10;stroke-width:20px;}.cls-2{fill:#f77505;}.cls-3{fill:#fff;}.cls-4{fill:#173140;}</style></defs><title>Learn Catalog raleway</title><g id="Layer_3" data-name="Layer 3"><rect class="cls-1" x="5" y="5" width="165.34" height="583.66"/><rect class="cls-2" x="170.34" y="5" width="171.43" height="583.66"/><rect class="cls-1" x="341.77" y="5" width="171.43" height="583.66"/><rect class="cls-2" x="513.19" y="5" width="171.43" height="583.66"/><rect class="cls-1" x="684.63" y="5" width="171.43" height="583.66"/><rect class="cls-2" x="856.06" y="5" width="171.43" height="583.66"/><rect class="cls-1" x="1027.49" y="5" width="172.51" height="583.66"/><rect class="cls-3" x="-27.49" y="139.34" width="1254.98" height="135.93"/><circle class="cls-3" cx="87.69" cy="521.91" r="2.74"/><path class="cls-3" d="M99.12,527l-8-1-6.73,0-7,1.09-7.8,31.15c0,1.65,2.46,3,5.47,3l26.71-.11c3,0,5.46-1.36,5.45-3Z"/><path class="cls-3" d="M77.36,527.11l-7.8,31.15c0,1.65,2.45,3,5.47,3L84.4,526Z"/><path class="cls-3" d="M99.12,527l-8-1,10.61,35.12c3,0,5.46-1.36,5.45-3Z"/><path class="cls-3" d="M101.74,561.11,75,561.22l-4.45,23.17a85.36,85.36,0,0,0,17.64,2.25c3,0,10.7-.65,15.76-2.32Z"/><path class="cls-3" d="M69.56,558.26a1.74,1.74,0,0,0,.13.64Z"/><path class="cls-3" d="M69.69,558.9l-2.75,23.36a8.42,8.42,0,0,0,3.79,2.13L75,561.22C72.42,561.24,70.24,560.24,69.69,558.9Z"/><path class="cls-3" d="M107.06,558.74c-.53,1.34-2.71,2.36-5.32,2.37l2.08,23.21a23.45,23.45,0,0,0,6.23-2.4Z"/><path class="cls-3" d="M107.06,558.74a1.84,1.84,0,0,0,.13-.65Z"/><path class="cls-3" d="M88.19,517.07a11.63,11.63,0,0,0-11.55,10.37l7.51-1.17,7.18,0,8.51,1.09A11.63,11.63,0,0,0,88.19,517.07Z"/><path class="cls-3" d="M89.2,535.33H86.69a1,1,0,0,0-1,.95l0,4.23a1,1,0,0,0,1,1h2.51a1,1,0,0,0,1-1l0-4.23A.94.94,0,0,0,89.2,535.33Z"/><path class="cls-3" d="M89.26,548H86.75a1,1,0,0,0-1,1l0,4.23a1,1,0,0,0,1,.95h2.51a1,1,0,0,0,1-1l0-4.23A.94.94,0,0,0,89.26,548Z"/><path class="cls-3" d="M108.29,557a.48.48,0,0,0-.49,0l-6.19,3.58-26.46.12-6.82-3.54a.49.49,0,0,0-.71.43l0,3.9a.48.48,0,0,0,.26.43l6.93,3.59a.43.43,0,0,0,.22.06l26.71-.12a.5.5,0,0,0,.24-.06l6.31-3.65a.5.5,0,0,0,.24-.43l0-3.89A.47.47,0,0,0,108.29,557Z"/><path class="cls-3" d="M118.3,550.78a.74.74,0,0,0-.22-.44l-.1-.1L96.31,528.75l-8.07-8a.79.79,0,0,0-1.12,0l-.44.45a.79.79,0,0,0,0,1.12l7.19,7.12-3.73,3.76a1.25,1.25,0,0,0,0,1.76l21.67,21.49a1.26,1.26,0,0,0,1.76,0L118,552A1.25,1.25,0,0,0,118.3,550.78Zm-4.46-.48-1.48,1.49-1.23-1.22,1.48-1.49Zm-1.57-1.56-1.48,1.5L109.55,549l1.48-1.49Zm-1.57-1.56-1.48,1.5-1.41-1.4,1.48-1.49ZM109,545.46,107.48,547l-1.3-1.28,1.49-1.49Zm-1.63-1.62-1.48,1.5-1.24-1.23,1.48-1.49Zm-1.57-1.55-1.48,1.49-1.35-1.34,1.48-1.49Zm-1.69-1.68-1.48,1.5-1.23-1.23,1.47-1.49Zm-1.57-1.55L101,540.55l-1.35-1.34,1.48-1.49Zm-1.69-1.67-1.48,1.49-1.23-1.23,1.48-1.49Zm-1.57-1.56-1.48,1.49L96.41,536l1.48-1.49Zm-1.68-1.67-1.48,1.49-1.24-1.23,1.48-1.49Zm-3.75-2.39a1,1,0,0,1,1.46.12l.71.71-1.47,1.49L93,532.59Zm-1.88,3.48a1,1,0,0,1-.13-1.45l.86-.87,1.51,1.5L92.65,536Zm1,1,1.53-1.54L95.74,536l-1.52,1.53Zm1.58,1.56,1.52-1.54,1.35,1.34-1.52,1.53Zm1.68,1.67L97.76,538,99,539.22l-1.52,1.53Zm1.58,1.55,1.52-1.53,1.34,1.34-1.52,1.53Zm1.68,1.67,1.52-1.53,1.24,1.23L100.73,544Zm1.57,1.56,1.52-1.53,1.35,1.33-1.52,1.54Zm1.69,1.67,1.52-1.53,1.23,1.22L104,547.21Zm1.57,1.56,1.52-1.53,1.29,1.28-1.52,1.53Zm1.63,1.62,1.52-1.54,1.4,1.39-1.52,1.54Zm1.74,1.72,1.52-1.53,1.24,1.22-1.53,1.54Zm1.57,1.56,1.52-1.53,1.24,1.22-1.52,1.54Zm3.71,2.35a1,1,0,0,1-1.46-.12l-.68-.67,1.52-1.53,1.48,1.46Zm2-2-.82.83-1.47-1.46,1.48-1.5.67.68A1,1,0,0,1,115,552.76Z"/><path class="cls-3" d="M88.66,521.13,81.47,514l3.73-3.76a1.25,1.25,0,0,0,0-1.76L63.52,487a1.26,1.26,0,0,0-1.76,0l-4.41,4.45a1.24,1.24,0,0,0-.31,1.22.77.77,0,0,0,.22.44L87.1,522.7a.78.78,0,0,0,1.11,0l.45-.45A.79.79,0,0,0,88.66,521.13ZM83.4,508.2a1.05,1.05,0,0,1,.14,1.46l-.86.87L81.17,509l1.52-1.53Zm-1.05-1-1.52,1.54-1.23-1.23,1.52-1.53Zm-1.57-1.56-1.52,1.54-1.35-1.34,1.53-1.53Zm-1.68-1.67-1.52,1.54-1.24-1.23,1.52-1.53Zm-1.58-1.56L76,503.91l-1.34-1.34L76.18,501Zm-1.68-1.67-1.52,1.54L73.08,501l1.52-1.53Zm-1.57-1.55-1.52,1.53-1.35-1.34,1.52-1.53Zm-1.69-1.68L71.06,499l-1.23-1.22,1.52-1.54ZM71,495.92l-1.52,1.53-1.29-1.28,1.52-1.53Zm-1.63-1.62-1.52,1.54-1.4-1.39L68,492.91Zm-1.74-1.72-1.52,1.53-1.24-1.22,1.52-1.54ZM66.07,491l-1.52,1.53-1.24-1.22,1.52-1.54Zm-3.71-2.35a1,1,0,0,1,1.46.12l.67.67L63,491l-1.47-1.46Zm-1.88,3.48a1,1,0,0,1-.13-1.46l.82-.82,1.47,1.46-1.48,1.49Zm1,1L63,491.67l1.23,1.22-1.48,1.49Zm1.57,1.56,1.48-1.5,1.24,1.23-1.48,1.49Zm1.57,1.56,1.48-1.5,1.41,1.39-1.48,1.5ZM66.39,498l1.47-1.49,1.3,1.28-1.49,1.49ZM68,499.61l1.48-1.49,1.24,1.23-1.48,1.49Zm1.57,1.56,1.48-1.49L72.41,501l-1.48,1.49Zm1.69,1.67,1.48-1.49L74,502.58l-1.47,1.49Zm1.57,1.56,1.48-1.49,1.35,1.34-1.48,1.49Zm1.69,1.67L76,504.58l1.23,1.23-1.48,1.49Zm1.57,1.56,1.48-1.49,1.34,1.34L77.45,509Zm1.68,1.67,1.48-1.49L80.5,509,79,510.53Zm2.29,2.27-.71-.71,1.47-1.49,1.51,1.5-.81.82A1,1,0,0,1,80.07,511.57Z"/><path class="cls-3" d="M88.64,521.18l-.45-.44a.79.79,0,0,0-1.12,0L80,527.93l-3.76-3.73a1.25,1.25,0,0,0-1.76,0L52.94,545.88a1.26,1.26,0,0,0,0,1.76l4.46,4.41a1.22,1.22,0,0,0,1.21.31.77.77,0,0,0,.44-.22l.1-.1,21.49-21.67,8-8.07A.79.79,0,0,0,88.64,521.18ZM74.14,526a1.06,1.06,0,0,1,1.46-.13l.87.86L75,528.23l-1.53-1.52Zm-1,1.06,1.54,1.52-1.23,1.23-1.53-1.52Zm-1.56,1.57,1.54,1.52-1.34,1.35L70.21,530Zm-1.67,1.68,1.54,1.52-1.23,1.24-1.53-1.52Zm-1.55,1.58,1.53,1.52-1.34,1.34L67,533.22Zm-1.67,1.68,1.53,1.52L67,536.32l-1.53-1.52Zm-1.56,1.57,1.53,1.52L65.29,538l-1.54-1.52Zm-1.67,1.69L65,538.34l-1.23,1.23-1.53-1.52Zm-1.56,1.57,1.53,1.52-1.28,1.29-1.53-1.52ZM60.24,540l1.54,1.52-1.4,1.4-1.53-1.52Zm-1.72,1.74,1.53,1.52-1.22,1.24L57.29,543ZM57,543.33l1.53,1.52-1.22,1.24-1.54-1.52ZM54.61,547a1,1,0,0,1,.12-1.46l.67-.68,1.53,1.53-1.46,1.47Zm3.48,1.87a1,1,0,0,1-1.45.14l-.83-.82,1.46-1.47,1.49,1.48Zm1-1-1.5-1.48,1.23-1.23,1.49,1.48Zm1.56-1.57-1.5-1.48,1.23-1.24,1.49,1.48Zm1.56-1.57-1.5-1.48,1.39-1.41,1.5,1.48ZM63.94,543l-1.49-1.48,1.28-1.29,1.49,1.47Zm1.62-1.63-1.5-1.48,1.23-1.24,1.49,1.48Zm1.55-1.57-1.49-1.48L67,537l1.49,1.48Zm1.67-1.69-1.49-1.48,1.23-1.24L70,536.89Zm1.56-1.57-1.49-1.48,1.34-1.35,1.49,1.48ZM72,534.87l-1.49-1.48,1.23-1.23,1.49,1.48Zm1.56-1.57-1.49-1.48,1.34-1.35L74.91,532Zm1.67-1.68-1.49-1.48L75,528.9l1.5,1.48Zm2.27-2.29-.71.71-1.49-1.48,1.5-1.51.82.82A1,1,0,0,1,77.51,529.33Z"/><path class="cls-3" d="M122.39,495.82l-4.46-4.41a1.22,1.22,0,0,0-1.21-.31.77.77,0,0,0-.44.22l-.1.1L94.69,513.09l-8,8.07a.79.79,0,0,0,0,1.12l.45.44a.79.79,0,0,0,1.12,0l7.12-7.19,3.76,3.73a1.25,1.25,0,0,0,1.76,0l21.48-21.67A1.25,1.25,0,0,0,122.39,495.82Zm-5.14-1.28a1,1,0,0,1,1.45-.13l.83.82-1.46,1.47-1.49-1.48Zm-1,1,1.49,1.48-1.22,1.23L115,496.79Zm-1.56,1.57,1.49,1.48L115,499.84l-1.49-1.48Zm-1.56,1.57,1.5,1.48-1.4,1.41-1.49-1.48Zm-1.72,1.74,1.49,1.48-1.28,1.29-1.49-1.48Zm-1.62,1.63,1.5,1.48-1.23,1.24-1.49-1.48Zm-1.55,1.57,1.49,1.48-1.34,1.35L106.89,505Zm-1.68,1.69,1.5,1.48L106.82,508l-1.49-1.48ZM105,506.9l1.49,1.48-1.34,1.35-1.49-1.48Zm-1.67,1.69,1.49,1.47-1.23,1.24-1.49-1.48Zm-1.56,1.57,1.49,1.48L101.92,513l-1.49-1.47Zm-1.67,1.68,1.49,1.48-1.23,1.24-1.49-1.48Zm-2.39,3.75a1,1,0,0,1,.12-1.46l.71-.71,1.49,1.47-1.5,1.51Zm3.48,1.87a1,1,0,0,1-1.45.14l-.87-.86,1.5-1.51,1.53,1.52Zm1-1.05-1.54-1.52,1.23-1.23,1.53,1.52Zm1.56-1.57-1.54-1.52L103.6,512l1.53,1.52Zm1.67-1.68-1.54-1.53,1.23-1.23,1.53,1.52Zm1.56-1.58-1.54-1.52,1.34-1.34,1.53,1.52Zm1.67-1.68-1.54-1.52,1.23-1.24,1.53,1.52Zm1.55-1.57-1.53-1.53,1.34-1.34,1.53,1.52Zm1.67-1.69-1.53-1.52,1.23-1.24,1.53,1.53Zm1.56-1.57L112,503.55l1.28-1.29,1.53,1.52Zm1.62-1.63-1.54-1.52,1.39-1.4,1.54,1.52Zm1.72-1.74-1.53-1.52,1.22-1.24,1.54,1.52Zm1.56-1.57-1.53-1.52,1.22-1.24,1.54,1.52Zm2.23-2.25-.67.67L118.41,497l1.45-1.47.87.86A1,1,0,0,1,120.61,497.88Z"/><path class="cls-3" d="M87.68,519.65a2.26,2.26,0,1,0,2.26,2.25A2.26,2.26,0,0,0,87.68,519.65Z"/><circle class="cls-3" cx="87.68" cy="521.91" r="1.42"/><path class="cls-3" d="M88.35,521.07a1.06,1.06,0,0,0-1.5,1.5C87.27,523,88.76,521.48,88.35,521.07Z"/><rect class="cls-3" x="575.44" y="524.5" width="4.59" height="8.52" transform="translate(-2.01 2.21) rotate(-0.22)"/><path class="cls-3" d="M580.15,524.63a25.23,25.23,0,0,1-2.44-9.85h-.07c0,.57,0,4.33-2.37,9.87Z"/><polygon class="cls-3" points="580.13 532.8 575.38 532.82 574.42 533.25 574.4 533.94 575.18 535.43 575.27 559.89 580.72 559.87 580.62 535.47 581.2 533.76 581.2 533.06 580.13 532.8"/><polygon class="cls-3" points="580.13 532.8 575.38 532.82 574.42 533.25 574.4 533.94 575.18 535.43 580.62 535.4 581.2 533.76 581.2 533.06 580.13 532.8"/><rect class="cls-3" x="574.92" y="525.6" width="5.68" height="1.92" transform="translate(-2.01 2.21) rotate(-0.22)"/><polygon class="cls-3" points="574.92 527.53 575.51 529.34 580.03 529.33 580.61 527.51 574.92 527.53"/><rect class="cls-3" x="599.19" y="530.33" width="7.22" height="13.41" transform="translate(-2.05 2.3) rotate(-0.22)"/><path class="cls-3" d="M602.66,514.93v0Z"/><path class="cls-3" d="M602.76,515.05v0Z"/><path class="cls-3" d="M606.6,530.53c-3.79-8.68-3.86-14.6-3.84-15.48h-.1c0,.88,0,6.8-3.73,15.51Z"/><polygon class="cls-3" points="606.57 543.38 599.1 543.41 597.59 544.09 597.55 545.18 598.78 547.53 598.82 558.11 607.38 558.08 607.34 547.58 608.26 544.89 608.25 543.8 606.57 543.38"/><polygon class="cls-3" points="606.57 543.38 599.1 543.41 597.59 544.09 597.55 545.18 598.78 547.53 607.34 547.47 608.26 544.89 608.25 543.8 606.57 543.38"/><rect class="cls-3" x="598.37" y="532.06" width="8.95" height="3.02" transform="translate(-2.03 2.3) rotate(-0.22)"/><polygon class="cls-3" points="598.38 535.1 599.31 537.95 606.41 537.92 607.32 535.06 598.38 535.1"/><rect id="SVGCleanerId_0" data-name="SVGCleanerId 0" class="cls-3" x="593.41" y="496.07" width="8.56" height="15.89" transform="translate(-1.92 2.29) rotate(-0.22)"/><path id="SVGCleanerId_1" data-name="SVGCleanerId 1" class="cls-3" d="M597.52,477.83V478A.79.79,0,0,0,597.52,477.83Z"/><path id="SVGCleanerId_2" data-name="SVGCleanerId 2" class="cls-3" d="M597.64,478v0Z"/><path id="SVGCleanerId_3" data-name="SVGCleanerId 3" class="cls-3" d="M602.2,496.31C597.7,486,597.62,479,597.64,478h-.11c0,1,0,8.06-4.42,18.38Z"/><polygon class="cls-3" points="602.16 511.54 593.31 511.57 591.52 512.38 591.48 513.67 592.93 516.45 592.98 528.98 603.12 528.94 603.08 516.51 604.16 513.32 604.15 512.03 602.16 511.54"/><polygon class="cls-3" points="602.16 511.54 593.31 511.57 591.52 512.38 591.48 513.67 592.93 516.45 603.08 516.38 604.16 513.32 604.15 512.03 602.16 511.54"/><rect id="SVGCleanerId_4" data-name="SVGCleanerId 4" class="cls-3" x="592.44" y="498.12" width="10.59" height="3.58" transform="translate(-1.9 2.29) rotate(-0.22)"/><polygon class="cls-3" points="592.45 501.72 593.55 505.1 601.97 505.07 603.05 501.68 592.45 501.72"/><rect id="SVGCleanerId_0-2" data-name="SVGCleanerId 0" class="cls-3" x="593.41" y="496.07" width="8.56" height="15.89" transform="translate(-1.92 2.29) rotate(-0.22)"/><path id="SVGCleanerId_1-2" data-name="SVGCleanerId 1" class="cls-3" d="M597.52,477.83V478A.79.79,0,0,0,597.52,477.83Z"/><path id="SVGCleanerId_2-2" data-name="SVGCleanerId 2" class="cls-3" d="M597.64,478v0Z"/><path id="SVGCleanerId_3-2" data-name="SVGCleanerId 3" class="cls-3" d="M602.2,496.31C597.7,486,597.62,479,597.64,478h-.11c0,1,0,8.06-4.42,18.38Z"/><polygon class="cls-3" points="602.16 511.54 593.31 511.57 591.52 512.38 591.48 513.67 592.93 516.45 592.98 528.98 603.12 528.94 603.08 516.51 604.16 513.32 604.15 512.03 602.16 511.54"/><polygon class="cls-3" points="602.16 511.54 593.31 511.57 591.52 512.38 591.48 513.67 592.93 516.45 603.08 516.38 604.16 513.32 604.15 512.03 602.16 511.54"/><rect id="SVGCleanerId_4-2" data-name="SVGCleanerId 4" class="cls-3" x="592.44" y="498.12" width="10.59" height="3.58" transform="translate(-1.9 2.29) rotate(-0.22)"/><polygon class="cls-3" points="592.45 501.72 593.55 505.1 601.97 505.07 603.05 501.68 592.45 501.72"/><rect class="cls-3" x="568.6" y="512.31" width="6.2" height="11.51" transform="translate(-1.97 2.19) rotate(-0.22)"/><path class="cls-3" d="M575,512.49c-3.25-7.46-3.31-12.54-3.3-13.3h-.08c0,.76,0,5.84-3.2,13.32Z"/><polygon class="cls-3" points="574.95 523.52 568.53 523.55 567.23 524.13 567.2 525.07 568.25 527.08 568.38 560.11 575.74 560.09 575.61 527.13 576.39 524.82 576.39 523.88 574.95 523.52"/><polygon class="cls-3" points="574.95 523.52 568.53 523.55 567.23 524.13 567.2 525.07 568.25 527.08 575.61 527.03 576.39 524.82 576.39 523.88 574.95 523.52"/><rect class="cls-3" x="567.91" y="513.79" width="7.68" height="2.6" transform="translate(-1.96 2.19) rotate(-0.22)"/><polygon class="cls-3" points="567.91 516.41 568.71 518.86 574.81 518.83 575.59 516.38 567.91 516.41"/><rect class="cls-3" x="561.53" y="530.52" width="4.59" height="8.52" transform="translate(-2.04 2.16) rotate(-0.22)"/><path class="cls-3" d="M566.25,530.65a25.14,25.14,0,0,1-2.45-9.85h-.06a25.35,25.35,0,0,1-2.37,9.87Z"/><polygon class="cls-3" points="566.23 538.82 561.48 538.84 560.52 539.27 560.49 539.97 561.27 541.46 561.37 565.91 566.81 565.89 566.72 541.49 567.3 539.78 567.3 539.09 566.23 538.82"/><polygon class="cls-3" points="566.23 538.82 561.48 538.84 560.52 539.27 560.49 539.97 561.27 541.46 566.72 541.42 567.3 539.78 567.3 539.09 566.23 538.82"/><rect class="cls-3" x="561.01" y="531.62" width="5.69" height="1.92" transform="translate(-2.03 2.16) rotate(-0.22)"/><polygon class="cls-3" points="561.02 533.55 561.61 535.37 566.13 535.35 566.7 533.53 561.02 533.55"/><rect class="cls-3" x="575.29" y="535.92" width="26.61" height="23.48" transform="translate(-2.09 2.25) rotate(-0.22)"/><path class="cls-3" d="M581.9,540.68a.42.42,0,0,0-.42.43V543a.43.43,0,1,0,.85,0v-1.92A.42.42,0,0,0,581.9,540.68Z"/><path class="cls-3" d="M584.35,540.67a.43.43,0,0,0-.42.44V543a.44.44,0,0,0,.43.44.44.44,0,0,0,.42-.44V541.1A.43.43,0,0,0,584.35,540.67Z"/><path class="cls-3" d="M583.12,540.69a.43.43,0,0,0-.42.44v1.92a.42.42,0,0,0,.42.43.43.43,0,0,0,.42-.44v-1.92A.43.43,0,0,0,583.12,540.69Z"/><path class="cls-3" d="M592.47,540.64a.43.43,0,0,0-.42.43V543a.42.42,0,0,0,.42.43.41.41,0,0,0,.42-.43v-1.92A.43.43,0,0,0,592.47,540.64Z"/><path class="cls-3" d="M594.93,540.63a.43.43,0,0,0-.42.44V543a.42.42,0,1,0,.84,0v-1.92A.43.43,0,0,0,594.93,540.63Z"/><path class="cls-3" d="M593.7,540.65a.43.43,0,0,0-.42.44V543a.43.43,0,0,0,.43.43.43.43,0,0,0,.42-.44v-1.92A.43.43,0,0,0,593.7,540.65Z"/><path class="cls-3" d="M587.8,540.66a.42.42,0,0,0-.42.43V543a.44.44,0,0,0,.43.43.42.42,0,0,0,.42-.43v-1.92A.42.42,0,0,0,587.8,540.66Z"/><path class="cls-3" d="M589,540.67a.43.43,0,0,0-.42.44V543a.42.42,0,1,0,.84,0V541.1A.43.43,0,0,0,589,540.67Z"/><path class="cls-3" d="M581.92,546.85a.42.42,0,0,0-.42.43v1.92a.42.42,0,1,0,.84,0v-1.92A.42.42,0,0,0,581.92,546.85Z"/><path class="cls-3" d="M584.38,546.84a.42.42,0,0,0-.42.43v1.92a.42.42,0,1,0,.84,0v-1.92A.42.42,0,0,0,584.38,546.84Z"/><path class="cls-3" d="M583.14,546.86a.43.43,0,0,0-.42.43v1.92a.42.42,0,0,0,.42.43.41.41,0,0,0,.42-.43v-1.92A.43.43,0,0,0,583.14,546.86Z"/><path class="cls-3" d="M592.5,546.81a.42.42,0,0,0-.42.43v1.92a.43.43,0,1,0,.85,0v-1.92A.42.42,0,0,0,592.5,546.81Z"/><path class="cls-3" d="M595,546.8a.43.43,0,0,0-.43.43v1.92a.43.43,0,1,0,.85,0v-1.92A.42.42,0,0,0,595,546.8Z"/><path class="cls-3" d="M593.72,546.82a.43.43,0,0,0-.42.43v1.92a.42.42,0,1,0,.84,0v-1.92A.42.42,0,0,0,593.72,546.82Z"/><path class="cls-3" d="M587.82,546.83a.42.42,0,0,0-.42.43v1.92a.42.42,0,0,0,.42.43.43.43,0,0,0,.42-.43v-1.92A.43.43,0,0,0,587.82,546.83Z"/><path class="cls-3" d="M589.05,546.84a.43.43,0,0,0-.43.43v1.92a.43.43,0,1,0,.85,0v-1.92A.42.42,0,0,0,589.05,546.84Z"/><rect class="cls-3" x="596.83" y="528.49" width="5.04" height="7.49" transform="translate(-2.03 2.29) rotate(-0.22)"/><rect class="cls-3" x="596.82" y="528.1" width="5.04" height="0.4" transform="translate(-2.01 2.29) rotate(-0.22)"/><rect class="cls-3" x="601.41" y="527.23" width="0.4" height="1.23" transform="translate(-2.01 2.3) rotate(-0.22)"/><rect class="cls-3" x="600.63" y="527.23" width="0.56" height="1.23" transform="translate(-2.01 2.3) rotate(-0.22)"/><rect class="cls-3" x="599.26" y="527.23" width="0.95" height="1.23" transform="translate(-2.01 2.29) rotate(-0.22)"/><rect class="cls-3" x="597.78" y="527.24" width="0.95" height="1.23" transform="translate(-2.01 2.29) rotate(-0.22)"/><rect class="cls-3" x="575.24" y="528.58" width="5.04" height="7.49" transform="translate(-2.03 2.21) rotate(-0.22)"/><rect class="cls-3" x="575.22" y="528.18" width="5.04" height="0.4" transform="translate(-2.01 2.21) rotate(-0.22)"/><rect class="cls-3" x="575.27" y="527.33" width="0.4" height="1.23" transform="translate(-2.01 2.2) rotate(-0.22)"/><rect class="cls-3" x="575.88" y="527.32" width="0.56" height="1.23" transform="translate(-2.01 2.2) rotate(-0.22)"/><rect class="cls-3" x="576.87" y="527.32" width="0.94" height="1.23" transform="translate(-2.01 2.21) rotate(-0.22)"/><rect class="cls-3" x="578.35" y="527.31" width="0.94" height="1.23" transform="translate(-2.01 2.21) rotate(-0.22)"/><rect class="cls-3" x="581.49" y="524.72" width="13.82" height="11.24" transform="translate(-2.02 2.25) rotate(-0.22)"/><polygon class="cls-3" points="588.48 510.69 578.98 524.75 598.08 524.68 588.48 510.69"/><polygon class="cls-3" points="578.98 524.66 579.74 527.54 579.77 536 581.76 535.99 581.72 524.65 578.98 524.66"/><polygon class="cls-3" points="595.29 524.6 595.34 535.94 597.33 535.93 597.29 527.47 598.03 524.59 595.29 524.6"/><rect class="cls-3" x="609.9" y="508.6" width="11.94" height="10.87" transform="translate(-1.96 2.35) rotate(-0.22)"/><path class="cls-3" d="M608.33,502.16s.16,7.4,1.55,7.39l11.94,0c1.52,0,1.49-7.4,1.49-7.4Z"/><path class="cls-3" d="M615.71,494.11s-7.24,8.19-8.57,8.19l17.42-.06C623,502.24,615.71,494.11,615.71,494.11Z"/><polygon class="cls-3" points="608.06 518.38 606.27 519.68 606.29 524.85 608.4 530.42 610.18 529.12 608.06 518.38"/><rect class="cls-3" x="607.84" y="528.8" width="16.41" height="23.28" transform="translate(-2.06 2.36) rotate(-0.22)"/><rect class="cls-3" x="607.84" y="528.82" width="2.29" height="23.28" transform="translate(-2.06 2.33) rotate(-0.22)"/><path class="cls-3" d="M625.58,561l-.81-10.32a.14.14,0,0,0-.15-.13l-16.42.06a.15.15,0,0,0-.14.15l0,10.34a.14.14,0,0,0,.14.14l17.2-.06h0a.15.15,0,0,0,.14-.15Z"/><polygon class="cls-3" points="608.06 518.38 608.08 523.55 610.18 529.12 624.16 529.06 626.23 523.48 626.21 518.31 608.06 518.38"/><polygon class="cls-3" points="607.78 517.52 606.27 518.66 606.27 519.69 609.3 517.51 607.78 517.52"/><rect class="cls-3" x="608.03" y="517.48" width="18.18" height="0.87" transform="translate(-1.97 2.36) rotate(-0.22)"/><polygon class="cls-3" points="607.68 551.08 606.68 550.15 606.68 548.76 605.09 548.77 605.08 546.71 603.22 546.72 603.22 544.73 601.43 544.74 601.42 542.88 599.83 542.88 599.82 540.83 597.86 540.84 597.87 542.89 596.28 542.9 596.29 544.75 594.5 544.76 594.5 546.75 592.65 546.76 592.65 548.81 591.06 548.82 591.07 550.21 590.08 551.14 584.11 551.17 584.14 559.32 613.68 559.21 613.65 551.05 607.68 551.08"/><rect class="cls-3" x="585.92" y="553.63" width="25.86" height="8.26" transform="translate(-2.12 2.29) rotate(-0.22)"/><rect class="cls-3" x="565.24" y="559.3" width="62.22" height="4.77" transform="translate(-2.14 2.28) rotate(-0.22)"/><rect class="cls-3" x="611.84" y="561.81" width="16.12" height="20.79" transform="translate(-2.18 2.37) rotate(-0.22)"/><rect class="cls-3" x="612.9" y="562.84" width="13.99" height="18.71" transform="translate(-2.18 2.37) rotate(-0.22)"/><path class="cls-3" d="M615.5,566.21c-.38,0-.68.22-.68.48v2.11c0,.27.31.48.69.48s.68-.22.68-.48v-2.11C616.18,566.43,615.87,566.21,615.5,566.21Z"/><path class="cls-3" d="M617,566.23c-.37,0-.68.21-.68.48v2.11c0,.26.31.47.68.47s.68-.21.68-.48V566.7C617.7,566.44,617.4,566.23,617,566.23Z"/><path class="cls-3" d="M617,566a1,1,0,0,0-.75.31,1,1,0,0,0-.78-.33.83.83,0,0,0-.91.72v2.1a.83.83,0,0,0,.92.71,1.07,1.07,0,0,1,1.52,0c.52,0,.92-.31.91-.71V566.7A.82.82,0,0,0,617,566ZM616,568.8c0,.11-.19.24-.44.24s-.45-.12-.45-.24v-2.11c0-.11.19-.24.45-.24s.44.13.45.24Zm1.53,0c0,.12-.19.25-.45.25s-.45-.13-.45-.24v-2.11c0-.12.19-.25.44-.25s.45.13.45.24Z"/><path class="cls-3" d="M618.74,566.13a3.19,3.19,0,0,0-2.53-1.24,2.56,2.56,0,0,0-2.31,1.29.24.24,0,0,0,.21.34.23.23,0,0,0,.2-.13,2.14,2.14,0,0,1,1.9-1,2.77,2.77,0,0,1,2.16,1,.23.23,0,0,0,.32.06A.24.24,0,0,0,618.74,566.13Z"/><path class="cls-3" d="M622.5,566.19c-.38,0-.68.21-.68.48v2.11c0,.26.3.47.68.47s.68-.22.68-.48v-2.11C623.18,566.4,622.87,566.19,622.5,566.19Z"/><path class="cls-3" d="M624,566.2c-.37,0-.68.22-.68.48v2.11c0,.26.31.47.68.47s.68-.21.68-.48v-2.1C624.7,566.41,624.4,566.2,624,566.2Z"/><path class="cls-3" d="M624,566a1,1,0,0,0-.75.31,1,1,0,0,0-.77-.32c-.52,0-.92.31-.91.71v2.11c0,.4.41.7.92.7a1,1,0,0,0,.75-.3,1,1,0,0,0,.77.32c.52,0,.92-.32.92-.71v-2.11A.83.83,0,0,0,624,566Zm-1.07,2.8c0,.11-.19.25-.44.25s-.45-.13-.45-.24v-2.11c0-.12.19-.25.45-.25s.45.13.45.24Zm1.53,0c0,.11-.19.24-.45.24s-.45-.13-.45-.24v-2.11c0-.12.19-.24.44-.25s.45.13.45.25Z"/><path class="cls-3" d="M625.75,566.11a3.21,3.21,0,0,0-2.54-1.24,2.56,2.56,0,0,0-2.31,1.28.24.24,0,0,0,.21.34.23.23,0,0,0,.2-.13,2.16,2.16,0,0,1,1.9-1,2.78,2.78,0,0,1,2.16,1,.23.23,0,0,0,.32.06A.24.24,0,0,0,625.75,566.11Z"/><rect class="cls-3" x="569.86" y="561.97" width="16.12" height="20.79" transform="translate(-2.18 2.21) rotate(-0.22)"/><rect class="cls-3" x="570.93" y="563" width="13.99" height="18.71" transform="translate(-2.18 2.21) rotate(-0.22)"/><path class="cls-3" d="M573.52,566.38c-.38,0-.68.21-.68.47V569c0,.27.3.48.68.48s.68-.22.68-.48v-2.11C574.2,566.59,573.89,566.37,573.52,566.38Z"/><path class="cls-3" d="M575,566.39c-.37,0-.68.21-.67.48V569c0,.26.31.47.69.47s.67-.21.67-.48v-2.11C575.72,566.6,575.42,566.39,575,566.39Z"/><path class="cls-3" d="M575,566.16a1.06,1.06,0,0,1-1.52,0c-.52,0-.92.32-.91.72V569a.84.84,0,0,0,.92.7,1,1,0,0,0,.75-.31,1,1,0,0,0,.78.32A.82.82,0,0,0,576,569v-2.11A.82.82,0,0,0,575,566.16ZM574,569c0,.11-.2.24-.45.24s-.45-.12-.45-.24v-2.11c0-.11.2-.24.45-.24s.45.13.45.24Zm1.52,0c0,.12-.19.25-.45.25s-.44-.13-.44-.24v-2.11c0-.12.19-.25.44-.25s.45.13.45.24Z"/><path class="cls-3" d="M576.77,566.29a3.25,3.25,0,0,0-2.54-1.24,2.58,2.58,0,0,0-2.31,1.29.24.24,0,0,0,.21.34.24.24,0,0,0,.21-.13,2.09,2.09,0,0,1,1.89-1,2.75,2.75,0,0,1,2.16,1,.23.23,0,0,0,.32.06A.25.25,0,0,0,576.77,566.29Z"/><path class="cls-3" d="M580.52,566.35c-.38,0-.68.21-.68.48v2.11c0,.26.3.47.68.47s.68-.22.68-.48v-2.11C581.2,566.56,580.89,566.35,580.52,566.35Z"/><path class="cls-3" d="M582,566.36c-.37,0-.68.22-.67.48V569c0,.26.31.47.69.47s.68-.21.67-.47v-2.11C582.73,566.57,582.42,566.36,582,566.36Z"/><path class="cls-3" d="M582,566.13a1.07,1.07,0,0,1-1.52,0c-.51,0-.92.31-.91.71v2.11a.83.83,0,0,0,.92.7,1,1,0,0,0,.75-.3,1,1,0,0,0,.78.32c.51,0,.91-.32.91-.71v-2.11A.83.83,0,0,0,582,566.13Zm-1.06,2.8c0,.12-.2.25-.45.25s-.45-.13-.45-.24v-2.11c0-.12.2-.25.45-.25s.45.13.45.24Zm1.52,0c0,.11-.19.24-.44.24s-.45-.13-.45-.24v-2.11c0-.12.19-.24.45-.25s.44.13.44.25Z"/><path class="cls-3" d="M583.77,566.27a3.21,3.21,0,0,0-2.54-1.24,2.56,2.56,0,0,0-2.31,1.28.24.24,0,0,0,.11.32l.1,0a.24.24,0,0,0,.21-.13,2.11,2.11,0,0,1,1.89-1,2.78,2.78,0,0,1,2.16,1,.23.23,0,0,0,.38-.26Z"/><rect class="cls-3" x="585.98" y="561.89" width="25.86" height="20.79" transform="translate(-2.18 2.29) rotate(-0.22)"/><rect class="cls-3" x="587.22" y="567.1" width="1.79" height="3.48" transform="translate(-2.17 2.25) rotate(-0.22)"/><rect class="cls-3" x="587.62" y="567.87" width="0.99" height="1.93" transform="translate(-2.17 2.25) rotate(-0.22)"/><rect class="cls-3" x="587.25" y="575.54" width="1.79" height="3.48" transform="matrix(1, 0, 0, 1, -2.2, 2.25)"/><rect class="cls-3" x="587.66" y="576.32" width="0.99" height="1.93" transform="translate(-2.2 2.25) rotate(-0.22)"/><rect class="cls-3" x="573.38" y="575.59" width="1.79" height="3.48" transform="matrix(1, 0, 0, 1, -2.2, 2.2)"/><rect class="cls-3" x="573.78" y="576.37" width="0.99" height="1.93" transform="translate(-2.2 2.2) rotate(-0.22)"/><rect class="cls-3" x="580.43" y="575.56" width="1.79" height="3.48" transform="translate(-2.2 2.22) rotate(-0.22)"/><rect class="cls-3" x="580.83" y="576.34" width="0.99" height="1.93" transform="translate(-2.2 2.22) rotate(-0.22)"/><rect class="cls-3" x="608.85" y="567.02" width="1.79" height="3.48" transform="translate(-2.17 2.33) rotate(-0.22)"/><rect class="cls-3" x="609.24" y="567.79" width="1" height="1.93" transform="translate(-2.17 2.33) rotate(-0.22)"/><rect class="cls-3" x="608.88" y="575.46" width="1.79" height="3.48" transform="translate(-2.2 2.33) rotate(-0.22)"/><rect class="cls-3" x="609.27" y="576.23" width="1" height="1.93" transform="translate(-2.2 2.33) rotate(-0.22)"/><rect class="cls-3" x="622.36" y="575.4" width="1.79" height="3.48" transform="translate(-2.2 2.38) rotate(-0.22)"/><rect class="cls-3" x="622.75" y="576.18" width="1" height="1.93" transform="translate(-2.2 2.38) rotate(-0.22)"/><rect class="cls-3" x="615.55" y="575.43" width="1.79" height="3.48" transform="translate(-2.2 2.36) rotate(-0.22)"/><rect class="cls-3" x="615.94" y="576.21" width="0.99" height="1.93" transform="translate(-2.2 2.36) rotate(-0.22)"/><path class="cls-3" d="M608.85,564.61l0-5.15-19.87.08,0,5.15c0,1.29,2,2.45,2,2.45l0,5.37-1.23,1.5a1.74,1.74,0,0,0-.55,1.29l0,7.36,19.37-.07,0-7.36a1.75,1.75,0,0,0-.55-1.29l-1.25-1.49,0-5.37S608.85,565.9,608.85,564.61Z"/><path class="cls-3" d="M589,559.54l0,5.14c0,1.3,2,2.46,2,2.46l0,5.37-1.23,1.5a1.74,1.74,0,0,0-.55,1.29l0,7.36,9.65,0-.09-23.13-9.9,0Z"/><path class="cls-3" d="M596.29,561.76v4h1.09a1.85,1.85,0,0,1,3.17,0h1.09v-4Z"/><path class="cls-3" d="M596.29,561.76v4h1.09a1.59,1.59,0,0,1,3.17,0h1.09v-4Z"/><path class="cls-3" d="M604.51,559.48l0,5.15c0,1.29,2.05,2.45,2.05,2.45h0s2-1.18,2-2.47l0-5.15Z"/><path class="cls-3" d="M604.73,559.48l0,5.14c0,1.3,2,2.46,2,2.46h0s2-1.18,2-2.47l0-5.15Z"/><path class="cls-3" d="M589.17,559.54l0,5.14c0,1.3,2,2.46,2,2.46h0s2-1.18,2-2.47l0-5.15Z"/><path class="cls-3" d="M589,559.54l0,5.14c0,1.3,2,2.46,2,2.46h0s2-1.18,2-2.47l0-5.15Z"/><rect class="cls-3" x="603.13" y="567.24" width="0.63" height="1.59" transform="translate(-2.16 2.31) rotate(-0.22)"/><rect class="cls-3" x="594.05" y="567.28" width="0.63" height="1.59" transform="translate(-2.16 2.27) rotate(-0.22)"/><rect class="cls-3" x="596.81" y="566.56" width="4.21" height="4.48" transform="translate(-2.17 2.29) rotate(-0.22)"/><rect class="cls-3" x="596.81" y="567.06" width="3.98" height="3.98" transform="translate(-2.17 2.29) rotate(-0.22)"/><path class="cls-3" d="M589,559.54v2.35l19.87-.07v-2.36Z"/><path class="cls-3" d="M599,573.08h-.16A3.87,3.87,0,0,0,595,577l0,5.73H603l0-5.75A3.85,3.85,0,0,0,599,573.08Z"/><polygon class="cls-3" points="598.81 545.11 593.34 553.65 604.34 553.61 598.81 545.11"/><path class="cls-3" d="M598.78,544.64a.6.6,0,0,0-.58.59V548a.59.59,0,0,0,1.17,0v-2.79A.6.6,0,0,0,598.78,544.64Z"/><path class="cls-3" d="M600.63,546.91a.58.58,0,0,0-.58.58v2.79a.57.57,0,0,0,.58.57.58.58,0,0,0,.58-.58v-2.79A.57.57,0,0,0,600.63,546.91Z"/><path class="cls-3" d="M602.09,549.08a.59.59,0,0,0-.58.59v2.78a.57.57,0,0,0,.58.58.58.58,0,0,0,.58-.58v-2.79A.58.58,0,0,0,602.09,549.08Z"/><path class="cls-3" d="M603.55,551.38a.57.57,0,0,0-.57.58v2.79a.58.58,0,0,0,1.16,0V552A.58.58,0,0,0,603.55,551.38Z"/><path class="cls-3" d="M597,546.92a.58.58,0,0,0-.58.58v2.79a.58.58,0,1,0,1.16,0V547.5A.58.58,0,0,0,597,546.92Z"/><path class="cls-3" d="M595.56,549.11a.58.58,0,0,0-.58.58v2.79a.58.58,0,1,0,1.16,0v-2.78A.58.58,0,0,0,595.56,549.11Z"/><path class="cls-3" d="M594.16,551.42a.58.58,0,0,0-.58.58v2.79a.59.59,0,0,0,1.17,0V552A.58.58,0,0,0,594.16,551.42Z"/><path class="cls-3" d="M591.8,528.84l-6.85,0c-.13,0-.23,0-.23.06v.28s.11.06.24.06l6.84,0c.13,0,.23,0,.23-.07v-.27S591.93,528.84,591.8,528.84Z"/><path class="cls-3" d="M586.5,532.64a.63.63,0,0,0-.63.63v2.82a.64.64,0,0,0,1.27,0v-2.81A.64.64,0,0,0,586.5,532.64Z"/><path class="cls-3" d="M590.2,532.62a.64.64,0,0,0-.63.64v2.81a.63.63,0,0,0,1.26,0v-2.81A.64.64,0,0,0,590.2,532.62Z"/><path class="cls-3" d="M588.34,532.48a.64.64,0,0,0-.63.64v2.81a.63.63,0,0,0,.63.63.64.64,0,0,0,.64-.64v-2.81A.64.64,0,0,0,588.34,532.48Z"/><path class="cls-3" d="M591.82,536.05l-6.84,0a.23.23,0,0,0-.23.23v.94a.23.23,0,0,0,.24.23l6.84,0a.23.23,0,0,0,.23-.23v-.94A.23.23,0,0,0,591.82,536.05Z"/><path class="cls-3" d="M567.6,582.14l0,3.69a62.21,62.21,0,0,0,63.26-1.67V581.9l-63.27.24Z"/><rect class="cls-3" x="629.3" y="557.49" width="0.7" height="2.79" transform="translate(-2.13 2.41) rotate(-0.22)"/><rect class="cls-3" x="629.34" y="567.14" width="0.7" height="2.79" transform="translate(-2.17 2.41) rotate(-0.22)"/><rect class="cls-3" x="629.37" y="576.99" width="0.7" height="2.79" transform="translate(-2.2 2.41) rotate(-0.22)"/><polygon class="cls-3" points="626.95 546.65 626.97 549.58 637.26 549.54 637.27 546.61 626.95 546.65"/><path class="cls-3" d="M635.39,546.92l-3.24-5.38a.15.15,0,0,0-.13-.07h0a.17.17,0,0,0-.13.07L628.82,547a.14.14,0,0,0,0,.14.16.16,0,0,0,.13.08l6.32,0a.17.17,0,0,0,.13-.07A.16.16,0,0,0,635.39,546.92Z"/><rect class="cls-3" x="562.85" y="557.74" width="0.7" height="2.79" transform="translate(-2.13 2.15) rotate(-0.22)"/><rect class="cls-3" x="562.89" y="567.4" width="0.7" height="2.79" transform="translate(-2.17 2.15) rotate(-0.22)"/><rect class="cls-3" x="562.92" y="577.25" width="0.7" height="2.79" transform="translate(-2.2 2.15) rotate(-0.22)"/><polygon class="cls-3" points="560.5 546.9 560.52 549.84 570.82 549.8 570.82 546.87 560.5 546.9"/><path class="cls-3" d="M568.94,547.17l-3.24-5.38a.17.17,0,0,0-.13-.07h0a.14.14,0,0,0-.13.08l-3.07,5.4a.14.14,0,0,0,0,.15.17.17,0,0,0,.13.07l6.32,0a.16.16,0,0,0,.13-.08A.16.16,0,0,0,568.94,547.17Z"/><path class="cls-3" d="M637.26,549.54l-10.29,0,.46,1.84-.32,30.44,7.21,0c1-.74,2-1.51,3-2.31l-.51-28.13Z"/><path class="cls-3" d="M627.1,582.61v-.75h-.25a.15.15,0,0,0-.15.14l-.41,4.77a62.69,62.69,0,0,0,7-4.18l-6.17,0Z"/><path class="cls-3" d="M627.1,581.86v.75l6.17,0,1.05-.75Z"/><path class="cls-3" d="M570.82,549.8l-10.3,0,.46,1.84-.32,29.66c.36.27.72.51,1.08.77l9.19,0-.56-30.44Z"/><path class="cls-3" d="M571.32,582.21a.14.14,0,0,0-.15-.13h-.24v.74l-8.14,0a61.16,61.16,0,0,0,9,5.11.19.19,0,0,0,0-.08Z"/><path class="cls-3" d="M570.93,582.08l-9.19,0,1.06.75,8.14,0Z"/><path class="cls-3" d="M589.18,581.69v1.64c5.72,6,23.78,5.82,33.31,5.25,1.37-.6,2.72-1.25,4-1.94C619.52,587.26,595.88,588.75,589.18,581.69Z"/><path class="cls-3" d="M589.19,583.32l0,9.73a62.08,62.08,0,0,0,33.28-4.47C613,589.15,594.91,589.35,589.19,583.32Z"/><path class="cls-3" d="M578.71,584.84l0,5.82c.6.19,1.2.38,1.8.55l0-6.38Z"/><polygon class="cls-3" points="579 576.55 573.64 587.97 585.11 587.93 579 576.55"/><polygon class="cls-3" points="579.08 574.79 575.1 583.28 583.62 583.25 579.08 574.79"/><polygon class="cls-3" points="579.12 572.38 575.9 579.24 582.78 579.21 579.12 572.38"/><circle class="cls-3" cx="427.67" cy="476.68" r="1.66"/><circle class="cls-3" cx="427.43" cy="573.49" r="1.66"/><circle class="cls-3" cx="475.82" cy="525.21" r="1.66"/><circle class="cls-3" cx="379.14" cy="524.97" r="1.66"/><circle class="cls-3" cx="461.84" cy="491" r="1.66"/><circle class="cls-3" cx="393.21" cy="559.27" r="1.66"/><circle class="cls-3" cx="461.58" cy="559.35" r="1.66"/><circle class="cls-3" cx="393.38" cy="490.83" r="1.66"/><circle class="cls-3" cx="467.66" cy="498.08" r="1.66"/><circle class="cls-3" cx="387.38" cy="552.2" r="1.66"/><circle class="cls-3" cx="454.51" cy="565.17" r="1.66"/><circle class="cls-3" cx="400.46" cy="485.01" r="1.66"/><circle class="cls-3" cx="472.02" cy="506.12" r="1.66"/><circle class="cls-3" cx="383" cy="544.17" r="1.66"/><circle class="cls-3" cx="446.48" cy="569.53" r="1.66"/><circle class="cls-3" cx="408.48" cy="480.64" r="1.66"/><circle class="cls-3" cx="474.95" cy="515.62" r="1.66"/><circle class="cls-3" cx="380.04" cy="534.7" r="1.66"/><circle class="cls-3" cx="437" cy="572.48" r="1.66"/><circle class="cls-3" cx="417.96" cy="477.69" r="1.66"/><circle class="cls-3" cx="474.76" cy="535.48" r="1.66"/><circle class="cls-3" cx="380.19" cy="514.8" r="1.66"/><circle class="cls-3" cx="417.17" cy="572.3" r="1.66"/><circle class="cls-3" cx="437.81" cy="477.85" r="1.66"/><circle class="cls-3" cx="471.96" cy="544.19" r="1.66"/><circle class="cls-3" cx="382.96" cy="506.09" r="1.66"/><circle class="cls-3" cx="408.46" cy="569.52" r="1.66"/><circle class="cls-3" cx="446.51" cy="480.64" r="1.66"/><circle class="cls-3" cx="467.12" cy="552.87" r="1.66"/><circle class="cls-3" cx="387.78" cy="497.4" r="1.66"/><circle class="cls-3" cx="399.8" cy="564.7" r="1.66"/><circle class="cls-3" cx="455.19" cy="485.46" r="1.66"/><path class="cls-3" d="M456.83,495.82a41.49,41.49,0,1,0,12.08,29.37A41.22,41.22,0,0,0,456.83,495.82Zm-29.51,70.23a41,41,0,1,1,41.06-40.86A41,41,0,0,1,427.32,566.05Z"/><path class="cls-3" d="M459,493.62a44.61,44.61,0,1,0,13,31.58A44.31,44.31,0,0,0,459,493.62ZM427.31,569.3a44.22,44.22,0,1,1,44.32-44.1A44.27,44.27,0,0,1,427.31,569.3Z"/><path class="cls-3" d="M428.35,478.28a.19.19,0,0,0-.26.09l-2.44,5.12-3.11-5a.2.2,0,0,0-.21-.08.19.19,0,0,0-.16.16l-.74,5.16L418,479.35a.21.21,0,0,0-.21-.07.18.18,0,0,0-.14.17l-.62,5.33-3.91-4.15a.2.2,0,0,0-.22-.05.18.18,0,0,0-.12.19l.23,5-3.55-3.93a.19.19,0,0,0-.23-.05.2.2,0,0,0-.12.2l.61,5.34-4.18-3.47a.21.21,0,0,0-.33.2l1.19,5.53a.2.2,0,0,0,.2.16h0a.2.2,0,0,0,.15-.24l-1.06-5,4.12,3.41a.21.21,0,0,0,.23,0,.19.19,0,0,0,.1-.2l-.6-5.2,3.51,3.88a.21.21,0,0,0,.22,0,.21.21,0,0,0,.13-.2l-.24-5,3.83,4.07a.21.21,0,0,0,.21.06.2.2,0,0,0,.14-.17L418,480l3.39,4.37a.2.2,0,0,0,.35-.1l.73-5.08,3,4.84a.19.19,0,0,0,.18.09.2.2,0,0,0,.17-.11l2.58-5.45A.19.19,0,0,0,428.35,478.28Z"/><path class="cls-3" d="M406.72,489.54l-5.05-3.35a.18.18,0,0,0-.22,0,.19.19,0,0,0-.08.21l1.44,5.14-5.08-2.31a.2.2,0,0,0-.22,0,.2.2,0,0,0-.05.22l1.94,5L394,492.65a.2.2,0,0,0-.22.06.21.21,0,0,0,0,.23l2.55,4.33-4.84-1.77a.19.19,0,0,0-.22.06.18.18,0,0,0,0,.23l2.9,4.4-5.33-1.12a.2.2,0,0,0-.21.1.2.2,0,0,0,0,.23l3.63,4.34a.2.2,0,0,0,.16.07.18.18,0,0,0,.12-.05.19.19,0,0,0,0-.28l-3.27-3.9,5.25,1.1a.2.2,0,0,0,.2-.09.18.18,0,0,0,0-.22l-2.84-4.29,4.8,1.76a.21.21,0,0,0,.22-.06.21.21,0,0,0,0-.23l-2.56-4.35,5.29,1.81a.19.19,0,0,0,.21-.05.2.2,0,0,0,0-.21L398,489.81l5,2.28a.2.2,0,0,0,.21,0,.19.19,0,0,0,.06-.2l-1.41-5,4.6,3.05a.2.2,0,0,0,.22-.33Z"/><path class="cls-3" d="M392.41,503.48l-6.25-.18a.21.21,0,0,0-.19.13.2.2,0,0,0,0,.22l3.89,3.47-5.52.4a.22.22,0,0,0-.18.14.21.21,0,0,0,.06.21l4.1,3.46-5.62,1a.2.2,0,0,0-.16.16.2.2,0,0,0,.09.21l4.32,2.58-5.25.79a.19.19,0,0,0-.16.17.2.2,0,0,0,.1.21l4.78,2.43L381,520.4a.21.21,0,0,0-.15.19.21.21,0,0,0,.13.19l5.35,2,.07,0a.21.21,0,0,0,.19-.13.2.2,0,0,0-.12-.26l-4.78-1.8,5.37-1.53a.22.22,0,0,0,.14-.17.2.2,0,0,0-.11-.2l-4.67-2.39,5.18-.77a.2.2,0,0,0,.16-.16.2.2,0,0,0-.09-.21l-4.33-2.6,5.51-.93a.2.2,0,0,0,.16-.15.19.19,0,0,0-.06-.2l-4.06-3.43,5.51-.4a.21.21,0,0,0,.18-.13.2.2,0,0,0-.06-.21l-3.83-3.42,5.7.16h0a.22.22,0,0,0,.21-.19A.21.21,0,0,0,392.41,503.48Z"/><path class="cls-3" d="M390,542l-5,.54,3.83-3.74a.22.22,0,0,0,0-.22.2.2,0,0,0-.19-.13l-5.24,0,4.23-3.08a.21.21,0,0,0,.08-.22.2.2,0,0,0-.18-.14l-5-.3,4.45-3.38a.2.2,0,0,0,.07-.2.17.17,0,0,0-.15-.15l-5.17-1.16,4.7-2.91a.2.2,0,0,0,.09-.2.19.19,0,0,0-.15-.16l-5-1.26,5.13-2.49a.2.2,0,1,0-.18-.36l-5.62,2.73a.21.21,0,0,0-.11.2.2.2,0,0,0,.15.18l5.06,1.27-4.72,2.91a.22.22,0,0,0-.09.21.19.19,0,0,0,.15.16l5.24,1.17-4.54,3.45a.2.2,0,0,0,.11.36l5,.29-4.28,3.13a.19.19,0,0,0-.07.22.2.2,0,0,0,.19.14l5.37,0-3.89,3.8a.2.2,0,0,0,0,.23.19.19,0,0,0,.18.11h0l5.63-.6a.2.2,0,0,0,.18-.22A.22.22,0,0,0,390,542Z"/><path class="cls-3" d="M402.68,557.72a.21.21,0,0,0-.28-.06l-4.22,2.84,1.64-5.1a.2.2,0,0,0-.06-.21.22.22,0,0,0-.22,0L395,557.54l2.25-4.59a.2.2,0,0,0,0-.22.22.22,0,0,0-.23-.05l-4.59,2.09,2.36-5.07a.2.2,0,0,0,0-.21.23.23,0,0,0-.21-.07l-5.12,1.39,2.81-4.76a.22.22,0,0,0,0-.21.18.18,0,0,0-.2-.08l-5.16.87,3.52-4.25a.2.2,0,0,0-.31-.25l-3.86,4.66a.21.21,0,0,0,0,.23.21.21,0,0,0,.21.1l5.26-.9L388.78,551a.21.21,0,0,0,0,.23.21.21,0,0,0,.21.07l5.17-1.41-2.4,5.17a.2.2,0,0,0,0,.23.19.19,0,0,0,.22,0l4.58-2.08-2.28,4.63a.2.2,0,0,0,0,.23.2.2,0,0,0,.23,0l4.68-2.43-1.67,5.19a.19.19,0,0,0,.07.22.25.25,0,0,0,.12,0,.21.21,0,0,0,.11,0l4.7-3.15A.21.21,0,0,0,402.68,557.72Z"/><path class="cls-3" d="M420.86,565.62a.2.2,0,0,0-.27.09l-2.29,4.57-1-5.5a.22.22,0,0,0-.16-.16.22.22,0,0,0-.21.09l-2.86,4.39-.23-5.23a.19.19,0,0,0-.14-.18.19.19,0,0,0-.22.07l-3,4-.35-5.58A.21.21,0,0,0,410,562a.2.2,0,0,0-.21,0L406,565.75l.18-5.52A.2.2,0,0,0,406,560a.2.2,0,0,0-.21,0L402,563.53l.77-5.66a.2.2,0,0,0-.17-.22.2.2,0,0,0-.23.17l-.83,6.2a.19.19,0,0,0,.1.2.2.2,0,0,0,.23,0l3.86-3.5-.18,5.54a.17.17,0,0,0,.11.18.2.2,0,0,0,.22,0l3.88-3.71.36,5.69a.18.18,0,0,0,.14.17.19.19,0,0,0,.22-.07l3-4,.23,5.29a.18.18,0,0,0,.15.18.19.19,0,0,0,.22-.08l2.92-4.49,1,5.6a.19.19,0,0,0,.17.16h0a.19.19,0,0,0,.18-.11l2.57-5.11A.2.2,0,0,0,420.86,565.62Z"/><path class="cls-3" d="M440.85,564a.2.2,0,0,0-.2-.2h0a.2.2,0,0,0-.2.2l0,5.09-3.34-4.19a.2.2,0,0,0-.36.1l-.48,5.22-2.64-4.52a.2.2,0,0,0-.21-.09.19.19,0,0,0-.16.16l-.81,5L429.57,566a.21.21,0,0,0-.19-.09.2.2,0,0,0-.17.13l-1.68,5-2.41-5a.2.2,0,0,0-.19-.11.19.19,0,0,0-.18.13L423,571l-2-5.36a.22.22,0,0,0-.26-.12.21.21,0,0,0-.12.26l2.15,5.87a.21.21,0,0,0,.19.13h0a.2.2,0,0,0,.19-.13l1.78-4.9,2.42,5a.2.2,0,0,0,.18.11h0a.2.2,0,0,0,.18-.13l1.69-5.09,3,4.86a.19.19,0,0,0,.21.09.19.19,0,0,0,.15-.16l.81-5,2.67,4.58a.2.2,0,0,0,.37-.08l.49-5.35,3.39,4.25a.19.19,0,0,0,.22.06.2.2,0,0,0,.14-.19Z"/><path class="cls-3" d="M460.29,558.12l-2.67-5a.2.2,0,0,0-.27-.09.21.21,0,0,0-.08.28l2.39,4.48-4.9-2.14a.2.2,0,0,0-.22,0,.21.21,0,0,0-.05.22l1.9,4.79L452.06,558a.21.21,0,0,0-.23,0,.22.22,0,0,0-.07.22l1.62,4.79-4.81-2.86a.2.2,0,0,0-.21,0,.2.2,0,0,0-.09.2l.87,5.23-4.45-3.26a.22.22,0,0,0-.22,0,.19.19,0,0,0-.1.19l.35,5.22-3.87-3.93a.21.21,0,0,0-.29,0,.21.21,0,0,0,0,.28l4.25,4.32a.25.25,0,0,0,.14.06l.09,0a.21.21,0,0,0,.11-.2l-.36-5.33,4.51,3.3a.2.2,0,0,0,.31-.19l-.87-5.29,4.9,2.91a.18.18,0,0,0,.22,0,.21.21,0,0,0,.07-.22l-1.61-4.77,4.37,2.74a.23.23,0,0,0,.24,0,.2.2,0,0,0,.05-.23L455,556.22l5,2.18a.22.22,0,0,0,.23,0A.2.2,0,0,0,460.29,558.12Z"/><path class="cls-3" d="M472.15,538.76l-4.83-3.07a.2.2,0,0,0-.27.06.21.21,0,0,0,.06.28l4.32,2.74-5.57.4a.22.22,0,0,0-.18.14.21.21,0,0,0,.07.22l4.08,3.29-5.23-.31a.2.2,0,0,0-.14.35l3.7,3.43-5.58-.22a.21.21,0,0,0-.19.11.22.22,0,0,0,0,.22l3.27,4.18-5.48-.74a.2.2,0,0,0-.2.1.2.2,0,0,0,0,.22l3.05,4.13L457.52,553a.2.2,0,0,0-.24.15.2.2,0,0,0,.15.24l6.08,1.46h0a.2.2,0,0,0,.16-.32l-3.09-4.19,5.49.74a.2.2,0,0,0,.2-.1.2.2,0,0,0,0-.22l-3.3-4.23,5.7.22a.2.2,0,0,0,.14-.35l-3.69-3.42,5.29.31a.22.22,0,0,0,.2-.13.2.2,0,0,0-.06-.22l-4.18-3.37,5.67-.4a.22.22,0,0,0,.18-.15A.2.2,0,0,0,472.15,538.76Z"/><path class="cls-3" d="M474.15,524.51l-4.85-1.32,4.83-2.18a.2.2,0,0,0,.12-.2.21.21,0,0,0-.16-.18l-5.27-1,4.59-2.92a.19.19,0,0,0,.08-.21.2.2,0,0,0-.17-.16l-5.63-.56a.2.2,0,0,0-.22.18.2.2,0,0,0,.18.21l5.06.51-4.52,2.88a.22.22,0,0,0-.09.21.22.22,0,0,0,.16.16l5.14,1-4.77,2.16a.2.2,0,0,0-.12.19.2.2,0,0,0,.15.18l4.87,1.32-5,2.4a.21.21,0,0,0-.12.18.22.22,0,0,0,.12.18l4.83,2.2-5.19,1.88a.19.19,0,0,0-.14.17.2.2,0,0,0,.12.19l4.62,2.26-5.54,1.38a.2.2,0,0,0-.14.25.19.19,0,0,0,.19.15h0l6.06-1.52a.2.2,0,0,0,.15-.17.18.18,0,0,0-.11-.2l-4.69-2.29,5.22-1.88a.23.23,0,0,0,.13-.18.21.21,0,0,0-.12-.19L469,527.33l5.15-2.45a.19.19,0,0,0,.11-.2A.2.2,0,0,0,474.15,524.51Z"/><path class="cls-3" d="M472.48,512a.21.21,0,0,0-.18-.14l-5.34-.2,3.76-4.13a.18.18,0,0,0,0-.22.2.2,0,0,0-.19-.12l-5.35.32,3.41-4.57a.18.18,0,0,0,0-.22.2.2,0,0,0-.21-.09l-4.91,1.1,3.18-4.07a.2.2,0,0,0-.21-.31l-5.08,1.42,2.7-4.73a.23.23,0,0,0,0-.24.22.22,0,0,0-.23-.05l-5.25,2.13a.2.2,0,0,0,.15.37l4.72-1.91L460.82,501a.2.2,0,0,0,.22.29l5-1.38-3.14,4a.2.2,0,0,0,0,.23.23.23,0,0,0,.22.09l4.92-1.11-3.35,4.48a.2.2,0,0,0,0,.22.18.18,0,0,0,.18.1l5.3-.31-3.72,4.09a.2.2,0,0,0,0,.21.2.2,0,0,0,.18.12l5.23.2-4.32,3.44a.2.2,0,0,0,0,.28.2.2,0,0,0,.16.07.19.19,0,0,0,.12,0l4.74-3.77A.2.2,0,0,0,472.48,512Z"/><path class="cls-3" d="M460.83,492a.19.19,0,0,0-.23,0l-4.49,2.64,1.31-5.39a.2.2,0,0,0-.3-.21l-4.55,2.83.81-5.64a.2.2,0,0,0-.1-.2.21.21,0,0,0-.23,0l-3.78,3.32.86-5.24a.21.21,0,0,0-.11-.21.21.21,0,0,0-.23,0l-3.78,3.8.19-5.68a.2.2,0,0,0-.13-.19.2.2,0,0,0-.23.06L442.6,486l-.46-5.38a.17.17,0,0,0-.15-.17.18.18,0,0,0-.21.09l-2.63,4.33-1.23-5.32a.19.19,0,0,0-.17-.15.19.19,0,0,0-.2.1L435.07,484l-1.72-5.25a.2.2,0,0,0-.19-.14h0a.21.21,0,0,0-.19.13l-1.73,4.82-2.8-5.15a.2.2,0,0,0-.35.19l3,5.54a.19.19,0,0,0,.19.1.17.17,0,0,0,.17-.13l1.69-4.69,1.68,5.13a.2.2,0,0,0,.37,0l2.45-4.38,1.22,5.29a.22.22,0,0,0,.16.16.2.2,0,0,0,.2-.1l2.57-4.22.44,5.27a.19.19,0,0,0,.14.17.21.21,0,0,0,.22-.07l3.18-4-.19,5.58a.21.21,0,0,0,.12.19.22.22,0,0,0,.22,0l3.7-3.72-.85,5.17a.2.2,0,0,0,.1.2.18.18,0,0,0,.23,0l3.8-3.32-.8,5.53a.2.2,0,0,0,.09.2.2.2,0,0,0,.21,0l4.5-2.81L455.6,495a.21.21,0,0,0,.08.21.2.2,0,0,0,.22,0l4.43-2.6L458.42,498a.2.2,0,0,0,.13.25h.06a.21.21,0,0,0,.19-.13l2.09-5.89A.2.2,0,0,0,460.83,492Z"/><path class="cls-3" d="M447.83,482.94a.2.2,0,0,0-.23,0l-4,3.64.38-5.35a.21.21,0,0,0-.13-.2.2.2,0,0,0-.22.05l-3.38,4.09v-5a.21.21,0,0,0-.13-.19.2.2,0,0,0-.22.06l-3.72,4.32-.85-5.3a.19.19,0,0,0-.15-.16.2.2,0,0,0-.21.08l-3.2,4.53-1-5.13a.22.22,0,0,0-.16-.16.21.21,0,0,0-.21.1l-2.89,5.13-2.66-5a.2.2,0,0,0-.35.19l2.82,5.33a.22.22,0,0,0,.18.1.16.16,0,0,0,.17-.1l2.81-5,.95,5.05a.18.18,0,0,0,.15.15.2.2,0,0,0,.21-.08l3.18-4.51.84,5.24a.19.19,0,0,0,.14.16.2.2,0,0,0,.21-.06l3.65-4.24v5.05a.21.21,0,0,0,.13.19.2.2,0,0,0,.22-.06l3.34-4-.37,5.23a.21.21,0,0,0,.11.2.22.22,0,0,0,.22,0l4-3.6-.84,5a.2.2,0,0,0,.16.23h0a.2.2,0,0,0,.2-.16l.94-5.59A.18.18,0,0,0,447.83,482.94Z"/><path class="cls-3" d="M465.22,497.48a.18.18,0,0,0-.21-.08l-5.28,1.34,2.71-4.52a.2.2,0,0,0,0-.23.2.2,0,0,0-.23-.05l-4.76,2,2.36-4.44a.18.18,0,0,0,0-.22.19.19,0,0,0-.22-.06l-5.31,2.09,1.72-5.08a.19.19,0,0,0-.27-.24l-5,2.53,1.21-5.2a.21.21,0,0,0-.08-.22.21.21,0,0,0-.23,0l-4.89,3.57a.2.2,0,0,0,0,.28.18.18,0,0,0,.27,0l4.46-3.25-1.19,5.09a.23.23,0,0,0,.07.21.22.22,0,0,0,.22,0l4.92-2.51-1.7,5a.23.23,0,0,0,0,.21.2.2,0,0,0,.21,0l5.21-2.05-2.37,4.46a.2.2,0,0,0,0,.23.21.21,0,0,0,.22.05l4.72-2L459.14,499a.2.2,0,0,0,0,.22.21.21,0,0,0,.21.07l5.19-1.33L461.46,502a.2.2,0,0,0,0,.28.21.21,0,0,0,.12,0,.18.18,0,0,0,.15-.08l3.44-4.5A.18.18,0,0,0,465.22,497.48Z"/><path class="cls-3" d="M473.76,518.36,468.24,517l4.65-2.64a.2.2,0,0,0,.1-.22.21.21,0,0,0-.17-.16l-5.28-.55,4.2-2.77a.23.23,0,0,0,.09-.22.2.2,0,0,0-.17-.15l-5.66-.71,3.94-3.63a.21.21,0,0,0,.05-.22.19.19,0,0,0-.18-.13l-5.54-.16,3.74-3.64a.2.2,0,0,0,0-.22.2.2,0,0,0-.2-.12l-6.23.46a.19.19,0,0,0-.19.21.2.2,0,0,0,.22.18l5.69-.41-3.69,3.58a.22.22,0,0,0,0,.22.23.23,0,0,0,.18.13l5.52.15-3.9,3.6a.19.19,0,0,0-.05.21.21.21,0,0,0,.16.14l5.55.69-4.21,2.78a.21.21,0,0,0-.08.22.19.19,0,0,0,.17.15l5.21.55-4.57,2.58a.18.18,0,0,0-.09.2.2.2,0,0,0,.15.17l5.43,1.3-4.71,2a.2.2,0,0,0,.08.38l.08,0,5.26-2.25a.2.2,0,0,0,.12-.2A.2.2,0,0,0,473.76,518.36Z"/><path class="cls-3" d="M474.27,523.17l-5.74-2.48a.2.2,0,1,0-.15.36l5.23,2.27-4.92,1.48a.18.18,0,0,0-.14.16.2.2,0,0,0,.1.2l4.82,2.69-5.12,1.39a.19.19,0,0,0-.14.16.2.2,0,0,0,.08.2l4.6,3.18-5,.52a.18.18,0,0,0-.17.15.2.2,0,0,0,.08.21l4.36,2.9-5.24.18a.21.21,0,0,0-.18.13.19.19,0,0,0,.06.22l4,3.57-5.08-.32a.2.2,0,0,0-.21.19.19.19,0,0,0,.18.21l5.66.35h0a.19.19,0,0,0,.13-.34l-4-3.63,5.37-.18a.2.2,0,0,0,.18-.15.19.19,0,0,0-.08-.22l-4.41-2.93,5-.52a.2.2,0,0,0,.17-.15.2.2,0,0,0-.08-.21l-4.69-3.25,5.18-1.4a.19.19,0,0,0,.15-.16.19.19,0,0,0-.1-.2L469.26,525l5-1.49a.23.23,0,0,0,.15-.18A.21.21,0,0,0,474.27,523.17Z"/><path class="cls-3" d="M469.77,545l-4.07-4.49a.2.2,0,0,0-.28,0,.21.21,0,0,0,0,.29l3.7,4.09-5.19-.65a.19.19,0,0,0-.19.09.2.2,0,0,0,0,.22l3,4.63L461.56,548a.2.2,0,0,0-.2.07.18.18,0,0,0,0,.21l2.58,5-4.68-1.88a.22.22,0,0,0-.23.05.21.21,0,0,0,0,.23l2.45,4.48-4.67-2.17a.2.2,0,0,0-.22,0,.19.19,0,0,0-.05.21l1.87,5L454,556.53a.2.2,0,0,0-.27.06.2.2,0,0,0,.07.28l4.83,2.94a.19.19,0,0,0,.1,0,.2.2,0,0,0,.13,0,.2.2,0,0,0,.06-.23l-1.89-5.1,4.78,2.22a.2.2,0,0,0,.23-.05.18.18,0,0,0,0-.23l-2.47-4.52,4.66,1.87a.17.17,0,0,0,.22,0,.18.18,0,0,0,0-.22l-2.63-5.06,5.24,1.17a.18.18,0,0,0,.2-.08.2.2,0,0,0,0-.22l-3-4.68,5.3.66a.2.2,0,0,0,.21-.11A.2.2,0,0,0,469.77,545Z"/><path class="cls-3" d="M454.05,556.68a.2.2,0,0,0-.23-.16.21.21,0,0,0-.16.24l1,5.61-3.95-3.29a.22.22,0,0,0-.22,0,.21.21,0,0,0-.11.19l.43,5.51-4-3.49a.2.2,0,0,0-.22,0,.19.19,0,0,0-.11.18l-.11,5.59-3.21-3.89a.19.19,0,0,0-.22-.06.2.2,0,0,0-.13.19v5.23l-3.05-4.26a.2.2,0,0,0-.21-.08.2.2,0,0,0-.15.17l-.72,5.53-2.49-4.46a.21.21,0,0,0-.28-.08.2.2,0,0,0-.07.27l2.79,5a.18.18,0,0,0,.17.11h0a.19.19,0,0,0,.16-.17l.73-5.63,3.12,4.36a.19.19,0,0,0,.22.07.2.2,0,0,0,.14-.19v-5.3l3.19,3.88a.2.2,0,0,0,.23.06.21.21,0,0,0,.13-.18l.11-5.7,4,3.53a.18.18,0,0,0,.22,0,.19.19,0,0,0,.11-.19l-.42-5.53,4,3.33a.19.19,0,0,0,.32-.18Z"/><path class="cls-3" d="M436,565.17a.2.2,0,0,0-.25.13L434,570.74l-2-4.75a.21.21,0,0,0-.19-.12.19.19,0,0,0-.18.12l-2.2,5.07-1.89-5a.21.21,0,0,0-.17-.13.21.21,0,0,0-.19.11l-2.7,4.89-1-4.94a.23.23,0,0,0-.17-.16.21.21,0,0,0-.21.11l-2.44,4.63-.71-5.2a.19.19,0,0,0-.15-.16.21.21,0,0,0-.21.07l-3.15,4.33-.19-5.08a.2.2,0,0,0-.21-.19.19.19,0,0,0-.19.21l.22,5.65a.2.2,0,0,0,.14.19.22.22,0,0,0,.22-.07l3.2-4.4.72,5.32a.23.23,0,0,0,.17.17.2.2,0,0,0,.21-.1l2.47-4.7,1,4.93a.19.19,0,0,0,.16.16.23.23,0,0,0,.21-.1l2.75-5,1.92,5a.23.23,0,0,0,.18.13h0a.21.21,0,0,0,.18-.12l2.2-5.09,2,4.82a.22.22,0,0,0,.2.12.2.2,0,0,0,.18-.14l1.89-6A.21.21,0,0,0,436,565.17Z"/><path class="cls-3" d="M416.17,564.32a.19.19,0,0,0-.28,0l-3.7,4.1.12-5.23a.21.21,0,0,0-.11-.19.2.2,0,0,0-.21,0l-4.31,3.46.63-5.27a.18.18,0,0,0-.09-.19.2.2,0,0,0-.21,0l-4.68,3.07,1.4-4.85a.19.19,0,0,0-.07-.22.2.2,0,0,0-.23,0l-4.21,2.89,1.69-4.86a.21.21,0,0,0-.06-.21.18.18,0,0,0-.22,0l-4.81,2.36,2.2-4.59a.2.2,0,1,0-.36-.17l-2.45,5.1a.21.21,0,0,0,0,.23.2.2,0,0,0,.23,0l4.89-2.4-1.73,5a.21.21,0,0,0,.07.22.23.23,0,0,0,.24,0l4.25-2.92-1.4,4.83a.21.21,0,0,0,.07.21.21.21,0,0,0,.23,0l4.77-3.13-.65,5.32a.19.19,0,0,0,.11.2.18.18,0,0,0,.22,0l4.35-3.49-.12,5.34a.18.18,0,0,0,.12.19H412a.18.18,0,0,0,.15-.07l4.06-4.49A.19.19,0,0,0,416.17,564.32Z"/><path class="cls-3" d="M398.75,554.26l-5.48,1.57,2.87-4.26a.22.22,0,0,0,0-.22.18.18,0,0,0-.2-.09l-5.44,1,3.08-4.33a.2.2,0,0,0,0-.21.21.21,0,0,0-.19-.1l-5.57.46,3.55-3.59a.2.2,0,0,0,0-.22.22.22,0,0,0-.2-.12l-5.21.53,3.93-3.46A.23.23,0,0,0,390,541a.2.2,0,0,0-.19-.13l-5.58-.16,4.2-2.93a.2.2,0,0,0-.23-.33l-4.69,3.28a.19.19,0,0,0-.07.22.18.18,0,0,0,.18.14l5.68.16-4,3.54a.2.2,0,0,0,.15.35l5.27-.54-3.53,3.58a.19.19,0,0,0,0,.22.2.2,0,0,0,.2.12L393,548l-3.11,4.37a.2.2,0,0,0,.19.31l5.46-1-2.91,4.33a.2.2,0,0,0,0,.23.21.21,0,0,0,.16.08h.06l6-1.72a.2.2,0,1,0-.12-.38Z"/><path class="cls-3" d="M388.34,537.33l-5.59-1.14,4.51-2.45a.23.23,0,0,0,.11-.2.22.22,0,0,0-.14-.17L382,531.72l4.73-2.4a.21.21,0,0,0,.11-.19.19.19,0,0,0-.12-.17l-5.15-2.18,4.8-1.53a.2.2,0,0,0,.14-.19.18.18,0,0,0-.12-.19l-4.86-1.94,5.09-1.25a.24.24,0,0,0,.15-.17.2.2,0,0,0-.1-.2L382,518.64l5-.74a.2.2,0,0,0-.05-.39l-5.61.81a.2.2,0,0,0-.16.16.19.19,0,0,0,.09.21l4.71,2.72-5.21,1.28a.21.21,0,0,0-.16.18.21.21,0,0,0,.13.2l4.92,2-4.79,1.53a.21.21,0,0,0-.14.18.21.21,0,0,0,.12.19l5.26,2.22-4.78,2.43a.19.19,0,0,0-.11.2.18.18,0,0,0,.14.17l5.29,1.65-4.59,2.49a.21.21,0,0,0-.1.21.19.19,0,0,0,.16.16l6.12,1.26h0a.19.19,0,0,0,.2-.16A.21.21,0,0,0,388.34,537.33Z"/><path class="cls-3" d="M395.24,499.3l-5.33-1.9a.21.21,0,0,0-.22.07.2.2,0,0,0,0,.23l2.9,4.61-5.13-1.19a.18.18,0,0,0-.21.09.2.2,0,0,0,0,.23l3.36,3.92-5-.88a.19.19,0,0,0-.21.09.19.19,0,0,0,0,.23l3.61,4.41-5.36-.08a.21.21,0,0,0-.19.12.19.19,0,0,0,0,.22l3.94,4-5.33.44a.2.2,0,0,0-.17.15.21.21,0,0,0,.07.21l4.9,3.57a.27.27,0,0,0,.12,0,.18.18,0,0,0,.16-.08.2.2,0,0,0,0-.28l-4.47-3.25,5.22-.42a.21.21,0,0,0,.17-.13.18.18,0,0,0-.05-.21l-3.89-3.92,5.3.07a.17.17,0,0,0,.18-.11.18.18,0,0,0,0-.21L386.11,505l5,.89a.2.2,0,0,0,.2-.1.2.2,0,0,0,0-.23l-3.32-3.88,5,1.16a.19.19,0,0,0,.2-.07.21.21,0,0,0,0-.23L390.32,498l4.79,1.7a.2.2,0,0,0,.13-.37Z"/><path class="cls-3" d="M424.78,478.36a.19.19,0,0,0-.26.09L422,483.72,420,479a.2.2,0,0,0-.37,0l-1.49,5.32L415.46,480a.2.2,0,0,0-.2-.09.2.2,0,0,0-.16.16l-1,5.37-2.82-4.21a.19.19,0,0,0-.22-.08.22.22,0,0,0-.15.18l-.21,5.4-3.42-3.94a.22.22,0,0,0-.23-.05.19.19,0,0,0-.12.2l.44,5.66L403.43,485a.2.2,0,0,0-.23,0,.19.19,0,0,0-.1.21l1.09,5.19-3.92-3.14a.21.21,0,0,0-.23,0,.23.23,0,0,0-.1.21L401,493l-4.68-2.63a.2.2,0,0,0-.22,0,.22.22,0,0,0-.07.22l1.55,5.32-4.6-2.44a.2.2,0,0,0-.23,0,.18.18,0,0,0-.05.22l2.34,5.79a.21.21,0,0,0,.19.13l.07,0a.2.2,0,0,0,.11-.26l-2.14-5.28,4.54,2.4a.2.2,0,0,0,.22,0,.21.21,0,0,0,.07-.21L396.57,491l4.61,2.61a.2.2,0,0,0,.3-.21l-1-5.5,3.94,3.16a.19.19,0,0,0,.23,0,.21.21,0,0,0,.09-.21l-1.08-5.12,3.86,3.54a.21.21,0,0,0,.23,0,.23.23,0,0,0,.11-.2l-.44-5.56,3.36,3.86a.2.2,0,0,0,.22.05.18.18,0,0,0,.13-.18l.21-5.28,2.75,4.11a.21.21,0,0,0,.21.08.22.22,0,0,0,.16-.16l1-5.34,2.64,4.27a.21.21,0,0,0,.2.09.19.19,0,0,0,.16-.14l1.46-5.2,1.89,4.61a.2.2,0,0,0,.18.12.21.21,0,0,0,.19-.11l2.76-5.67A.2.2,0,0,0,424.78,478.36Z"/><path class="cls-3" d="M470.78,506.9a47.14,47.14,0,1,0,3.65,18.3A46.87,46.87,0,0,0,470.78,506.9ZM427.3,571a45.95,45.95,0,1,1,46.06-45.83A46,46,0,0,1,427.3,571Z"/><path class="cls-3" d="M430.37,484a.09.09,0,0,0-.1.09l-5.89,82.17a.1.1,0,0,0,.09.1h0a.11.11,0,0,0,.1-.09l5.88-82.17A.08.08,0,0,0,430.37,484Z"/><path class="cls-3" d="M468.51,528.05l-82.17-5.89a.1.1,0,0,0,0,.19l82.16,5.89h0a.11.11,0,0,0,.1-.09A.1.1,0,0,0,468.51,528.05Z"/><path class="cls-3" d="M458.49,498.16,396.22,552.1a.09.09,0,0,0,0,.13.11.11,0,0,0,.07,0,.08.08,0,0,0,.07,0l62.26-53.94a.09.09,0,0,0,0-.13A.09.09,0,0,0,458.49,498.16Z"/><path class="cls-3" d="M400.52,494s-.1-.05-.13,0a.09.09,0,0,0,0,.13l53.94,62.26a.09.09,0,0,0,.07,0,.07.07,0,0,0,.06,0,.09.09,0,0,0,0-.13Z"/><path class="cls-3" d="M464.52,543.08l-74.13-35.93a.09.09,0,0,0-.12.05.08.08,0,0,0,0,.12l74.13,35.93h0a.09.09,0,0,0,0-.17Z"/><path class="cls-3" d="M445.42,488.05a.08.08,0,0,0-.12,0l-35.93,74.14a.1.1,0,0,0,0,.12h0a.11.11,0,0,0,.09-.05l35.92-74.14A.08.08,0,0,0,445.42,488.05Z"/><path class="cls-3" d="M414.59,486.06a.09.09,0,1,0-.18.06l25.84,78.22a.09.09,0,0,0,.09.06h0a.11.11,0,0,0,.06-.12Z"/><path class="cls-3" d="M466.5,512.19,388.28,538a.09.09,0,0,0-.06.12.08.08,0,0,0,.08.06h0l78.22-25.84a.1.1,0,0,0,.06-.12A.09.09,0,0,0,466.5,512.19Z"/><path class="cls-3" d="M436.09,484.84a.09.09,0,0,0-.11.07l-17.31,80.54a.09.09,0,0,0,.07.11h0a.1.1,0,0,0,.09-.07L436.16,485A.09.09,0,0,0,436.09,484.84Z"/><path class="cls-3" d="M467.71,533.76l-80.54-17.31a.1.1,0,1,0,0,.19L467.67,534h0a.1.1,0,0,0,.09-.07A.1.1,0,0,0,467.71,533.76Z"/><path class="cls-3" d="M462,502.77l-69.19,44.71a.1.1,0,0,0,0,.13.12.12,0,0,0,.08,0l.05,0,69.19-44.71a.09.09,0,0,0,0-.13A.09.09,0,0,0,462,502.77Z"/><path class="cls-3" d="M405.14,490.55a.11.11,0,0,0-.13,0,.11.11,0,0,0,0,.13l44.71,69.2a.12.12,0,0,0,.08,0l.05,0a.09.09,0,0,0,0-.13Z"/><path class="cls-3" d="M461.66,548.09l-68.38-45.93a.09.09,0,0,0-.13,0,.09.09,0,0,0,0,.13l68.39,45.93.05,0a.12.12,0,0,0,.08,0A.09.09,0,0,0,461.66,548.09Z"/><path class="cls-3" d="M450.44,490.93a.09.09,0,0,0-.13,0l-45.94,68.39a.1.1,0,0,0,0,.13l.05,0a.1.1,0,0,0,.08,0l45.93-68.38A.09.09,0,0,0,450.44,490.93Z"/><path class="cls-3" d="M420.18,484.65a.1.1,0,0,0-.11-.08.09.09,0,0,0-.07.11l14.65,81.07a.11.11,0,0,0,.09.08h0a.08.08,0,0,0,.08-.1Z"/><path class="cls-3" d="M467.93,517.78l-81.06,14.65a.1.1,0,0,0-.08.11.09.09,0,0,0,.09.08h0L468,518a.1.1,0,0,0,.07-.12A.09.09,0,0,0,467.93,517.78Z"/><path class="cls-3" d="M441.22,486.29a.09.09,0,0,0-.12.06L413.55,564a.09.09,0,0,0,.06.12h0a.09.09,0,0,0,.09-.06l27.55-77.64A.09.09,0,0,0,441.22,486.29Z"/><path class="cls-3" d="M466.27,538.89l-77.64-27.55a.09.09,0,0,0-.12.05.09.09,0,0,0,.06.12l77.63,27.55h0a.09.09,0,0,0,.09-.06A.09.09,0,0,0,466.27,538.89Z"/><path class="cls-3" d="M464.69,507.45a.08.08,0,0,0-.12,0l-74.38,35.41a.1.1,0,0,0-.05.13.11.11,0,0,0,.09,0h0l74.38-35.41A.11.11,0,0,0,464.69,507.45Z"/><path class="cls-3" d="M445.21,562.35,409.79,488a.08.08,0,0,0-.12,0,.09.09,0,0,0-.05.12L445,562.43a.1.1,0,0,0,.08.05h0A.09.09,0,0,0,445.21,562.35Z"/><path class="cls-3" d="M458.42,552.31,396.53,498a.09.09,0,0,0-.13,0,.11.11,0,0,0,0,.14l61.89,54.36.06,0a.08.08,0,0,0,.07,0A.1.1,0,0,0,458.42,552.31Z"/><path class="cls-3" d="M454.66,494.18a.09.09,0,0,0-.13,0l-54.37,61.89a.11.11,0,0,0,0,.14l.06,0a.08.08,0,0,0,.07,0l54.37-61.89A.1.1,0,0,0,454.66,494.18Z"/><path class="cls-3" d="M425.47,484.05a.08.08,0,0,0-.1-.08.09.09,0,0,0-.09.1l4.08,82.27a.09.09,0,0,0,.1.09h0a.09.09,0,0,0,.09-.1Z"/><path class="cls-3" d="M468.55,523.07l-82.28,4.07a.1.1,0,0,0,0,.19h0l82.28-4.07a.11.11,0,0,0,.09-.1A.09.09,0,0,0,468.55,523.07Z"/><path class="cls-3" d="M428.11,525h0a.42.42,0,0,0,0-.12h0l-.06-.11h0l-.07-.09h0l-.09-.07h0l-.08-.05,0,0-.07,0,0,0h-.27l-.06,0-.07,0h0l-.09.06h0l-.09.08h0l-.08.1h0l-.06.11h0a.53.53,0,0,0,0,.12h0L416.48,583.7a.65.65,0,0,0,.53.77h.12a.67.67,0,0,0,.66-.55L427.45,529l9.42,55a.66.66,0,0,0,.65.55h.11a.68.68,0,0,0,.55-.77Z"/><path class="cls-3" d="M427.46,525.13h0Zm1.17,6.87-1.17-6.86-1.26,6.79Z"/><circle class="cls-3" cx="427.42" cy="525.09" r="2.79"/><rect class="cls-3" x="765.01" y="563.19" width="6.88" height="21.45" transform="translate(192.6 1340.92) rotate(-89.86)"/><path class="cls-3" d="M789.86,551.51c.41-2.43-1.6-9.12-1.6-9.12l-2.63-.41c-.18-8.09-3.08-10.71-3.08-10.71l-5-7.73-17.4,0-5,7.71s-2.91,2.59-3.13,10.69l-2.64.4s-2,6.67-1.64,9.1c0,0-2,4.85-3.66,6.06l49.39.13C791.87,556.37,789.86,551.51,789.86,551.51Z"/><path class="cls-3" d="M783,531.75l-28.21-.07a8.52,8.52,0,0,0-.48.71l29.16.07C783.26,532.17,783.1,531.93,783,531.75Z"/><path class="cls-3" d="M783.93,533.4l-30.15-.07c-.11.21-.21.45-.31.7l30.77.08C784.14,533.86,784,533.62,783.93,533.4Z"/><path class="cls-3" d="M785.43,539.05,752.25,539c0,.36-.08.73-.11,1.12l33.4.08C785.51,539.78,785.47,539.4,785.43,539.05Z"/><path class="cls-3" d="M784.91,536.21l-32.13-.08c-.06.26-.13.53-.19.81l32.51.08C785,536.74,785,536.47,784.91,536.21Z"/><path class="cls-3" d="M788.67,543.84c0-.08,0-.16-.07-.24s0,0,0-.06-.05-.17-.07-.25v0c0-.18-.09-.33-.13-.46v0a1,1,0,0,1,0-.14l0,0a.24.24,0,0,0,0-.08v0s0,0,0-.05h0v0l-2.63-.42L752,541.9l-2.63.4a.15.15,0,0,1,0,.06v0s0,0,0,0l0,.06s0,0,0,0l0,.09a.43.43,0,0,0,0,0,.56.56,0,0,0,0,.12s0,0,0,.05l0,.15V543a.84.84,0,0,0-.05.17l0,.06-.06.2v0l39.62.38Z"/><path class="cls-3" d="M789.22,546l-40.79-.1c-.13.59-.27,1.21-.38,1.82l41.54.1C789.48,547.25,789.35,546.63,789.22,546Z"/><path class="cls-3" d="M790.21,552.32l-.35-.81a5.26,5.26,0,0,0,0-1.22l-42.18-.1a6.55,6.55,0,0,0,0,1.21s-.13.32-.36.81Z"/><path class="cls-3" d="M791,553.94l-44.37-.11c-.31.6-.66,1.23-1,1.81l46.42.12C791.64,555.18,791.3,554.54,791,553.94Z"/><path class="cls-3" d="M752.79,522.57s3.68,5.07,2.38,8.64c0,0,2.89-1.36,3.73-2.58s3-3.63,3-4.92Z"/><path class="cls-3" d="M784.87,522.65l-9.08,1.09c0,1.29,2.11,3.73,2.94,4.94s3.72,2.59,3.72,2.59C781.17,527.7,784.87,522.65,784.87,522.65Z"/><path class="cls-3" d="M778.83,528.81l-20,0a5,5,0,0,1-.61.61l21.25,0A4.39,4.39,0,0,1,778.83,528.81Z"/><path class="cls-3" d="M776.7,525.87l-15.75,0c-.11.17-.23.34-.35.5l16.44,0Z"/><path class="cls-3" d="M784.54,519.21s-7-16.48-15.63-14.84c-8.59-1.69-15.7,14.76-15.7,14.76-.92,1.21-.42,3.44-.42,3.44,2.06.82,5.75,1.19,9.09,1.35l1,.05c3.18.12,5.81.06,6,.06s2.78.07,5.92,0l1.13,0c3.32-.14,7-.5,9-1.3C784.94,522.65,785.45,520.43,784.54,519.21Z"/><path class="cls-3" d="M768.91,504.37c-8.59-1.69-15.7,14.76-15.7,14.76-.92,1.21-.42,3.44-.42,3.44,2.05.82,5.75,1.19,9.09,1.35l1,.05c3.17.12,5.81.06,6,.06S768.91,504.37,768.91,504.37Z"/><path class="cls-3" d="M761.47,511.26a1.39,1.39,0,0,0-.6-.61c-.67,0-.86.54-.86,1.21l-.37,3.34a1.22,1.22,0,0,0,1.22,1.22.84.84,0,0,0,.6-.35C761.61,515.76,761.88,512.07,761.47,511.26Z"/><path class="cls-3" d="M777.53,511.91c0-.67-.19-1.22-.86-1.22a1.44,1.44,0,0,0-.61.61c-.4.81-.16,4.5,0,4.8a.84.84,0,0,0,.61.36,1.21,1.21,0,0,0,1.21-1.21Z"/><path class="cls-3" d="M768.93,503.92s-7.39.28-7.4,4.41l0,10.77c0,5,14.56,5.12,14.58,0l0-10.78C776.11,504.31,768.93,503.92,768.93,503.92Z"/><path class="cls-3" d="M776.08,517.06l0-8.7c0-4.05-7.17-4.44-7.17-4.44s-7.39.28-7.4,4.4l0,8.71c0,2.05-.27,3.45,1.28,4.36a16.78,16.78,0,0,1,6.08-1.54,17.57,17.57,0,0,1,6.06,1.46C776.34,520.21,776.08,519.09,776.08,517.06Z"/><polygon class="cls-3" points="753.52 557.28 753.41 566.8 755.17 582.99 763.04 570.62 773.77 570.65 782.31 583.06 784 568.92 784.1 557.16 753.52 557.28"/><polygon class="cls-3" points="773.25 558.55 763.43 558.52 746.11 564.05 746.11 565.26 763.32 559.74 773.24 559.76 787.29 565.36 787.3 564.15 773.25 558.55"/><polygon class="cls-3" points="773.64 564.32 763.31 564.29 752.87 571.75 752.87 573.07 763.31 565.61 773.53 565.63 784.75 573.15 784.75 571.83 773.64 564.32"/><path class="cls-3" d="M713.52,565.89s-5.5,14.35-4.7,16.88c0,0,6.3,1.23,10.85.13l1.74-15.78a6.51,6.51,0,0,1,1.83-2.42l4.66-3.64S715.76,562.25,713.52,565.89Z"/><path class="cls-3" d="M753.71,561.53l-9.21.18-1.33,2.93a4.54,4.54,0,0,0-.11,3.34l1.38,15c3.64,1.43,10.73,0,10.73,0Z"/><path class="cls-3" d="M727.9,561.06l-4.66,3.64a3.78,3.78,0,0,0-1.83,2.42l-2.14,15.78a27.23,27.23,0,0,0,11.41-.07l0-14.88a3,3,0,0,1,1-2.22l4.66-5.05Z"/><path class="cls-3" d="M744.5,561.71c-.81-.61-8.1-1-8.1-1l-4.66,5.05c-1.42,1.21-1,2.23-1,2.23l0,14.87c3.24,1.53,13.77.14,13.77.14l-1.28-17Z"/><path class="cls-3" d="M753.52,557.08l-9.42.38c-4.4,2.07-20.05,4.07-19.88,4.12-3.77.65-9.27,2-10.7,4.31,0,0,8.71-.59,9.72-1.19a6.33,6.33,0,0,0-1.43,1.42c1.93,1.61,9.93-.39,9.93-.39a5,5,0,0,0-1,1.23c4,1.93,11-.48,12.19-.93.45.27,2.36,1.16,6.87.65a4.33,4.33,0,0,0,2.53-1.81l1.33-3.34Z"/><path class="cls-3" d="M824.05,566.16c-2.22-3.64-14.36-4.89-14.36-4.89l4.65,3.65a6.59,6.59,0,0,1,1.81,2.44l1.66,15.79c4.55,1.12,10.85-.08,10.85-.08C829.48,580.55,824.05,566.16,824.05,566.16Z"/><path class="cls-3" d="M794.4,564.77l-1.31-2.93-9.21-.23-1.57,21.45s7.08,1.44,10.73,0l1.45-15A4.53,4.53,0,0,0,794.4,564.77Z"/><path class="cls-3" d="M816.15,567.36a3.78,3.78,0,0,0-1.81-2.43l-4.65-3.66-8.5-.43,4.64,5.08a3,3,0,0,1,1,2.23l0,14.87a27.22,27.22,0,0,0,11.41.13Z"/><path class="cls-3" d="M805.83,565.92l-4.64-5.08s-7.29.39-8.1,1l1.3,4.25-1.35,17s10.52,1.44,13.76-.07l0-14.88S807.25,567.13,805.83,565.92Z"/><path class="cls-3" d="M814.34,564.93c1,.61,9.71,1.23,9.71,1.23-1.42-2.33-6.92-3.68-10.68-4.35.17-.06-15.47-2.14-19.86-4.22l-9.41-.43-.22,4.45,1.31,3.34a4.35,4.35,0,0,0,2.52,1.83c4.51.54,6.42-.35,6.88-.61,1.23.45,8.19,2.89,12.18,1a5,5,0,0,0-.94-1.24s8,2,9.93.44A6.62,6.62,0,0,0,814.34,564.93Z"/><path class="cls-3" d="M771.6,553.48h-6.29a2.22,2.22,0,0,0-2.23,2.21l0,14.94,10.73,0,0-14.94A2.23,2.23,0,0,0,771.6,553.48Z"/><path class="cls-3" d="M763.2,510.56h4.4S764.88,506.61,763.2,510.56Z"/><path class="cls-3" d="M770.38,510.57h4.4C773.12,506.63,770.38,510.57,770.38,510.57Z"/><path class="cls-3" d="M768.92,508.8c-.24,0-.43.48-.43,1.07v2.6c0,.59.19,1.07.43,1.07s.43-.48.43-1.07v-2.6C769.35,509.28,769.16,508.8,768.92,508.8Z"/><path class="cls-3" d="M771,515.83l-1.6.21-1.74-.21-1.5.5s2.22,2.64,6.37,0Z"/><path class="cls-3" d="M769.74,512.12h-1.56c-.49,0-.89.52-.89,1.18a1,1,0,0,0,.89,1.17h1.55c.49,0,.9-1.18.9-1.18A1.06,1.06,0,0,0,769.74,512.12Z"/><path class="cls-3" d="M769.74,512.12h-1.56c-.49,0-.89.52-.89,1.18a1,1,0,0,0,.89,1.17S770.23,512.12,769.74,512.12Z"/><path class="cls-3" d="M770.31,504.89a1.61,1.61,0,0,0-1.48-1.12,1.4,1.4,0,0,0-1.39,1.12c0,.27.37,2.62.37,2.62a.37.37,0,0,0,.35.39h1.41a.38.38,0,0,0,.35-.39S770.36,505.11,770.31,504.89Z"/><path class="cls-3" d="M265.45,579.53l-.13-.53-.3-6.9a6.11,6.11,0,0,1,1-2.3c.72-1-.13-19.45-.13-19.45a7.3,7.3,0,0,1,1.25-2.26c.54-.37-1-12.29-.7-12.46s2-1.12,3-1.65,2.9-6,2.9-6a8.45,8.45,0,0,1,1.51-1.37c.91-.63,1.73-2.5,2.09-3.39a2.19,2.19,0,0,0-.34-1.89l1.37-3.05-.51-.81-5.38-2.55-2.27,3.3a14.68,14.68,0,0,1-3.13-2.45c-1.07-1.27-.77-4.32-1.93-6.3a5.35,5.35,0,0,0-2.7-1.93c-.37-1.1-.95-2.78-1.12-3.49a8.6,8.6,0,0,1,.12-3.77,6.09,6.09,0,0,0-.11-2.24c.12-.28.25-.25.3-.57a33.78,33.78,0,0,0,5-1c-.15,0-3.41-.46-5.1-.62,0-.3,0-.22-.13-.48l4.61-2.83-5.48,1.42c-.23-.23-.15-.41-.43-.6a35.77,35.77,0,0,0,2.32-4.56c-.78.63-3.59,3.52-4,3.84a5.87,5.87,0,0,0-1.12-.24L255,486.1l-.79,6.24a2.15,2.15,0,0,0-1.17.31h0s-4.11-3.93-4.33-4.11,2.46,4.76,2.46,4.76l-.41.67-3.36-.91c-.06.25-.12.5-.18.79l2.86,1.29-.09.53a19.59,19.59,0,0,0-2.42,0,7.51,7.51,0,0,0,.39,1.16c.77.1,2,.33,2,.33l.16.27c.16.25.39.63.54.91a6.28,6.28,0,0,0,.46,2.46l-.28,2.6a2.79,2.79,0,0,1-1.19-.64,5.77,5.77,0,0,1-1.69-3,7.11,7.11,0,0,0-.67-2.9,14.37,14.37,0,0,1-.72-2.61,9.39,9.39,0,0,1-.09-1c0-.14,0-.27,0-.4h0v-.49c-.08-2.79-2-7.48-2-8.47s-.06-3.14,0-4.76a4.87,4.87,0,0,0-1.24-3.07,4.07,4.07,0,0,1,.64-1,1.12,1.12,0,0,0,.24-.7c1.16-.24,1.95-.67,2-1.18a.65.65,0,0,0-.24-.45V471.6a.62.62,0,0,0,.24-.46c0-.62-1.2-1.14-2.84-1.33,0-.35,0-.89.25-1.06a1.88,1.88,0,0,0,1-1.66,3.18,3.18,0,0,1,.19-1.8,5,5,0,0,1,.72-.8l-1.93.82,1.81-2.77s-3.37,1-4.49,2c-.81.71-1.33,1.57-.74,3.38a4.59,4.59,0,0,0,.94,1.85c-1.72.14-3,.68-3,1.31a.6.6,0,0,0,.22.43v1.15a.59.59,0,0,0-.21.42c0,.45.61.84,1.55,1.1a2.25,2.25,0,0,0,.55,1.43h0a4.48,4.48,0,0,0-.56,2.24,4.41,4.41,0,0,0,.87,2.81,10.1,10.1,0,0,1,.09,1.52,9,9,0,0,0,.87,2.8,20.69,20.69,0,0,1,.06,4.3c-.2,2.78,1.2,7.74,1.2,7.74a47.45,47.45,0,0,0-2.18,4.38c-1,2.32,1.93,5.58,1.93,5.58s1.85,5.33,2,7.47.75,18.94.27,22.53-1,15-.92,16.47,1,7.49.55,12.24-.46,12.61-.46,12.61l0,1.08-8.58-.06,0,4,42,.31,0-4-11.71-.09Zm5.85-63.59,4.52,2.19-1,2.15a2.7,2.7,0,0,0-1.7.35,6.12,6.12,0,0,0-1.57,2.61,11,11,0,0,0,.23,1.56l-3.52,6.08-.71-.6-.53-8.37Zm-15.52-16.25a.35.35,0,0,1-.42.34,2.12,2.12,0,0,0-.57.1l.37.57V501a.92.92,0,0,1-.35,0c-.28,0-.36.2-.42.36s.36,0,.6,0,.33.33.33.33v.93c0,.27-.19.3-.51.26s-1.32-.1-1.65-.7a4.22,4.22,0,0,1-.22-2.33,4.93,4.93,0,0,1,1.54-.83c.2-.06.27-.65.21-1s-1-.52-1-.52c-.5-.49,1.75-1.48,2.05-1.41a9.78,9.78,0,0,1,1.6,1.29,5.06,5.06,0,0,0-1.44.44C255.67,498.16,255.81,499.45,255.78,499.69Zm1.16,1.38c-.28.09-.94-1.69-.53-1.68,0,0,1.11,0,1.13.31S257.22,501,256.94,501.07Zm-.53-5.36c-.25,0-1.15-.37-1.65-.08s-2,1.39-2.55,1.78-.69-1.05-.69-1.05a4.83,4.83,0,0,1,2.85-1.86,4.57,4.57,0,0,1,1.95.25c.33.18,1.11,0,1.7.47a2.52,2.52,0,0,1,.84,1.83C258.76,497.31,256.65,495.74,256.41,495.71Z"/><path class="cls-3" d="M950.55,491.18a61.13,61.13,0,0,0-8.9-.17l0,.66a59,59,0,0,1,8.85.08,65.2,65.2,0,0,1,8.85,2l.13-.64A66.41,66.41,0,0,0,950.55,491.18Z"/><path class="cls-3" d="M950.61,489a61.09,61.09,0,0,0-9-.18v.67a57.06,57.06,0,0,1,8.91.08,73.91,73.91,0,0,1,9.28,2L960,491A74.07,74.07,0,0,0,950.61,489Z"/><rect class="cls-3" x="941.65" y="489.35" width="0.49" height="1.82" transform="translate(-10.51 20.74) rotate(-1.25)"/><rect class="cls-3" x="958.49" y="492.05" width="1.82" height="0.49" transform="translate(244.52 1299.61) rotate(-75.64)"/><rect class="cls-3" x="949.59" y="490.05" width="1.87" height="0.49" transform="translate(363.29 1384.19) rotate(-83.98)"/><rect class="cls-3" x="945.37" y="489.92" width="1.94" height="0.49" transform="translate(406.44 1409.03) rotate(-86.94)"/><rect class="cls-3" x="942.73" y="489.28" width="0.49" height="1.83" transform="translate(-17.63 35.52) rotate(-2.14)"/><rect class="cls-3" x="943.9" y="489.23" width="0.49" height="1.86" transform="translate(-6.19 12.12) rotate(-0.73)"/><rect class="cls-3" x="945.02" y="489.14" width="0.49" height="1.86" transform="translate(-5.76 11.28) rotate(-0.68)"/><rect class="cls-3" x="946.36" y="489.91" width="1.83" height="0.49" transform="translate(378.15 1392.2) rotate(-85.11)"/><rect class="cls-3" x="947.53" y="490.02" width="1.86" height="0.49" transform="translate(356.65 1378.91) rotate(-83.67)"/><rect class="cls-3" x="948.64" y="490.08" width="1.86" height="0.49" transform="translate(358.21 1380.48) rotate(-83.71)"/><rect class="cls-3" x="953.97" y="490.91" width="1.94" height="0.49" transform="translate(301.44 1343.26) rotate(-79.73)"/><rect class="cls-3" x="957.36" y="491.74" width="1.83" height="0.49" transform="matrix(0.26, -0.96, 0.96, 0.26, 231.94, 1287.45)"/><rect class="cls-3" x="956.25" y="491.43" width="1.86" height="0.49" transform="translate(250.33 1303.04) rotate(-76.13)"/><rect class="cls-3" x="955.21" y="491.09" width="1.86" height="0.49" transform="translate(249.88 1301.77) rotate(-76.13)"/><rect class="cls-3" x="952.91" y="490.67" width="1.83" height="0.49" transform="translate(328.62 1362.64) rotate(-81.59)"/><rect class="cls-3" x="951.73" y="490.51" width="1.86" height="0.49" transform="translate(349.26 1376.37) rotate(-82.99)"/><rect class="cls-3" x="950.63" y="490.3" width="1.86" height="0.49" transform="translate(348.51 1375.09) rotate(-82.99)"/><path class="cls-3" d="M950.73,491.32a34.31,34.31,0,0,0-10.46.33L939,502.73l20.31,2.37L960.58,494A31.1,31.1,0,0,0,950.73,491.32Z"/><path class="cls-3" d="M926.26,568.85,924.38,585a57.19,57.19,0,0,0,30.54,2.87l1.8-15.48Z"/><path class="cls-3" d="M925.08,576.62l-.91,8.31.21.08a57.19,57.19,0,0,0,30.54,2.87l.89-7.67Z"/><path class="cls-3" d="M956.8,571.45l-30.27-3.53a.54.54,0,0,0-.12,1.08l30.27,3.53a.54.54,0,0,0,.12-1.08Z"/><path class="cls-3" d="M950.59,492.51a34.05,34.05,0,0,0-10.45.32l-1.44,12.31L959,507.51l1.43-12.31A31.26,31.26,0,0,0,950.59,492.51Z"/><path class="cls-3" d="M942.89,494.83l-.19,0a3.29,3.29,0,0,0-2.63,2.66l-1.16,10c-.15,1.26,4.77.48,4.91-.78l1.17-10A1.69,1.69,0,0,0,942.89,494.83Z"/><path class="cls-3" d="M948.44,493.22h-.1a1.21,1.21,0,0,0-1.33,1.05l-1.22,10.49c-.08.65,2.4.94,2.48.29l1.22-10.49A1.21,1.21,0,0,0,948.44,493.22Z"/><path class="cls-3" d="M948.36,493.75h-.06a.73.73,0,0,0-.82.65l-.41,3.56,1.52.18.41-3.57A.72.72,0,0,0,948.36,493.75Z"/><path class="cls-3" d="M958.87,495.61l-.09,0a.87.87,0,0,0-1.29.71l-1.22,10.49c-.08.66,2.31,1.65,2.39,1l1.22-10.48A1.71,1.71,0,0,0,958.87,495.61Z"/><path class="cls-3" d="M953.56,496l-.19-.06a1.84,1.84,0,0,0-2.49,1.58l-1.17,10c-.15,1.26,4.51,2.73,4.65,1.47l1.17-10A2.93,2.93,0,0,0,953.56,496Z"/><path class="cls-3" d="M953.43,496.89l-.13,0a1.26,1.26,0,0,0-1.7,1.08l-.79,6.79c-.1.86,3.06,1.86,3.16,1l.8-6.79A2,2,0,0,0,953.43,496.89Z"/><path class="cls-3" d="M942.76,495.72l-.13,0a2.22,2.22,0,0,0-1.79,1.81l-.79,6.79c-.1.86,3.24.33,3.34-.53l.79-6.79A1.14,1.14,0,0,0,942.76,495.72Z"/><path class="cls-3" d="M958.79,496.13l-.06,0a.54.54,0,0,0-.79.44l-.42,3.57,1.48.61.41-3.57A1,1,0,0,0,958.79,496.13Z"/><path class="cls-3" d="M948.87,505.82a115.48,115.48,0,0,0-13.88-.54l-.08,10.1,25.69,3,2.25-9.84A126.07,126.07,0,0,0,948.87,505.82Z"/><path class="cls-3" d="M949,506.91c-.6-.07-1.16.51-1.25,1.3l-1,8.55L949,517l1-8.55A1.31,1.31,0,0,0,949,506.91Z"/><path class="cls-3" d="M942.63,506.45c-.54,0-1,.56-1.08,1.33l-.61,8.3,1.94.23.62-8.41C943.56,507.13,943.17,506.48,942.63,506.45Z"/><path class="cls-3" d="M945.87,506.69c-.59-.06-1.12.53-1.2,1.31l-.82,8.42,2.11.25.83-8.47C946.86,507.42,946.45,506.74,945.87,506.69Z"/><path class="cls-3" d="M937,506.62c-.38,0-.72.55-.76,1.26l-.39,7.62,1.38.16.39-7.73C937.7,507.22,937.42,506.63,937,506.62Z"/><path class="cls-3" d="M939.77,506.56c-.47,0-.9.54-1,1.27l-.64,7.93,1.71.2.65-8C940.59,507.22,940.25,506.59,939.77,506.56Z"/><path class="cls-3" d="M955.29,507.92c-.53-.08-1,.47-1.16,1.24l-1.21,8.32,1.94.23,1.2-8.26C956.17,508.69,955.83,508,955.29,507.92Z"/><path class="cls-3" d="M952.16,507.42c-.58-.08-1.14.48-1.24,1.26l-1.14,8.43,2.11.25L953,509A1.29,1.29,0,0,0,952.16,507.42Z"/><path class="cls-3" d="M960.83,509.39c-.38-.07-.78.43-.91,1.13l-1.4,7.61,1.38.16,1.37-7.49C961.4,510.1,961.2,509.47,960.83,509.39Z"/><path class="cls-3" d="M958.05,508.69c-.47-.07-.94.47-1,1.2l-1.08,7.94,1.71.2,1.08-7.9C958.82,509.4,958.52,508.75,958.05,508.69Z"/><path class="cls-3" d="M949,504.93a96.31,96.31,0,0,0-14-.28l0,1a93.08,93.08,0,0,1,13.93.15,99.71,99.71,0,0,1,13.93,3.1l.21-1A102.46,102.46,0,0,0,949,504.93Z"/><path class="cls-3" d="M949.08,501.56a97.55,97.55,0,0,0-14.11-.28l0,1a92.84,92.84,0,0,1,14,.15,111.61,111.61,0,0,1,14.61,3.19l.22-1A120.59,120.59,0,0,0,949.08,501.56Z"/><rect class="cls-3" x="934.98" y="502.05" width="0.77" height="2.84" transform="translate(-9.01 17.1) rotate(-1.04)"/><rect class="cls-3" x="961.5" y="506.3" width="2.84" height="0.77" transform="translate(232.56 1313.24) rotate(-75.59)"/><rect class="cls-3" x="947.48" y="503.17" width="2.92" height="0.77" transform="translate(348.78 1394.54) rotate(-83.99)"/><rect class="cls-3" x="940.83" y="502.93" width="3.02" height="0.77" transform="translate(390.26 1417.93) rotate(-86.99)"/><rect class="cls-3" x="936.67" y="501.94" width="0.77" height="2.86" transform="translate(-17.23 33.49) rotate(-2.03)"/><rect class="cls-3" x="938.52" y="501.87" width="0.77" height="2.9" transform="translate(-6.16 11.67) rotate(-0.71)"/><rect class="cls-3" x="940.27" y="501.74" width="0.77" height="2.9" transform="translate(-5.33 10.09) rotate(-0.61)"/><rect class="cls-3" x="942.4" y="502.93" width="2.86" height="0.77" transform="matrix(0.09, -1, 1, 0.09, 361.7, 1400.68)"/><rect class="cls-3" x="944.23" y="503.1" width="2.9" height="0.77" transform="translate(341.93 1388.52) rotate(-83.73)"/><rect class="cls-3" x="945.99" y="503.19" width="2.9" height="0.77" transform="translate(342.96 1390.04) rotate(-83.7)"/><rect class="cls-3" x="954.37" y="504.51" width="3.03" height="0.77" transform="translate(288.54 1355.34) rotate(-79.72)"/><rect class="cls-3" x="959.73" y="505.79" width="2.86" height="0.77" transform="translate(218.98 1299.41) rotate(-74.68)"/><rect class="cls-3" x="957.97" y="505.34" width="2.9" height="0.77" transform="translate(237.4 1315) rotate(-76.06)"/><rect class="cls-3" x="956.34" y="504.8" width="2.9" height="0.77" transform="translate(236.86 1313.16) rotate(-76.07)"/><rect class="cls-3" x="952.72" y="504.13" width="2.86" height="0.77" transform="matrix(0.15, -0.99, 0.99, 0.15, 315.88, 1374.89)"/><rect class="cls-3" x="950.86" y="503.88" width="2.9" height="0.77" transform="translate(335.64 1387.95) rotate(-82.99)"/><rect class="cls-3" x="949.13" y="503.55" width="2.9" height="0.77" transform="translate(334.26 1385.81) rotate(-82.98)"/><path class="cls-3" d="M947.61,516.6a128.46,128.46,0,0,0-14.38-.59l0,10.1,26.62,3.11,2.28-9.84A136.31,136.31,0,0,0,947.61,516.6Z"/><path class="cls-3" d="M947.71,515.72a102.62,102.62,0,0,0-14.51-.34l0,1a101.06,101.06,0,0,1,14.43.2,106.55,106.55,0,0,1,14.44,3.17l.22-1A111.67,111.67,0,0,0,947.71,515.72Z"/><path class="cls-3" d="M947.78,517.7a1.31,1.31,0,0,0-1.29,1.3l-1,8.55,2.25.26,1-8.55A1.3,1.3,0,0,0,947.78,517.7Z"/><path class="cls-3" d="M941.15,517.21c-.56,0-1.06.56-1.11,1.33l-.6,8.3,2,.24.6-8.41C942.11,517.9,941.7,517.24,941.15,517.21Z"/><path class="cls-3" d="M944.5,517.46a1.3,1.3,0,0,0-1.23,1.31l-.82,8.42,2.19.26.82-8.47A1.3,1.3,0,0,0,944.5,517.46Z"/><path class="cls-3" d="M935.36,517.36c-.4,0-.75.55-.78,1.26l-.38,7.61,1.43.17.38-7.73C936,518,935.75,517.37,935.36,517.36Z"/><path class="cls-3" d="M938.19,517.31c-.49,0-.94.53-1,1.27l-.64,7.93,1.78.2.64-8C939,518,938.68,517.35,938.19,517.31Z"/><path class="cls-3" d="M954.27,518.73c-.55-.08-1.09.47-1.2,1.24l-1.22,8.32,2,.23,1.21-8.25A1.28,1.28,0,0,0,954.27,518.73Z"/><path class="cls-3" d="M951,518.22a1.29,1.29,0,0,0-1.28,1.26l-1.15,8.43,2.19.25,1.14-8.38A1.31,1.31,0,0,0,951,518.22Z"/><path class="cls-3" d="M960,520.23c-.38-.08-.8.43-.93,1.13L957.66,529l1.42.16,1.39-7.49C960.6,520.94,960.39,520.31,960,520.23Z"/><path class="cls-3" d="M957.13,519.51c-.49-.06-1,.47-1.07,1.21L955,528.65l1.77.21,1.09-7.89C957.93,520.23,957.61,519.58,957.13,519.51Z"/><path class="cls-3" d="M946.36,527.26a129.51,129.51,0,0,0-14.63-.61v10.1l27.07,3.15,2.31-9.83A138.35,138.35,0,0,0,946.36,527.26Z"/><path class="cls-3" d="M946.47,526.38A106.93,106.93,0,0,0,931.7,526v1a104.56,104.56,0,0,1,14.67.23,109.86,109.86,0,0,1,14.7,3.2l.22-1A114.84,114.84,0,0,0,946.47,526.38Z"/><path class="cls-3" d="M946.54,528.36a1.32,1.32,0,0,0-1.31,1.3l-1,8.55,2.29.26,1-8.55A1.32,1.32,0,0,0,946.54,528.36Z"/><path class="cls-3" d="M939.79,527.86c-.57,0-1.07.55-1.13,1.32l-.59,8.31,2,.24.6-8.41C940.77,528.55,940.36,527.89,939.79,527.86Z"/><path class="cls-3" d="M943.2,528.12a1.31,1.31,0,0,0-1.25,1.31l-.81,8.42,2.22.26.82-8.48A1.29,1.29,0,0,0,943.2,528.12Z"/><path class="cls-3" d="M933.9,528c-.4,0-.76.54-.79,1.25l-.36,7.62,1.45.17.37-7.73C934.6,528.6,934.3,528,933.9,528Z"/><path class="cls-3" d="M936.78,528c-.5,0-.95.53-1,1.27l-.63,7.93,1.8.21.64-8C937.64,528.62,937.28,528,936.78,528Z"/><path class="cls-3" d="M953.14,529.41c-.56-.09-1.11.46-1.22,1.23L950.7,539l2,.24L954,531C954.07,530.18,953.71,529.49,953.14,529.41Z"/><path class="cls-3" d="M949.83,528.89a1.3,1.3,0,0,0-1.3,1.25l-1.14,8.43,2.22.26,1.14-8.38A1.3,1.3,0,0,0,949.83,528.89Z"/><path class="cls-3" d="M959,530.92c-.39-.08-.82.42-1,1.12l-1.42,7.61,1.45.17,1.4-7.5C959.59,531.63,959.38,531,959,530.92Z"/><path class="cls-3" d="M956.05,530.2c-.5-.07-1,.46-1.08,1.19l-1.1,7.94,1.81.21,1.09-7.89C956.87,530.92,956.55,530.27,956.05,530.2Z"/><path class="cls-3" d="M945.16,537.54a140.58,140.58,0,0,0-15.26-.69l0,10.11,28.24,3.29,2.36-9.83A152.84,152.84,0,0,0,945.16,537.54Z"/><path class="cls-3" d="M945.26,536.66a115.3,115.3,0,0,0-15.39-.45v1a112.83,112.83,0,0,1,15.3.3,120.21,120.21,0,0,1,15.33,3.27l.22-1A125.35,125.35,0,0,0,945.26,536.66Z"/><path class="cls-3" d="M945.34,538.64a1.34,1.34,0,0,0-1.35,1.29l-1,8.55,2.38.28,1-8.55A1.34,1.34,0,0,0,945.34,538.64Z"/><path class="cls-3" d="M938.31,538.1c-.59,0-1.11.56-1.17,1.33l-.58,8.31,2.14.24.58-8.41A1.26,1.26,0,0,0,938.31,538.1Z"/><path class="cls-3" d="M941.87,538.38a1.32,1.32,0,0,0-1.3,1.31l-.8,8.42,2.31.27.81-8.47A1.31,1.31,0,0,0,941.87,538.38Z"/><path class="cls-3" d="M932.17,538.21c-.42,0-.78.55-.82,1.26l-.34,7.62,1.51.18.35-7.74C932.9,538.82,932.59,538.23,932.17,538.21Z"/><path class="cls-3" d="M935.18,538.19c-.53,0-1,.52-1.06,1.26l-.62,7.93,1.89.22.63-8C936.07,538.86,935.7,538.23,935.18,538.19Z"/><path class="cls-3" d="M952.24,539.72c-.59-.09-1.16.46-1.27,1.23l-1.23,8.32,2.13.25,1.22-8.25A1.28,1.28,0,0,0,952.24,539.72Z"/><path class="cls-3" d="M948.78,539.19a1.3,1.3,0,0,0-1.34,1.24l-1.16,8.44,2.32.27,1.15-8.39A1.32,1.32,0,0,0,948.78,539.19Z"/><path class="cls-3" d="M958.33,541.26c-.41-.08-.86.42-1,1.12L955.9,550l1.51.17,1.42-7.49C959,542,958.74,541.34,958.33,541.26Z"/><path class="cls-3" d="M955.27,540.52c-.52-.07-1,.47-1.12,1.2L953,549.66l1.89.22L956,542C956.13,541.25,955.79,540.6,955.27,540.52Z"/><path class="cls-3" d="M943.93,548.08a149.86,149.86,0,0,0-15.63-.74l.06,10.12,28.94,3.37,2.39-9.83C958.67,550.76,950.52,548.85,943.93,548.08Z"/><path class="cls-3" d="M944,547.19a122.65,122.65,0,0,0-15.77-.49v1a116.3,116.3,0,0,1,15.68.35,127.37,127.37,0,0,1,15.71,3.31l.23-1A131.76,131.76,0,0,0,944,547.19Z"/><path class="cls-3" d="M944.12,549.18a1.36,1.36,0,0,0-1.39,1.28l-1,8.55,2.44.29,1-8.55A1.34,1.34,0,0,0,944.12,549.18Z"/><path class="cls-3" d="M936.91,548.62a1.28,1.28,0,0,0-1.19,1.32l-.57,8.31,2.19.25.57-8.41A1.27,1.27,0,0,0,936.91,548.62Z"/><path class="cls-3" d="M940.56,548.91a1.33,1.33,0,0,0-1.33,1.3l-.8,8.42,2.38.28.8-8.48A1.31,1.31,0,0,0,940.56,548.91Z"/><path class="cls-3" d="M930.62,548.71c-.43,0-.8.54-.83,1.25l-.33,7.62,1.55.19.34-7.74C931.38,549.32,931.05,548.73,930.62,548.71Z"/><path class="cls-3" d="M933.7,548.69c-.53,0-1,.52-1.07,1.26l-.61,7.93,1.93.23.62-8C934.62,549.36,934.24,548.73,933.7,548.69Z"/><path class="cls-3" d="M951.18,550.28a1.27,1.27,0,0,0-1.29,1.22l-1.24,8.32,2.19.25,1.22-8.25A1.27,1.27,0,0,0,951.18,550.28Z"/><path class="cls-3" d="M947.65,549.73a1.33,1.33,0,0,0-1.38,1.25l-1.16,8.43,2.37.27,1.16-8.38A1.33,1.33,0,0,0,947.65,549.73Z"/><path class="cls-3" d="M957.43,551.83c-.42-.08-.88.42-1,1.12L955,560.56l1.55.18,1.44-7.49C958.08,552.55,957.85,551.92,957.43,551.83Z"/><path class="cls-3" d="M954.29,551.09c-.53-.08-1,.46-1.15,1.19l-1.1,7.94,1.93.22,1.1-7.89C955.17,551.82,954.82,551.16,954.29,551.09Z"/><path class="cls-3" d="M942.68,558.74a149.61,149.61,0,0,0-15.62-.74l.06,10.12,28.94,3.37,2.38-9.83C957.43,561.42,949.28,559.51,942.68,558.74Z"/><path class="cls-3" d="M942.79,557.85a122.67,122.67,0,0,0-15.77-.49v1a116.15,116.15,0,0,1,15.67.35,127.23,127.23,0,0,1,15.72,3.31l.22-1A131.39,131.39,0,0,0,942.79,557.85Z"/><path class="cls-3" d="M942.88,559.84a1.35,1.35,0,0,0-1.39,1.29l-1,8.55,2.45.28,1-8.55A1.35,1.35,0,0,0,942.88,559.84Z"/><path class="cls-3" d="M935.67,559.28a1.27,1.27,0,0,0-1.19,1.32l-.57,8.31,2.18.25.58-8.41A1.27,1.27,0,0,0,935.67,559.28Z"/><path class="cls-3" d="M939.32,559.57a1.32,1.32,0,0,0-1.33,1.3l-.8,8.42,2.38.28.8-8.48A1.32,1.32,0,0,0,939.32,559.57Z"/><path class="cls-3" d="M929.38,559.37c-.43,0-.8.54-.83,1.26l-.33,7.62,1.55.18.33-7.74C930.13,560,929.81,559.39,929.38,559.37Z"/><path class="cls-3" d="M932.46,559.35c-.53,0-1,.52-1.07,1.26l-.62,7.93,1.94.23.61-8C933.38,560,933,559.39,932.46,559.35Z"/><path class="cls-3" d="M949.94,560.94a1.27,1.27,0,0,0-1.29,1.22l-1.24,8.32,2.18.26,1.23-8.26A1.28,1.28,0,0,0,949.94,560.94Z"/><path class="cls-3" d="M946.4,560.4a1.32,1.32,0,0,0-1.38,1.24l-1.15,8.43,2.37.27,1.15-8.38A1.31,1.31,0,0,0,946.4,560.4Z"/><path class="cls-3" d="M956.19,562.5c-.43-.08-.88.42-1,1.11l-1.46,7.61,1.55.18,1.44-7.49C956.84,563.21,956.61,562.58,956.19,562.5Z"/><path class="cls-3" d="M953.05,561.75c-.53-.07-1,.46-1.15,1.19l-1.1,7.94,1.93.22,1.1-7.89C953.93,562.48,953.58,561.82,953.05,561.75Z"/><polygon class="cls-3" points="947.93 480.04 947.85 483.5 953.36 482.6 947.93 480.04"/><path class="cls-3" d="M937.54,571.9a4.15,4.15,0,0,0-4.32,3.49l-.39,3.38,7.6.88.4-3.38A4,4,0,0,0,937.54,571.9Z"/><path class="cls-3" d="M931.06,571.15c-2-.23-3.65,1.77-3.86,3.54l-.39,3.37,6.69.78.39-3.38C934.1,573.7,933,571.38,931.06,571.15Z"/><path class="cls-3" d="M927,570.68c-.73-.09-1.52,2-1.72,3.78l-.4,3.38,2.5.29.39-3.38C928,573,927.74,570.76,927,570.68Z"/><path class="cls-3" d="M944.52,572.72a4.16,4.16,0,0,0-4.36,3.47l-.4,3.38,7.7.9.39-3.38A4,4,0,0,0,944.52,572.72Z"/><path class="cls-3" d="M951,573.47c-1.9-.22-3.56,1.77-3.77,3.54l-.39,3.38,6.51.76.39-3.38C953.9,576,952.85,573.69,951,573.47Z"/><path class="cls-3" d="M955,573.94c-.88-.1-1.79,2-2,3.75l-.39,3.38,3,.36.39-3.38C956.27,576.28,955.91,574,955,573.94Z"/><path class="cls-3" d="M937.33,573a2.94,2.94,0,0,0-3.33,2.49l-1.4,12a56.56,56.56,0,0,0,6,1l1.43-12.26A3,3,0,0,0,937.33,573Z"/><path class="cls-3" d="M930.85,572.23a2.78,2.78,0,0,0-3,2.53l-1.29,11q2.56.86,5.24,1.48l1.39-11.9A2.83,2.83,0,0,0,930.85,572.23Z"/><path class="cls-3" d="M926.85,571.76c-.48,0-.89.8-1.13,1.76L924.38,585c.62.24,1.24.45,1.87.67l1.28-11C927.67,573.47,927.5,571.84,926.85,571.76Z"/><path class="cls-3" d="M944.31,573.79a3,3,0,0,0-3.37,2.49l-1.43,12.24c.69.06,1.37.13,2.06.17,1.39.08,2.77.09,4.13.07L947.07,577A3,3,0,0,0,944.31,573.79Z"/><path class="cls-3" d="M950.74,574.54a2.76,2.76,0,0,0-2.9,2.54l-1.35,11.66c1.79,0,3.55-.18,5.3-.39L953,577.69A2.8,2.8,0,0,0,950.74,574.54Z"/><path class="cls-3" d="M954.86,575c-.78-.09-1.38,1.45-1.53,2.7l-1.23,10.59c.84-.11,1.67-.23,2.5-.38l1.16-9.93C955.9,576.76,955.65,575.12,954.86,575Z"/><polygon class="cls-3" points="937.17 574.82 935.5 576.27 936.8 578.06 938.46 576.61 937.17 574.82"/><polygon class="cls-3" points="937.1 575.46 936.08 576.34 936.87 577.42 937.88 576.54 937.1 575.46"/><polygon class="cls-3" points="930.69 574.07 929.2 575.53 930.31 577.3 931.8 575.84 930.69 574.07"/><polygon class="cls-3" points="930.62 574.7 929.71 575.59 930.39 576.67 931.29 575.77 930.62 574.7"/><polygon class="cls-3" points="926.66 573.6 925.99 575.16 926.28 576.83 926.96 575.27 926.66 573.6"/><polygon class="cls-3" points="926.59 574.23 926.18 575.18 926.36 576.2 926.77 575.25 926.59 574.23"/><polygon class="cls-3" points="944.15 575.63 942.47 577.08 943.77 578.87 945.46 577.43 944.15 575.63"/><polygon class="cls-3" points="944.08 576.27 943.05 577.15 943.85 578.24 944.88 577.36 944.08 576.27"/><polygon class="cls-3" points="950.58 576.38 949.13 577.85 950.2 579.62 951.66 578.15 950.58 576.38"/><polygon class="cls-3" points="950.51 577.02 949.62 577.91 950.28 578.99 951.16 578.09 950.51 577.02"/><polygon class="cls-3" points="954.67 576.86 953.89 578.41 954.3 580.1 955.08 578.55 954.67 576.86"/><polygon class="cls-3" points="954.6 577.5 954.13 578.44 954.37 579.46 954.85 578.52 954.6 577.5"/><path class="cls-3" d="M1086.09,564.18a4.63,4.63,0,0,1,.37,2.49,18.94,18.94,0,0,0,0,2.26,8.79,8.79,0,0,0,.21,1.23,2.7,2.7,0,0,0,.2-.56,23.36,23.36,0,0,0,1-3.68,6.66,6.66,0,0,0-.55-4.22c-.9-4.16,1.92-6.65,4.2-9.59,0,1.48-.06,3-.07,4.45a36.82,36.82,0,0,1-.85,7.76,12,12,0,0,0-.17,4.43,7.1,7.1,0,0,1,0,2.56c-.61,2.8-.85,5.66-1.3,8.49a.58.58,0,0,0,.24.62c.57.49.66.76.27,1.51a2.26,2.26,0,0,0-.19.49.38.38,0,0,0,.21.47,1.26,1.26,0,0,0,.86.2c.43-.07.85-.18,1.27-.26.22,0,.27-.17.2-.35a.64.64,0,0,0-.13-.26c-.26-.28-.54-.55-.82-.82a.87.87,0,0,1-.3-.71c0-.51,0-1,0-1.54.06-1.67.11-3.35.21-5,.13-2,.34-4.1.67-6.13a4.09,4.09,0,0,1,.27-1.16,6.91,6.91,0,0,0,.53-1.65,15.41,15.41,0,0,1,.88-3.21,19.16,19.16,0,0,1,2.68-4.45,7.76,7.76,0,0,0,.49-.68,1.7,1.7,0,0,0,.29.36.53.53,0,0,0,0,.25,17.36,17.36,0,0,1,.74,4,10.49,10.49,0,0,1-.49,4,.7.7,0,0,0,0,.35,41.31,41.31,0,0,0,1.6,5.47,58.77,58.77,0,0,1,2.86,9.24.27.27,0,0,0,.27.24c.19,0,.39.08.58.13a.61.61,0,0,1,.4,1c-.2.28-.17.34.13.52a.85.85,0,0,0,.22.09,5,5,0,0,0,1.89-.08c.12,0,.16-.1.1-.23-.37-.88-.66-1.06-1.6-1l0,0a2.12,2.12,0,0,0-.17-1.67c-.23-.48-.44-1-.65-1.48a33.32,33.32,0,0,1-2.71-8.72,15,15,0,0,1-.15-3.66,3.35,3.35,0,0,1,.67-1.83,1.69,1.69,0,0,0,.28-.66,19.33,19.33,0,0,1,1.16-3.72c.19-.46.4-.92.61-1.4a1.18,1.18,0,0,0,.49-.34l.06-.07h.49a9.41,9.41,0,0,0,3-.17h.07a6.35,6.35,0,0,0,2.84-1.11,11.11,11.11,0,0,0,1.44-1,7.58,7.58,0,0,0-.47,1.39,10.82,10.82,0,0,0-.07,3.06c.09.88.16,1.77.21,2.65a12.62,12.62,0,0,1-.36,3.18,8.21,8.21,0,0,0-.15,2.66c.06.47.14.93.19,1.4a24,24,0,0,1,0,4c-.1,1.52-.31,3-.28,4.58a16.24,16.24,0,0,0,.62,4.7.68.68,0,0,1,0,.42c-.11.3,0,.42.3.41s.39,0,.59,0a3.49,3.49,0,0,1-.41.33.22.22,0,0,0,.08.41,1.51,1.51,0,0,0,.43.11,5.59,5.59,0,0,0,1.87.06c0-.94,0-.94-.7-1.56a1.21,1.21,0,0,1-.34-.52c-.12-.4-.18-.82-.29-1.22a11.9,11.9,0,0,1-.49-2.84c0-1.07,0-2.14.07-3.21.14-1.68.31-3.37.54-5s.54-3.28.84-4.92c.33-1.88.65-3.75,1-5.61.32-1.61.73-3.2,1.1-4.8l.06-.26c.05,0,.07.06.07.09.11,1.74.26,3.49.32,5.23,0,.87-.13,1.75-.15,2.63-.07,2.13-.11,4.25-.15,6.38,0,.69,0,1.38,0,2.06.14,1.74.29,3.48.47,5.22.15,1.5.36,3,.54,4.5a.36.36,0,0,0,.34.36,1,1,0,0,1,.74.72,2.72,2.72,0,0,1,.11,1.44c.3.08.59.16.87.22s.81.19,1.22.24a.34.34,0,0,0,.43-.39,1.36,1.36,0,0,0-.14-.7,2.66,2.66,0,0,0-1.56-1.08l-.45-.09c0-.15,0-.28,0-.4-.12-1.07-.26-2.13-.36-3.19-.12-1.38-.22-2.77-.32-4.16-.06-.91-.11-1.82-.12-2.73s.06-1.62.09-2.42a64,64,0,0,1,.52-6.78,21.12,21.12,0,0,1,1.11-4.63,10.15,10.15,0,0,0,.5-1.5,38.53,38.53,0,0,0,.62-4.91,12.63,12.63,0,0,1,.2-1.84,11.53,11.53,0,0,1,.6-1.77,2.09,2.09,0,0,0,.09-1.13,5.29,5.29,0,0,0-1-2.2c-.2-.31-.42-.62-.61-.93a.35.35,0,0,1,0-.28c.26-.59.51-1.18.81-1.74,1.13-2.07,2.24-4.15,3.41-6.19a34,34,0,0,0,3.47-8.48c.5-1.92.86-3.86,1.21-5.81s.85-4,1.3-5.93a15,15,0,0,1,.46-1.62c0-.15.24-.35.37-.36a6.15,6.15,0,0,1,1.42.06,7,7,0,0,0,2.89,0,3.91,3.91,0,0,1,1.08-.09c.81,0,1.61.11,2.42.2a2,2,0,0,0,1.51-.49,2.85,2.85,0,0,0-.46-.55,13.35,13.35,0,0,0-1.38-1c-.83-.49-1.68-.93-2.53-1.4a3.24,3.24,0,0,1-1.58-1.58,1.26,1.26,0,0,0-1.35-.76,4.07,4.07,0,0,1-1.39,0,1.26,1.26,0,0,1-.66-.41,2.23,2.23,0,0,1-.39-1.25c-.08-.61-.18-.7-.8-.71h-.08a.8.8,0,0,0-.79.29.53.53,0,0,0,0,.78,4.87,4.87,0,0,0,.75.46,2.6,2.6,0,0,1,1.08.94.83.83,0,0,1-1.08.54,2.61,2.61,0,0,1-.73-.24.5.5,0,0,0-.67.14c-.58.67-1.18,1.32-1.73,2a11.73,11.73,0,0,0-2,3.65c-.41,1.22-.74,2.47-1.1,3.7a27.74,27.74,0,0,1-2.94,7.1,14.31,14.31,0,0,1-1,1.38,44.16,44.16,0,0,1-5.41,5.27c-1.67,1.42-3.44,2.72-5.16,4.06-.23.18-.5.31-.7.5s-.47.58-.73.85c-.59.62-1.18,1.25-1.79,1.85a3.2,3.2,0,0,1-.72.55,22.14,22.14,0,0,1-5,1.88,13.07,13.07,0,0,0-4.26,1.9,4.63,4.63,0,0,0-1,.8,9.39,9.39,0,0,0-1.33,2.43A26,26,0,0,0,1092,548a.93.93,0,0,0-.09.2c-1,2.71-3.38,4.58-5,6.89a8,8,0,0,0-1.48,4.85,3.1,3.1,0,0,0-.15,2.18A12.19,12.19,0,0,0,1086.09,564.18Z"/><path class="cls-4" d="M270.35,180a14.6,14.6,0,0,0-3.2-2.7,27.91,27.91,0,0,0-4.5-2.35,31.08,31.08,0,0,0-5.45-1.7,28.6,28.6,0,0,0-6.14-.65q-8.31,0-12.16,3.1a10.34,10.34,0,0,0-3.84,8.5,9.52,9.52,0,0,0,1.09,4.8,9.14,9.14,0,0,0,3.45,3.25,26.62,26.62,0,0,0,5.85,2.35q3.51,1,8.3,2.1a86.36,86.36,0,0,1,9.95,2.75,29.15,29.15,0,0,1,7.61,3.85,15.46,15.46,0,0,1,4.79,5.6,18,18,0,0,1,1.65,8.1,18.47,18.47,0,0,1-2,8.85,17.75,17.75,0,0,1-5.44,6.2,23.82,23.82,0,0,1-8.16,3.6,42.65,42.65,0,0,1-10.2,1.15,47.18,47.18,0,0,1-15.55-2.55,43.34,43.34,0,0,1-13.34-7.45l4.29-7.6a24.38,24.38,0,0,0,4.15,3.4,34,34,0,0,0,5.81,3,43.12,43.12,0,0,0,7,2.2,35.15,35.15,0,0,0,7.84.85q7.61,0,11.8-2.7a10,10,0,0,0,2.86-13.15,11.49,11.49,0,0,0-4-3.55,30.4,30.4,0,0,0-6.45-2.65q-3.84-1.16-8.75-2.35a89.34,89.34,0,0,1-9.5-2.8,25.81,25.81,0,0,1-6.84-3.6,13.61,13.61,0,0,1-4.16-5.1,17,17,0,0,1-1.4-7.2,20.4,20.4,0,0,1,1.9-9A19,19,0,0,1,233,170a23.15,23.15,0,0,1,8.11-4,36.77,36.77,0,0,1,10.19-1.35,35.77,35.77,0,0,1,23.31,8.1Z"/><path class="cls-4" d="M301.55,237.11a18.92,18.92,0,0,1-6.9-1.25,17.12,17.12,0,0,1-5.55-3.45,16.35,16.35,0,0,1-3.7-5.15,15.34,15.34,0,0,1-1.35-6.45,13.6,13.6,0,0,1,1.6-6.55,15,15,0,0,1,4.55-5,23.5,23.5,0,0,1,7-3.3,31,31,0,0,1,8.85-1.2,43.15,43.15,0,0,1,7.7.7,35.76,35.76,0,0,1,6.9,1.9v-4.2q0-6.41-3.6-10.05t-10.2-3.65q-7.89,0-16.6,6.1l-2.9-5.7q10.11-6.8,20.3-6.8t16.05,5.5q5.76,5.51,5.75,15.5v21.3c0,2.07.94,3.13,2.8,3.2v7.6l-2.3.3a16.4,16.4,0,0,1-1.9.1A5.64,5.64,0,0,1,323.9,235a6.38,6.38,0,0,1-1.85-3.75l-.2-3.7a22.54,22.54,0,0,1-8.85,7.15A27.19,27.19,0,0,1,301.55,237.11Zm2.3-6.6a21.74,21.74,0,0,0,8.75-1.75,14.47,14.47,0,0,0,6.15-4.65,5.55,5.55,0,0,0,1.9-3.9v-7.7a36.14,36.14,0,0,0-13.3-2.5q-6.6,0-10.75,2.8a8.49,8.49,0,0,0-4.15,7.3,10,10,0,0,0,.85,4.1,9.81,9.81,0,0,0,2.4,3.3,11.55,11.55,0,0,0,3.65,2.2A12.61,12.61,0,0,0,303.85,230.51Z"/><path class="cls-4" d="M344.25,250.31c.87.13,1.73.23,2.6.3s1.54.1,2,.1a4.17,4.17,0,0,0,2.15-.55,5.81,5.81,0,0,0,1.9-2.15,37,37,0,0,0,2.15-4.45q1.2-2.85,3-7.45L336,183.91h9.1l17.8,44.3,16.2-44.3h8.4l-25.4,65.9A15.17,15.17,0,0,1,357.4,256q-3.25,2.66-8.95,2.65a16.77,16.77,0,0,1-1.85-.1c-.63-.07-1.41-.2-2.35-.4Z"/><path class="cls-4" d="M396.55,163.11h8.8v59.5a6.4,6.4,0,0,0,1.55,4.55,5.7,5.7,0,0,0,4.35,1.65,11.9,11.9,0,0,0,2.6-.35,20.94,20.94,0,0,0,2.8-.85l1.4,7.1a28.51,28.51,0,0,1-5.2,1.5,27.36,27.36,0,0,1-5.3.6,11,11,0,0,1-8.05-2.9c-2-1.93-2.95-4.63-2.95-8.1Z"/><path class="cls-4" d="M447.75,237.11A25.61,25.61,0,0,1,428.7,229a26.6,26.6,0,0,1-5.35-8.6,28.18,28.18,0,0,1-1.9-10.3,27.87,27.87,0,0,1,1.95-10.4,27.25,27.25,0,0,1,5.4-8.6,25.78,25.78,0,0,1,8.3-5.9,25.44,25.44,0,0,1,10.65-2.2,25.83,25.83,0,0,1,19.05,8.1,27.25,27.25,0,0,1,5.4,8.6,27.87,27.87,0,0,1,1.95,10.4,28.18,28.18,0,0,1-1.9,10.3,26.06,26.06,0,0,1-5.4,8.6,26.33,26.33,0,0,1-8.35,5.9A25.64,25.64,0,0,1,447.75,237.11Zm-17.3-26.9a20.94,20.94,0,0,0,1.35,7.6,19.54,19.54,0,0,0,3.7,6.1A17.56,17.56,0,0,0,441,228a15.94,15.94,0,0,0,13.5,0,17.65,17.65,0,0,0,5.55-4.15,19.41,19.41,0,0,0,3.75-6.2,21.37,21.37,0,0,0,1.35-7.65,21.06,21.06,0,0,0-1.35-7.55,19.41,19.41,0,0,0-3.75-6.2,17.65,17.65,0,0,0-5.55-4.15,15.5,15.5,0,0,0-6.75-1.5,15.13,15.13,0,0,0-6.75,1.55,17.72,17.72,0,0,0-5.5,4.2,20,20,0,0,0-3.7,6.2A21.37,21.37,0,0,0,430.45,210.21Z"/><path class="cls-4" d="M512.45,191.61A22.63,22.63,0,0,0,500.8,195a17.31,17.31,0,0,0-7.15,8.9v32.2h-8.8v-52.2h8.2V196a24.63,24.63,0,0,1,7.1-8.75,17.7,17.7,0,0,1,9.4-3.75h1.7a5.91,5.91,0,0,1,1.2.1Z"/><path class="cls-4" d="M564.05,165.11h7.6l29,71h-9.6l-8.4-20.8h-29.8l-8.3,20.8H535Zm16.6,43.2-12.8-32.8-13.2,32.8Z"/><path class="cls-4" d="M603.65,209.91a28.44,28.44,0,0,1,1.9-10.4A25.6,25.6,0,0,1,611,191a26.06,26.06,0,0,1,8.35-5.8A26.53,26.53,0,0,1,630.15,183a25.32,25.32,0,0,1,13.45,3.45,22.34,22.34,0,0,1,8.55,9.25l-8.6,2.7a14.29,14.29,0,0,0-5.6-5.75,15.86,15.86,0,0,0-8-2,16.35,16.35,0,0,0-12.3,5.5,20,20,0,0,0-3.65,6.1,22.25,22.25,0,0,0,0,15.4,20.44,20.44,0,0,0,3.75,6.25,17.12,17.12,0,0,0,5.5,4.15,15.5,15.5,0,0,0,6.75,1.5,16.46,16.46,0,0,0,4.55-.65,17.41,17.41,0,0,0,4.1-1.75,15.28,15.28,0,0,0,3.25-2.55,8.8,8.8,0,0,0,2-3.15l8.6,2.6a18.62,18.62,0,0,1-3.35,5.3,20.87,20.87,0,0,1-5.05,4.1,27.52,27.52,0,0,1-6.45,2.7,27.24,27.24,0,0,1-7.45,1,26.06,26.06,0,0,1-19.2-8.1,26.76,26.76,0,0,1-5.45-8.65A28.24,28.24,0,0,1,603.65,209.91Z"/><path class="cls-4" d="M676,237.11a18.84,18.84,0,0,1-6.9-1.25,16.91,16.91,0,0,1-5.55-3.45,16.19,16.19,0,0,1-3.7-5.15,15.34,15.34,0,0,1-1.35-6.45,13.49,13.49,0,0,1,1.6-6.55,14.76,14.76,0,0,1,4.55-5,23.38,23.38,0,0,1,7-3.3,31,31,0,0,1,8.85-1.2,43.24,43.24,0,0,1,7.7.7,35.76,35.76,0,0,1,6.9,1.9v-4.2q0-6.41-3.6-10.05t-10.2-3.65q-7.9,0-16.6,6.1l-2.9-5.7q10.1-6.8,20.3-6.8t16.05,5.5q5.74,5.51,5.75,15.5v21.3c0,2.07.93,3.13,2.8,3.2v7.6l-2.3.3a16.52,16.52,0,0,1-1.9.1A5.61,5.61,0,0,1,698.3,235a6.33,6.33,0,0,1-1.85-3.75l-.2-3.7a22.68,22.68,0,0,1-8.85,7.15A27.26,27.26,0,0,1,676,237.11Zm2.3-6.6a21.78,21.78,0,0,0,8.75-1.75,14.47,14.47,0,0,0,6.15-4.65,5.59,5.59,0,0,0,1.9-3.9v-7.7a36.18,36.18,0,0,0-13.3-2.5q-6.6,0-10.75,2.8a8.47,8.47,0,0,0-4.15,7.3,9.87,9.87,0,0,0,.85,4.1,9.55,9.55,0,0,0,2.4,3.3,11.44,11.44,0,0,0,3.65,2.2A12.61,12.61,0,0,0,678.25,230.51Z"/><path class="cls-4" d="M739.45,237.11a22.81,22.81,0,0,1-10-2.2,24.76,24.76,0,0,1-7.9-5.9,27.17,27.17,0,0,1-5.15-8.6,28.78,28.78,0,0,1-1.85-10.3,31,31,0,0,1,1.75-10.45,27.07,27.07,0,0,1,4.9-8.65,23.23,23.23,0,0,1,7.5-5.85,21.29,21.29,0,0,1,9.55-2.15,19.82,19.82,0,0,1,11.25,3.3,26.11,26.11,0,0,1,7.85,8v-31.2h8.8v62.2c0,2.07.93,3.13,2.8,3.2v7.6l-2.25.3a13.51,13.51,0,0,1-1.65.1,6.57,6.57,0,0,1-4.55-1.75,5.32,5.32,0,0,1-2-4v-4.4a22.47,22.47,0,0,1-19.1,10.8Zm2.1-7.6a14.83,14.83,0,0,0,5-.9,19.27,19.27,0,0,0,4.8-2.5,18.28,18.28,0,0,0,3.9-3.75,11.25,11.25,0,0,0,2.15-4.55v-15a16.54,16.54,0,0,0-2.7-4.75,21.33,21.33,0,0,0-4-3.9,19.63,19.63,0,0,0-4.8-2.6,14.5,14.5,0,0,0-5-.95,15,15,0,0,0-7,1.65,17.29,17.29,0,0,0-5.4,4.4,19.85,19.85,0,0,0-3.45,6.3,22.5,22.5,0,0,0-1.2,7.25,20,20,0,0,0,1.4,7.45,19.38,19.38,0,0,0,3.8,6.15A18.34,18.34,0,0,0,734.5,228,16.17,16.17,0,0,0,741.55,229.51Z"/><path class="cls-4" d="M804,237.11a26.6,26.6,0,0,1-10.8-2.15,25.37,25.37,0,0,1-8.4-5.85,26.59,26.59,0,0,1-5.45-8.65A28.24,28.24,0,0,1,777.35,210a27.87,27.87,0,0,1,1.95-10.4,26.32,26.32,0,0,1,5.5-8.6,25.9,25.9,0,0,1,8.45-5.85,26.6,26.6,0,0,1,10.8-2.15,25.59,25.59,0,0,1,19,8.05,26.07,26.07,0,0,1,5.25,8.5,28,28,0,0,1,1.85,10.05c0,.73,0,1.4,0,2A13.32,13.32,0,0,1,830,213h-43.3a20.22,20.22,0,0,0,1.8,7.1,18.27,18.27,0,0,0,3.9,5.5,18.08,18.08,0,0,0,5.45,3.6,16.2,16.2,0,0,0,6.45,1.3,17.37,17.37,0,0,0,4.7-.65,20.62,20.62,0,0,0,4.3-1.75,14.94,14.94,0,0,0,3.55-2.7,11.25,11.25,0,0,0,2.35-3.6l7.6,2.1a19.31,19.31,0,0,1-3.55,5.3,23.8,23.8,0,0,1-5.2,4.15,26.91,26.91,0,0,1-6.55,2.75A27.76,27.76,0,0,1,804,237.11Zm17.9-30.6a18.86,18.86,0,0,0-1.85-6.85,18.6,18.6,0,0,0-3.9-5.35,17.88,17.88,0,0,0-18.65-3.45,16.82,16.82,0,0,0-5.45,3.5,17.5,17.5,0,0,0-3.8,5.35,19.59,19.59,0,0,0-1.75,6.8Z"/><path class="cls-4" d="M918.65,236.11h-8.8v-29.2q0-8.21-2.66-12.1a8.86,8.86,0,0,0-7.84-3.9,14,14,0,0,0-9.66,3.85,21.19,21.19,0,0,0-6,10v31.4h-8.8v-29.2q0-8.4-2.6-12.2a8.85,8.85,0,0,0-7.81-3.8,14.22,14.22,0,0,0-9.59,3.75,20.29,20.29,0,0,0-6.1,10v31.5h-8.81v-52.2h8v11.2a23.75,23.75,0,0,1,8.31-9,21.43,21.43,0,0,1,11.5-3.15q6.6,0,10.44,3.55a15.3,15.3,0,0,1,4.75,9.15q7-12.71,19.91-12.7a15.73,15.73,0,0,1,7.55,1.65,12.61,12.61,0,0,1,4.85,4.6,21.61,21.61,0,0,1,2.6,7,44.7,44.7,0,0,1,.8,8.7Z"/><path class="cls-4" d="M933.74,250.31c.87.13,1.74.23,2.6.3s1.54.1,2,.1a4.15,4.15,0,0,0,2.15-.55A5.91,5.91,0,0,0,942.4,248a38.78,38.78,0,0,0,2.14-4.45q1.2-2.85,3-7.45l-22.1-52.2h9.1l17.8,44.3,16.2-44.3h8.4l-25.4,65.9A15.23,15.23,0,0,1,946.9,256q-3.25,2.66-9,2.65a16.9,16.9,0,0,1-1.85-.1c-.63-.07-1.41-.2-2.35-.4Z"/></g></svg>