<?xml version="1.0" encoding="utf-8"?>
<!-- Generator: Adobe Illustrator 18.1.1, SVG Export Plug-In . SVG Version: 6.00 Build 0)  -->
<svg version="1.1" id="Layer_1" xmlns="http://www.w3.org/2000/svg" xmlns:xlink="http://www.w3.org/1999/xlink" x="0px" y="0px"
	 viewBox="1.7 659.1 612 133.5" enable-background="new 1.7 659.1 612 133.5" xml:space="preserve">
<g>
	<path fill="#469DCC" d="M68.7,783.9c1.5-1.4,3.1-2.8,4.5-4.3c4.7-5.2,8.3-11.3,10-18.1c2.3-9,0.4-17.2-5.3-24.5
		c-2.8-3.6-5.7-7.2-7.9-11.2c-3.2-6-5-12.5-4.6-19.4c0.5-9.1,3.8-16.9,10.2-23.5c5.4-5.7,12.2-9.7,19.2-13
		c10.3-4.8,21.2-7.9,32.3-9.2c5.5-0.7,11.1-1.1,16.6-1.2c6.5-0.2,13.2-0.1,19.7-0.1c0.2,0,0.5,0,0.9,0c-3.8,24.6-7.6,49-11.4,73.5
		c-1.9-0.5-3.5-1-5.2-1.4c-3.3-0.9-6.7-1.9-10.1-2.8c-0.8-0.2-1-0.5-0.9-1.3c1.2-7.1,2.3-14.1,3.4-21.2c1.2-7.8,2.4-15.5,3.6-23.4
		c0.3-1.9,0.6-3.8,0.9-5.7c0-0.3,0-0.5,0-0.7c-1.9,0-3.7-0.1-5.5,0c-6.7,0.4-13.4,1.2-19.9,2.8c-10.3,2.4-19.9,6.2-28.7,12.4
		c-4.8,3.4-7.8,8-8.6,13.8c-0.6,4,0.3,7.9,2.1,11.6c1.6,3.4,3.9,6.3,6.3,9.2c5.1,6.3,8.6,13.6,9.8,21.8c0.8,5.5,0.6,11.1-0.6,16.5
		c-0.1,0.3-0.1,0.5-0.2,0.9c6.7-2.3,13.5-4,20.5-4.9c1.5,5.4,3.1,10.8,4.6,16.2c-1.8,0.3-3.5,0.5-5.2,0.8
		C108.5,779.3,98.3,783,89,789c-1.8,1.2-3.7,2.3-5.5,3.4c-0.3,0.2-0.8,0.2-1,0C78,789.5,73.5,786.8,68.7,783.9z"/>
	<path fill="#183140" d="M34.3,759.2c9.8,0.3,19.1,1.9,28.2,4.6c3.2,1,6.3,2.2,9.9,3.4c-1.4,2-2.6,4-4.1,5.7
		c-2.3,2.5-4.7,4.9-7.2,7.4c-0.2,0.2-0.8,0.3-1.1,0.2c-8.3-2.7-16.7-4.3-25.4-4.6c-4-0.1-8.1,0.2-12,0.3c-0.6,0-1.2,0-2,0
		c-7.2-38.8-12.9-77.9-18.9-117c0.5,0,0.9,0,1.3,0c5.8,0,11.8-0.1,17.6,0c15.8,0.2,31.3,2.5,46,8.6c3,1.2,6,2.7,9.1,4
		c-2.2,2.1-4.4,4-6.3,6.1c-1.9,2.1-3.6,4.4-5.5,6.8c-6.5-3-13.5-5.1-20.6-6.5c-7.2-1.4-14.4-2.1-22.1-2.2
		C25.6,703.8,29.9,731.5,34.3,759.2z"/>
	<path fill="#173140" d="M598.2,696.9c0-1.4,0-2.8,0-4.3c5.1,0,10.3,0,15.5,0c0,0.4,0,0.8,0,1.1c0,15.6,0,31.2,0,46.8
		c0,3.8-0.3,7.6-1.5,11.3c-1.7,5-5.3,8.6-9.9,11.1c-6.4,3.7-13.4,4.8-20.6,4.4c-5.2-0.3-10.1-1.6-14.5-4.6c-4.5-3.2-7.5-7.5-8.6-13
		c0-0.2,0-0.3,0-0.6c0.4,0,0.8,0,1.2,0c5.2,0,10.6,0,15.8,0c0.3,0,0.9,0.1,1,0.4c2,3.6,5.3,4.8,9.3,4.7c5.4-0.1,9.9-3.1,11.5-7.9
		c0.8-2.4,0.8-4.8,0.7-7.2c-1.4,1.3-2.7,2.7-4.3,3.9c-3.4,2.4-7.4,3.1-11.4,2.8c-9.4-0.6-16.5-4.8-21.3-13.1
		c-3.2-5.6-4-11.8-3.3-18.1c0.6-5.8,2.6-11.3,6.7-15.6c7.3-7.6,15.9-10.1,26.1-7.3C593.7,692.8,596.1,694.5,598.2,696.9z
		 M573.1,718.3c-0.1,0,0.1,1.1,0.1,1.8c0.4,1.8,0.3,2,1,3.8c3.5,8.7,15.5,10.4,21.2,3c2.5-3.3,3.1-7.2,2.5-11.2
		c-1.2-7.2-7.6-11.6-14.7-10.2C577.1,706.8,573.1,711.9,573.1,718.3z"/>
	<path fill="#173140" d="M266.4,697.9c0-1.9,0-3.5,0-5.2c5.2,0,10.3,0,15.4,0c0,17.2,0,34.4,0,51.7c-5.1,0-10.2,0-15.4,0
		c0-1.7,0-3.4,0-5.2c-0.8,1-1.5,1.8-2.3,2.6c-2.9,2.6-6.4,3.9-10.3,4.3c-7.7,0.7-14.6-1.1-20.3-6.4c-4.5-4.2-7.1-9.6-8-15.5
		c-1.1-6.7-0.4-13.3,2.7-19.4c5.4-10.8,18.3-16.3,29.5-12.8c3.2,1,6,2.8,8.1,5.5C266,697.4,266.2,697.6,266.4,697.9z M253.5,731.6
		c8.7,0.2,12.9-7.1,12.9-13.2c0-7.6-5.4-13.1-12.9-13.1c-8.4-0.1-12.9,6.7-12.9,13.3C240.6,724.3,244.8,731.8,253.5,731.6z"/>
	<path fill="#183140" d="M386.9,690.9c6.3,0,13,2.1,18.3,7.4c4.5,4.3,7.3,9.7,8.2,15.8c1.3,9.4-1.2,17.5-7.9,24.4
		c-4.4,4.5-10.1,6.8-16.4,7.5c-5.3,0.5-10.6,0-15.5-2.3c-8.3-3.8-13.1-10.5-15-19.3c-2.5-11.7,2.8-24.1,13.1-29.8
		C376.1,691.9,380.8,690.9,386.9,690.9z M398.3,718.5c-0.1-0.9-0.2-1.8-0.3-2.7c-1.5-8.6-11.1-13-18.4-8.6
		c-4.6,2.8-6.8,8.2-5.8,13.9c1.2,6.9,8,11.6,14.8,10.1C394.2,730,398.3,724.6,398.3,718.5z"/>
	<path fill="#183140" d="M498,690.9c5.8,0,12.5,2.1,17.8,7.4c4.5,4.3,7.3,9.7,8.1,15.8c1.3,9.3-1.2,17.5-7.9,24.3
		c-4.5,4.6-10.2,6.9-16.5,7.5c-5.3,0.5-10.5,0-15.4-2.3c-8.1-3.7-12.8-10.1-15-18.5c-2.9-11.7,2.3-24.3,12.4-30.3
		C485.9,692.1,490.8,690.9,498,690.9z M508.8,718.5c-0.1-0.9-0.2-1.9-0.3-2.8c-1.5-8.6-11.1-12.9-18.3-8.5
		c-4.6,2.8-6.8,8.2-5.8,13.9c1.2,7.1,8.1,11.7,14.9,10.1C504.8,729.9,508.7,724.6,508.8,718.5z"/>
	<path fill="#183140" d="M335.5,692.6c-0.7,2-1.4,3.8-2.1,5.7c-7.9,20.8-15.6,41.6-23.5,62.4c-0.3,0.7-0.6,1-1.3,1
		c-5.1,0-10.2,0-15.5,0c0.2-0.4,0.3-0.7,0.4-1c2.5-6,4.9-12,7.5-18c0.2-0.5,0.2-1.1,0-1.6c-6.1-15.8-12.3-31.5-18.4-47.3
		c-0.1-0.3-0.2-0.6-0.4-1c0.9,0,1.7,0,2.5,0c4.3,0,8.7,0,13.1,0c0.8,0,1.1,0.3,1.3,1c3.2,9.3,6.4,18.5,9.7,27.7
		c0.1,0.3,0.3,0.7,0.5,1.2c1.1-3.3,2.1-6.4,3.1-9.6c2.1-6.4,4.2-12.9,6.3-19.3c0.2-0.8,0.6-1,1.4-1c4.7,0.1,9.5,0,14.3,0
		C334.7,692.6,335,692.6,335.5,692.6z"/>
	<path fill="#183140" d="M222,707.1c-5.1,0-10.2,0-15.2,0c-0.7-3.5-4.6-5-7.7-3.1c-2,1.3-2.1,3.5-0.3,4.9c2.2,1.6,4.8,2.3,7.4,3.1
		c2.7,0.8,5.4,1.6,8,2.7c10.2,4.1,10.8,13.2,8,20.1c-2,5-5.9,8.2-11,9.9c-7.3,2.4-14.4,2-21.2-1.7c-5.2-2.9-7.9-7.6-8.7-13.4
		c0-0.2,0-0.4,0-0.6c5.1,0,10.2,0,15.3,0c0.4,2.4,1.7,4,4.1,4.5c1.6,0.4,3.2,0.2,4.7-0.5c1.3-0.6,2.2-1.6,2.3-3.1
		c0.1-1.6-0.7-2.7-2-3.3c-2.3-1-4.6-2-7.1-2.9c-2.7-1-5.4-1.9-8.1-3.1c-3.7-1.7-6.9-4.1-8.2-8.3c-1.7-5.8-0.2-11,3.9-15.3
		c4.8-5,11-6.5,17.8-6c3.9,0.3,7.7,1.4,11,3.7C219.5,697.6,221.4,702,222,707.1z"/>
	<path fill="#183240" d="M169.1,745.4c-5.1,3.1-10.2,6.1-15.2,9.1c5.2,5.2,10.4,10.4,15.4,15.4c-3.6,3.6-7.3,7.3-10.9,10.9
		c-5-5-10.2-10.2-15.4-15.4c-3,5-6,10.1-9.2,15.2c-4.7-16.5-9.4-32.7-14.1-49.3C136.3,736,152.6,740.7,169.1,745.4z"/>
	<path fill="#173140" d="M337.4,744.4c0-23.1,0-46,0-69c5.1,0,10.3,0,15.4,0c0,23,0,45.9,0,69C347.8,744.4,342.7,744.4,337.4,744.4z
		"/>
	<path fill="#183140" d="M434.2,744.4c-5.2,0-10.4,0-15.5,0c0-17.2,0-34.4,0-51.7c4.8,0,9.6,0,14.5,0c0,1.7,0,3.5,0,5.2
		c2.9-5.2,7.5-7.2,13.2-7.1c0,5.2,0,10.4,0,15.6c-1.4,0.1-2.7,0.1-4,0.3c-5.3,0.7-8.1,3.8-8.1,9.3c0,9.1,0,18.1,0,27.2
		C434.2,743.6,434.2,744,434.2,744.4z"/>
	<path fill="#173140" d="M529.3,692.6c4.8,0,9.7,0,14.5,0c0,1.7,0,3.5,0,5.2c2.8-5.2,7.5-7.2,13.2-7.2c0,5.2,0,10.4,0,15.5
		c-1.7,0.2-3.3,0.2-4.9,0.5c-4.6,1-7.1,3.8-7.2,8.6c-0.1,3.1-0.1,6.1-0.1,9.3c0,6.1,0,12.3,0,18.4c0,0.4,0,0.7,0,1.2
		c-5.1,0-10.3,0-15.4,0C529.3,727.2,529.3,709.9,529.3,692.6z"/>
	<path fill="#183241" d="M446.5,736.4c0-4.4,3.5-8,8-7.9c4.4,0,8,3.6,7.9,8.1c0,4.4-3.6,8-8.1,7.9
		C450,744.4,446.5,740.9,446.5,736.4z"/>
	<path fill="#183140" d="M505.4,766.9H504c-1.1-3.5-2.6-7.8-3.7-11.3c0-0.1-0.1-0.3-0.2-0.6c-0.2,4-0.4,8-0.7,11.9
		c-0.6,0-1.1,0-1.8,0c0.3-4.7,0.7-9.5,1-14.3c0.8,0,1.5,0,2.4,0c1.3,3.7,2.6,7.6,3.8,11.3c1.1-3.2,2.4-6.5,3.5-9.9l0.5-1.4
		c0.2,0,2.1,0,2.5,0c0.3,4.8,0.6,9.6,0.9,14.4c-0.6,0-1.2,0-1.9,0c-0.2-3.7-0.2-8.4-0.4-12.1"/>
	<path fill="#070707" d="M506.7,763.2"/>
	<path fill="#183140" d="M431.9,767.1c0-4.9,0-9.6,0-14.4c2,0,4.1-0.2,6,0c4,0.6,6.1,3.6,5.6,7.7c-0.5,4.4-2.9,6.4-7.8,6.7
		C434.5,767.2,433.2,767.1,431.9,767.1z M433.8,754.3c0,3.8,0,7.6,0,11.3c2.9,0.6,5.6-0.3,6.8-2.1c1.3-1.9,1.4-5.3,0.1-7.2
		C438.9,753.9,436.4,754,433.8,754.3z"/>
	<path fill="#183140" d="M335.3,752.6h2.3c1.3,3.8,3.2,9.6,4.5,13.4c0.1,0.3,0.2,0.6,0.3,1c-0.7,0-1.3,0-2,0
		c-0.4-1.2-1.5-4.5-1.5-4.5l0,0h-5l0,0l-1.1,3.4l-0.3,1.1c-0.2,0-1.7,0-2.1,0C332.1,762.2,333.7,757.5,335.3,752.6z M338.5,761
		c-0.7-2.1-1.4-4.2-2.1-6.3c-0.7,2.2-1.4,4.2-2,6.3C335.8,761,337.1,761,338.5,761z"/>
	<path fill="#183140" d="M407,767c-0.4-1.2-1.5-4.5-1.5-4.5l0,0h-5l0,0c0,0-1,3.2-1.4,4.5c-0.6,0-1.2,0-2,0
		c1.6-4.8,3.2-9.7,4.8-14.4h2.3c1.3,3.9,3.2,9.7,4.6,13.6c0.1,0.2,0.1,0.4,0.2,0.7C408.3,767,407.7,767,407,767z M405,761
		c-0.7-2.1-1.4-4.1-2.1-6.3c-0.7,2.2-1.4,4.2-2,6.3C402.4,761,403.6,761,405,761z"/>
	<path fill="#183140" d="M466.7,752.6c2.6,0,5,0,7.7,0c0,0.5,0,1,0,1.5c-1.9,0-3.8,0-5.7,0c0,1.5,0,3,0,4.4c1.8,0,3.6,0,5.4,0
		c0,0.6,0,1,0,1.6c-1.8,0-3.6,0-5.4,0c0,1.7,0,3.3,0,5.1c2,0,4,0,6.1,0c0,0.6,0,1,0,1.6c-2.6,0-5.3,0-8.1,0
		C466.7,762.2,466.7,757.5,466.7,752.6z"/>
	<path fill="#183140" d="M375,753.1c-0.1,0.5-0.3,0.9-0.4,1.4c-2.8-0.9-5.5-1-7.5,1.7c-1.4,1.9-1.3,5.4,0.1,7.4
		c1.4,1.9,3.9,2.4,7.5,1.4c0.1,0.5,0.2,0.9,0.4,1.4c-3.1,1.5-7.5,0.7-9.4-1.7c-2.1-2.6-2-7.3,0.2-9.9
		C367.8,752.5,372.2,751.6,375,753.1z"/>
</g>
<g>
	<path fill="#183140" d="M538.4,766.9v-6l-4.5-8.2h2.1l2,3.9c0.5,1.1,1,1.9,1.4,2.9l0,0c0.4-0.9,0.9-1.8,1.4-2.9l2-3.9h2.1l-4.7,8.2
		v6H538.4L538.4,766.9z"/>
</g>
</svg>
