<?xml version="1.0" encoding="utf-8"?>
<!-- Generator: Adobe Illustrator 18.1.1, SVG Export Plug-In . SVG Version: 6.00 Build 0)  -->
<svg version="1.1" id="Layer_1" xmlns="http://www.w3.org/2000/svg" xmlns:xlink="http://www.w3.org/1999/xlink" x="0px" y="0px"
	 viewBox="17.5 463.5 612 489.3" enable-background="new 17.5 463.5 612 489.3" xml:space="preserve">
<g>
	<path fill="#FFFFFF" d="M261.6,921.5c5.2-5.2,11.4-10.3,16.6-16.2c17.3-19.2,30.2-41.4,36.8-66.6c8.4-32.9,1.1-63.3-19.1-89.9
		c-10.3-13.7-21.3-26.7-29-41.4c-11.4-22.6-18.8-45.9-16.6-71.8c1.8-33.6,13.9-62.2,37.1-85.8c19.1-20,43.8-34.8,69.5-47.3
		c37.1-17.4,77.2-28.5,118.4-33.6c19.8-2.6,40.5-3.7,61-4.4c23.7-0.8,48-0.8,71.9-0.8c0.7,0,1.8,0,3.3,0
		c-13.6,90.7-27.5,179.9-41.1,270.1c-7-1.9-12.9-3.7-18.8-5.2c-12.1-3.4-24.2-7.1-36.8-10.3c-2.5-0.7-3.7-1.9-3.3-5.2
		c4.4-25.9,8.4-51.8,12.1-77.7c4.4-28.5,8.9-56.9,13.6-85.8c1.1-7.1,1.8-14,3.3-21.5c0-0.7,0-1.9,0-2.6c-7,0-13.6-0.7-19.8,0
		c-24.2,1.2-48.9,4.4-72.4,10.3c-37.8,8.9-73.2,23.3-104.8,45.9c-17.3,12.2-28.3,29.2-31.6,50.3c-1.8,14.8,1.1,29.2,7.7,42.6
		c5.9,12.2,14.7,23.3,23.2,33.6c18.8,23.3,31.6,50,36.1,80.3c3.3,20,1.8,40.7-2.5,60.7c0,0.7,0,1.9-0.7,3.4
		c24.2-8.5,49.7-14.8,75-18.1c5.9,20,11.1,39.6,16.6,59.6c-6.2,1.2-12.9,1.9-19.1,3.4c-39.7,7.1-77.2,20-110.6,42.6
		c-6.2,4.4-13.6,8.5-20.6,12.2c-1.1,0.7-2.5,0.7-3.7,0C295.4,942.2,279.2,932.2,261.6,921.5z"/>
	<path fill="#FFFFFF" d="M136.2,830.9c36.1,1.2,69.5,7.1,102.9,17.4c11.4,3.7,23.2,8.5,36.1,13c-5.2,7.8-9.6,14.8-14.7,20.8
		c-8.4,9.6-17.3,18.1-26.5,27c-0.7,0.7-2.5,0.7-3.7,0.7c-30.2-9.6-61-16.2-92.7-16.7c-14.7-0.7-29,0.7-43.8,1.2c-1.8,0-4.4,0-7,0
		c-26.3-143-47.3-286.5-69.3-430.8c1.8,0,3.3,0,4.4,0c21.3,0,43,0,64.3,0c57.7,0.7,114.3,8.9,168.4,31.1
		c11.1,4.4,21.7,9.6,32.7,14.8c-8.4,7.8-16.1,14.8-23.2,22.6c-7,7.8-13.6,16.2-19.8,25.2c-23.8-11.1-49.7-18.9-75-24
		c-26.5-5.2-52.6-7.8-80.1-8.5C103.8,627.3,120.1,729.5,136.2,830.9z"/>
	<path fill="#FFFFFF" d="M628,780.5c-18.8,11.5-37.1,22.6-55.1,33.6c18.8,18.9,37.8,38.1,56.6,56.9c-13.9,13-26.9,25.9-40.5,39.6
		c-18.8-18.9-37.1-37.3-56.6-56.9c-11.1,18.9-21.7,37-33.4,55.5c-17.3-60.7-34.2-120.3-51.4-180.9
		C508.2,745.4,567.7,763.2,628,780.5z"/>
</g>
</svg>
