<?xml version="1.0" standalone="no"?>
<!DOCTYPE svg PUBLIC "-//W3C//DTD SVG 20010904//EN"
 "http://www.w3.org/TR/2001/REC-SVG-20010904/DTD/svg10.dtd">
<svg version="1.0" xmlns="http://www.w3.org/2000/svg"
 width="2771.000000pt" height="2771.000000pt" viewBox="0 0 2771.000000 2771.000000"
 preserveAspectRatio="xMidYMid meet">
<metadata>
Created by potrace 1.11, written by Peter Selinger 2001-2013
</metadata>
<g transform="translate(0.000000,2771.000000) scale(0.100000,-0.100000)"
fill="#000000" stroke="none">
<path d="M5 24901 c4 -23 8 -51 10 -64 6 -43 17 -122 20 -139 3 -14 13 -80 40
-263 4 -27 24 -156 36 -230 5 -33 12 -78 14 -100 3 -22 7 -49 9 -60 5 -29 16
-95 21 -130 4 -35 12 -87 25 -165 5 -30 11 -71 14 -90 8 -61 57 -384 62 -410
2 -14 7 -43 9 -65 3 -22 8 -51 10 -65 5 -30 44 -291 51 -340 3 -19 9 -60 14
-90 6 -30 12 -68 14 -85 2 -16 6 -46 9 -65 4 -19 9 -53 11 -75 3 -22 7 -49 10
-60 2 -11 7 -42 10 -70 6 -42 25 -165 41 -265 2 -14 7 -47 10 -75 4 -27 8 -57
10 -65 2 -8 7 -35 10 -60 3 -25 8 -58 11 -75 11 -65 13 -82 19 -125 3 -25 14
-99 25 -165 10 -66 24 -155 30 -198 6 -43 13 -88 15 -100 2 -12 6 -40 10 -62
3 -22 10 -67 15 -100 5 -33 11 -76 14 -95 2 -19 9 -62 14 -95 6 -33 13 -78 16
-100 3 -22 10 -67 15 -100 13 -82 42 -274 46 -305 2 -14 6 -43 10 -65 3 -22 8
-51 10 -65 2 -14 20 -131 40 -260 41 -275 46 -310 50 -330 2 -8 6 -37 9 -65 4
-27 9 -57 11 -65 2 -8 6 -35 9 -60 3 -25 8 -54 10 -65 2 -11 6 -41 10 -66 4
-25 9 -57 11 -70 4 -27 8 -50 35 -234 11 -71 29 -188 40 -260 21 -138 55 -363
65 -430 3 -22 10 -62 15 -90 8 -44 17 -108 25 -170 2 -11 6 -37 9 -57 3 -21 9
-55 12 -75 3 -21 11 -76 19 -123 8 -47 17 -107 20 -135 4 -27 8 -57 10 -65 3
-8 14 -76 24 -150 30 -205 32 -214 36 -230 2 -8 7 -37 10 -65 4 -27 8 -61 11
-75 4 -25 24 -153 64 -420 11 -74 27 -173 35 -220 7 -47 17 -103 20 -125 10
-71 16 -108 30 -200 24 -149 25 -159 29 -190 2 -16 9 -57 15 -90 15 -84 19
-114 25 -160 3 -22 8 -49 10 -60 3 -18 14 -89 21 -142 2 -12 6 -34 9 -50 6
-32 12 -69 21 -133 3 -25 10 -70 15 -100 5 -30 12 -73 15 -95 3 -22 8 -51 10
-65 3 -14 7 -43 10 -65 4 -22 10 -65 15 -95 5 -30 12 -71 15 -90 3 -19 8 -48
11 -65 3 -16 7 -41 8 -55 2 -14 6 -41 10 -60 24 -141 51 -316 61 -395 4 -33 9
-63 11 -67 2 -3 7 -30 10 -60 3 -29 9 -69 14 -88 4 -19 11 -57 15 -83 3 -27 8
-56 10 -65 1 -10 6 -39 9 -66 4 -27 9 -52 10 -55 2 -3 7 -33 10 -66 4 -33 9
-67 11 -75 2 -8 6 -33 10 -55 3 -22 12 -78 20 -125 7 -47 16 -103 20 -125 5
-38 13 -86 21 -130 2 -11 7 -42 10 -70 4 -27 8 -53 10 -56 1 -3 6 -28 9 -55 3
-27 8 -58 10 -70 3 -12 7 -39 10 -60 3 -21 10 -61 15 -89 5 -27 12 -70 15 -95
3 -25 8 -52 10 -60 2 -8 6 -33 10 -55 3 -22 8 -51 10 -65 20 -122 27 -160 31
-190 2 -19 6 -46 9 -60 3 -14 7 -38 9 -55 20 -120 97 -597 102 -625 6 -34 10
-60 19 -110 3 -14 7 -45 11 -70 3 -25 7 -52 9 -60 3 -8 7 -33 10 -55 3 -22 8
-51 11 -65 2 -14 7 -38 9 -55 3 -16 8 -46 11 -65 9 -52 12 -71 18 -110 3 -19
7 -44 10 -55 2 -11 7 -42 11 -70 5 -27 9 -52 10 -55 0 -3 4 -27 9 -55 12 -81
14 -95 31 -190 9 -49 18 -106 21 -125 2 -19 7 -46 10 -60 7 -29 23 -128 30
-185 2 -22 7 -46 9 -53 4 -11 28 -150 40 -232 5 -37 16 -100 21 -124 2 -11 7
-37 10 -56 5 -34 9 -57 19 -110 3 -14 7 -38 9 -55 3 -16 12 -73 21 -125 9 -52
18 -108 21 -125 2 -16 6 -41 9 -55 3 -14 7 -38 10 -55 3 -16 7 -39 9 -50 2
-11 11 -63 20 -115 9 -52 18 -106 21 -120 12 -75 25 -149 29 -175 12 -70 56
-322 61 -345 2 -13 7 -42 10 -65 3 -22 10 -62 15 -90 5 -27 19 -102 30 -165
11 -63 22 -126 24 -140 3 -14 19 -104 36 -200 16 -96 32 -186 35 -200 5 -33
34 -197 40 -235 3 -16 7 -39 10 -51 3 -12 7 -39 10 -60 3 -21 8 -50 11 -64 3
-14 10 -49 15 -77 5 -29 14 -79 19 -110 6 -32 13 -71 15 -88 3 -16 7 -41 10
-55 3 -14 8 -38 10 -55 3 -16 12 -66 21 -110 8 -44 17 -96 20 -115 2 -19 7
-46 10 -60 3 -14 8 -36 10 -50 14 -81 25 -138 29 -160 3 -14 21 -113 40 -220
19 -107 37 -206 40 -220 12 -61 47 -258 52 -290 3 -19 10 -38 16 -42 12 -7
478 -3 607 6 92 7 202 13 392 21 68 3 146 8 173 10 342 27 1170 23 1670 -9
100 -7 139 -10 270 -22 39 -3 84 -7 100 -9 135 -12 192 -18 205 -20 8 -2 44
-6 80 -10 36 -3 76 -8 90 -10 14 -2 45 -7 70 -10 72 -8 123 -15 150 -20 14 -2
45 -7 70 -10 25 -3 86 -13 135 -21 50 -8 101 -17 115 -19 14 -2 41 -7 60 -10
91 -15 379 -69 500 -95 74 -16 146 -31 160 -34 14 -3 36 -8 50 -10 14 -3 34
-8 45 -10 11 -2 87 -20 168 -40 82 -20 158 -38 170 -41 29 -6 156 -39 296 -76
63 -17 123 -32 133 -34 10 -2 33 -9 51 -15 27 -9 193 -57 317 -92 19 -5 116
-35 215 -65 202 -63 236 -69 307 -53 45 9 63 22 167 123 218 211 796 792 886
891 50 54 103 112 119 130 52 57 211 250 254 309 23 31 60 81 81 110 21 28
125 180 230 337 151 226 187 286 175 293 -8 5 -70 28 -137 51 -67 24 -129 46
-137 49 -8 4 -58 22 -111 41 -53 19 -211 77 -350 129 -445 167 -785 286 -984
346 -55 16 -131 39 -170 51 -38 12 -77 23 -85 25 -8 2 -49 13 -90 25 -41 11
-82 23 -91 25 -9 2 -47 13 -85 24 -73 21 -571 147 -614 155 -14 2 -52 11 -85
19 -33 9 -76 19 -95 22 -19 3 -53 11 -75 17 -22 6 -53 13 -70 15 -16 3 -34 6
-40 7 -5 1 -16 5 -22 9 -7 5 -13 6 -13 4 0 -3 -39 4 -87 14 -49 11 -101 22
-118 25 -16 2 -97 18 -180 34 -82 15 -168 31 -190 34 -23 4 -52 9 -65 11 -36
8 -209 36 -250 41 -19 2 -73 11 -120 18 -47 8 -110 17 -140 21 -30 4 -62 8
-71 10 -8 1 -42 6 -75 9 -32 4 -70 8 -84 11 -14 2 -47 7 -75 10 -27 3 -63 8
-80 10 -36 6 -110 14 -185 20 -30 3 -73 7 -95 10 -22 2 -71 7 -110 10 -38 4
-81 8 -95 10 -14 2 -68 7 -120 10 -52 4 -111 8 -130 10 -31 3 -93 8 -280 20
-92 6 -392 19 -433 18 -30 0 -38 4 -42 21 -7 32 -45 269 -61 376 -3 19 -7 46
-10 60 -10 54 -12 67 -19 115 -10 66 -10 69 -35 225 -21 135 -26 167 -34 206
-2 12 -7 45 -11 75 -4 30 -8 56 -10 59 -2 3 -6 33 -10 65 -3 33 -8 67 -10 75
-5 16 -9 40 -25 145 -6 39 -13 81 -15 95 -2 14 -7 43 -9 65 -3 22 -8 51 -11
65 -2 13 -7 42 -10 65 -3 22 -8 51 -10 65 -3 14 -7 39 -9 55 -19 119 -38 239
-47 290 -6 33 -11 71 -13 85 -2 14 -6 41 -9 60 -4 19 -13 78 -21 130 -9 52
-24 151 -35 220 -11 69 -23 143 -26 165 -3 22 -10 65 -15 95 -14 81 -17 104
-35 220 -9 58 -18 116 -21 130 -2 14 -11 70 -19 125 -8 55 -17 111 -20 125 -3
13 -7 42 -10 65 -3 22 -10 65 -15 95 -5 30 -14 84 -20 120 -5 36 -12 79 -15
95 -5 30 -16 106 -20 135 -1 8 -5 31 -9 50 -3 19 -8 51 -11 70 -2 19 -6 46 -9
60 -4 22 -22 134 -31 195 -10 70 -18 124 -36 230 -11 66 -21 134 -24 150 -2
17 -6 44 -9 60 -3 17 -10 62 -16 100 -6 39 -13 81 -15 95 -5 30 -24 152 -31
200 -2 19 -13 87 -24 150 -10 63 -21 135 -25 160 -3 25 -8 56 -10 70 -3 14 -7
41 -10 60 -3 19 -8 46 -10 60 -3 14 -7 41 -9 60 -3 19 -7 49 -10 65 -4 26 -8
51 -21 140 -2 11 -13 82 -24 157 -12 76 -24 150 -26 165 -2 16 -6 37 -8 48 -3
11 -7 41 -11 66 -4 25 -8 57 -11 70 -2 13 -9 58 -15 99 -6 41 -14 86 -16 100
-2 14 -7 43 -9 65 -3 22 -10 67 -16 100 -6 33 -12 74 -14 90 -2 17 -6 48 -10
70 -12 75 -36 230 -40 255 -2 14 -6 43 -10 65 -3 22 -10 67 -16 100 -5 33 -11
71 -13 85 -3 14 -10 61 -16 105 -6 44 -15 103 -20 130 -5 28 -12 70 -15 95 -3
25 -8 56 -10 70 -6 32 -12 73 -20 130 -3 25 -13 86 -20 135 -8 50 -17 108 -20
130 -3 22 -10 65 -15 95 -5 30 -12 73 -15 95 -4 22 -12 81 -20 130 -19 126
-24 160 -31 203 -3 20 -10 66 -15 102 -14 83 -15 94 -24 155 -3 28 -8 57 -10
65 -2 8 -7 35 -10 60 -3 25 -8 56 -10 70 -2 14 -13 88 -25 165 -11 77 -23 156
-27 175 -6 41 -8 57 -17 125 -4 28 -9 59 -11 70 -2 11 -11 70 -20 130 -9 61
-18 124 -21 140 -3 17 -7 44 -9 60 -2 17 -8 57 -13 90 -6 33 -13 80 -16 105
-4 25 -8 56 -11 70 -3 14 -7 43 -10 65 -4 33 -22 159 -60 403 -3 17 -7 49 -10
70 -3 20 -8 48 -10 62 -3 14 -7 48 -11 75 -3 28 -8 59 -10 70 -2 11 -7 40 -10
65 -6 48 -11 83 -18 115 -2 12 -7 48 -11 80 -4 33 -9 71 -11 85 -2 14 -9 57
-14 95 -6 39 -13 81 -15 95 -2 14 -11 75 -20 135 -21 146 -22 154 -30 200 -3
22 -7 54 -9 70 -3 17 -7 44 -9 60 -3 17 -8 52 -12 78 -4 27 -8 56 -9 65 -2 10
-7 40 -10 67 -4 28 -9 61 -11 75 -5 29 -54 368 -61 420 -2 19 -7 53 -11 75 -7
44 -8 49 -17 120 -4 28 -8 61 -11 75 -3 22 -14 102 -31 220 -2 19 -6 42 -9 50
-2 8 -7 42 -10 75 -3 33 -8 69 -10 80 -3 11 -7 38 -10 60 -3 22 -7 54 -10 70
-3 17 -7 46 -9 65 -3 19 -8 56 -11 83 l-7 47 103 -5 c57 -2 172 -7 254 -10
218 -8 383 -15 440 -20 28 -2 100 -7 160 -10 61 -4 130 -8 154 -10 24 -3 82
-7 130 -10 47 -3 102 -8 121 -10 19 -2 76 -7 125 -11 50 -3 98 -8 107 -9 9 -2
59 -7 110 -11 51 -3 95 -8 98 -9 3 -2 46 -6 95 -10 50 -4 92 -9 95 -10 3 -2
37 -6 75 -10 39 -3 81 -8 95 -10 14 -3 48 -7 75 -10 28 -3 68 -9 90 -12 22 -3
54 -7 70 -8 34 -4 177 -24 215 -30 14 -2 70 -11 125 -19 55 -8 120 -18 145
-22 25 -3 54 -8 65 -9 16 -3 116 -20 230 -39 33 -6 138 -25 170 -31 17 -3 46
-8 65 -11 19 -3 51 -9 70 -14 19 -5 51 -11 70 -14 19 -3 80 -15 135 -27 55
-11 111 -23 125 -25 14 -2 72 -15 130 -29 58 -13 116 -26 130 -29 14 -2 129
-30 255 -61 127 -31 241 -59 254 -61 13 -3 32 -9 43 -15 10 -5 18 -8 18 -5 0
3 12 1 28 -4 30 -9 64 -19 282 -81 298 -83 677 -206 990 -319 143 -52 451
-170 500 -192 14 -6 34 -14 45 -19 98 -40 386 -165 448 -193 42 -20 80 -36 85
-36 4 0 39 46 77 102 81 118 286 393 381 511 36 45 71 89 77 97 23 29 102 125
107 130 3 3 27 32 55 65 27 33 52 62 55 65 3 3 34 39 70 80 180 207 545 573
911 910 15 14 68 63 118 109 50 46 91 87 91 91 0 3 -55 33 -122 65 -236 112
-343 163 -388 183 -25 11 -102 47 -172 80 -69 33 -159 75 -200 92 -40 18 -95
42 -123 55 -362 163 -913 379 -1385 543 -113 40 -335 113 -355 118 -5 2 -68
21 -140 44 -139 44 -448 135 -580 170 -149 40 -230 62 -245 65 -8 2 -96 24
-195 49 -217 54 -342 84 -398 95 -23 5 -130 28 -237 50 -226 49 -284 61 -325
67 -16 3 -75 14 -130 24 -212 41 -732 127 -880 146 -16 2 -52 6 -79 10 -27 3
-58 7 -69 10 -10 2 -45 6 -76 10 -31 3 -63 8 -71 9 -9 2 -43 6 -75 10 -33 4
-70 8 -83 10 -13 2 -53 7 -90 11 -37 3 -75 8 -84 9 -9 2 -52 7 -95 10 -43 4
-86 9 -95 10 -9 2 -49 6 -90 10 -40 3 -89 8 -108 10 -45 6 -114 12 -217 20
-45 3 -92 8 -105 10 -12 2 -63 6 -113 10 -102 6 -206 13 -315 20 -189 13 -231
15 -325 20 -55 3 -154 8 -220 11 -66 2 -165 7 -220 10 -55 4 -934 8 -1953 11
l-1854 4 7 -40z"/>
<path d="M25807 24934 c-1 -1 -346 -5 -767 -9 -783 -7 -826 -8 -1230 -19 -360
-10 -488 -15 -855 -31 -49 -2 -146 -7 -215 -10 -146 -6 -356 -18 -535 -30 -27
-1 -99 -6 -160 -10 -60 -4 -121 -8 -135 -10 -14 -2 -72 -7 -130 -10 -128 -9
-202 -15 -360 -30 -25 -3 -70 -7 -100 -10 -30 -3 -71 -8 -90 -10 -19 -2 -57
-6 -85 -9 -149 -16 -203 -22 -275 -31 -19 -3 -53 -7 -75 -9 -22 -3 -92 -12
-155 -21 -63 -8 -137 -17 -165 -20 -27 -3 -57 -8 -65 -10 -8 -2 -35 -7 -60
-10 -100 -13 -261 -37 -365 -56 -33 -5 -76 -12 -95 -14 -19 -3 -46 -7 -60 -10
-14 -3 -38 -8 -55 -11 -138 -23 -381 -71 -670 -130 -11 -2 -31 -6 -45 -9 -27
-5 -528 -123 -545 -129 -5 -1 -28 -7 -50 -11 -22 -5 -42 -10 -45 -10 -3 -1
-25 -7 -50 -14 -25 -7 -53 -15 -63 -17 -40 -7 -535 -147 -674 -190 -195 -60
-533 -171 -708 -232 -182 -64 -177 -63 -200 -72 -11 -4 -72 -27 -135 -50 -117
-43 -370 -142 -425 -165 -16 -7 -113 -48 -215 -90 -556 -234 -1038 -474 -1665
-830 -240 -136 -597 -363 -850 -540 -92 -64 -247 -177 -261 -190 -6 -5 -21
-17 -34 -25 -12 -8 -34 -25 -48 -36 -15 -12 -88 -70 -162 -129 -74 -60 -142
-115 -151 -124 -9 -9 -42 -38 -75 -66 -155 -132 -454 -421 -599 -580 -138
-151 -176 -195 -293 -340 -493 -608 -855 -1314 -1058 -2066 -43 -158 -49 -182
-60 -239 -3 -14 -10 -45 -15 -70 -6 -25 -13 -54 -15 -65 -8 -36 -53 -289 -58
-325 -5 -40 -24 -185 -32 -245 -2 -22 -6 -56 -9 -75 -3 -19 -7 -75 -11 -125
-3 -49 -7 -103 -9 -120 -33 -286 -22 -928 20 -1155 2 -14 7 -47 10 -75 3 -27
8 -63 11 -80 5 -31 7 -38 17 -95 4 -19 9 -48 12 -65 16 -88 25 -127 61 -275
142 -586 461 -1366 767 -1875 122 -203 379 -585 399 -593 5 -2 8 -8 8 -12 0
-7 108 -155 216 -295 12 -16 69 -91 125 -165 57 -74 105 -137 108 -140 3 -3
26 -32 51 -65 48 -63 213 -280 233 -305 7 -8 42 -55 78 -105 440 -602 726
-1225 868 -1885 19 -89 22 -109 35 -185 61 -367 75 -755 41 -1145 -7 -86 -40
-322 -55 -400 -6 -30 -13 -68 -16 -85 -5 -31 -54 -248 -74 -325 -7 -25 -13
-49 -14 -55 -44 -181 -224 -690 -315 -890 -15 -33 -41 -89 -56 -125 -39 -88
-210 -425 -270 -530 -111 -195 -315 -515 -428 -670 -352 -482 -649 -816 -1071
-1205 -66 -61 -151 -140 -189 -176 l-69 -66 179 -109 c98 -60 187 -114 198
-120 11 -6 130 -79 265 -161 135 -83 261 -160 280 -171 19 -11 134 -80 255
-153 255 -154 703 -418 920 -541 83 -47 166 -95 185 -107 120 -71 155 -72 273
-12 51 25 94 48 97 51 3 3 39 23 80 45 97 50 418 237 493 286 32 22 62 39 67
39 5 0 10 3 12 8 2 4 50 39 108 77 58 39 109 73 115 78 33 25 432 277 439 277
2 0 56 32 120 70 65 39 119 70 120 70 2 0 39 19 82 43 44 24 110 60 147 81 77
42 484 246 490 246 3 0 53 23 112 50 125 59 451 200 462 200 4 0 22 7 38 16
93 49 849 317 1100 389 33 10 80 24 105 32 25 9 59 19 75 24 155 42 224 61
310 84 168 45 451 114 574 141 137 30 288 63 316 68 11 2 31 7 45 10 14 3 37
8 53 10 15 3 35 7 45 10 9 3 34 7 54 10 21 3 57 10 80 15 24 5 63 12 88 16 25
3 61 10 81 16 32 8 104 23 169 35 14 2 59 11 100 18 41 8 107 19 145 25 39 6
84 13 100 16 17 2 48 7 70 11 118 18 256 43 265 49 6 4 8 11 5 16 -4 5 -19 57
-35 116 -15 60 -35 134 -44 166 -9 31 -23 83 -32 115 -20 72 -68 248 -89 327
-8 33 -30 109 -47 170 -17 60 -31 114 -32 120 -2 9 -19 71 -46 165 -10 33 -66
240 -95 345 -55 204 -249 890 -264 935 -5 14 -21 69 -36 123 -24 83 -31 97
-49 97 -17 0 -142 -17 -321 -45 -64 -9 -281 -45 -301 -49 -12 -2 -37 -7 -55
-10 -19 -3 -44 -8 -55 -10 -12 -2 -37 -7 -55 -10 -64 -11 -94 -16 -149 -28
-30 -7 -57 -12 -60 -13 -3 -1 -25 -5 -50 -9 -37 -7 -309 -64 -385 -82 -11 -2
-33 -7 -50 -9 -16 -3 -43 -10 -60 -15 -16 -5 -41 -11 -55 -14 -41 -7 -466
-115 -580 -148 -58 -16 -112 -31 -120 -33 -8 -1 -94 -26 -190 -55 -96 -28
-179 -53 -185 -54 -26 -6 -302 -95 -485 -156 -112 -38 -206 -68 -208 -66 -1 2
2 23 7 47 5 24 19 98 30 164 11 66 23 131 26 145 2 14 7 36 10 50 2 14 7 39
10 55 3 17 7 41 10 55 2 13 7 40 10 60 3 20 7 45 9 56 2 12 7 45 11 74 4 29 8
60 10 69 1 9 6 41 10 71 4 30 9 62 10 70 2 8 6 49 10 90 3 41 8 82 10 90 3 14
8 61 20 230 13 180 18 321 18 525 1 212 -9 492 -18 547 -2 13 -7 57 -10 98 -3
41 -8 88 -10 105 -2 16 -11 82 -20 145 -8 63 -17 126 -19 140 -3 14 -9 57 -15
95 -12 75 -18 115 -26 155 -13 63 -16 77 -20 105 -3 17 -8 37 -10 45 -2 8 -6
26 -9 40 -27 151 -148 600 -206 765 -12 33 -23 67 -25 75 -8 35 -133 357 -193
500 -76 178 -252 536 -339 690 -106 187 -116 204 -181 310 -108 176 -278 423
-421 614 -74 99 -140 186 -145 192 -6 6 -22 26 -36 44 -14 18 -30 38 -35 44
-6 6 -30 36 -55 66 -25 30 -49 60 -55 66 -5 6 -21 26 -35 44 -14 18 -30 38
-35 44 -24 25 -228 290 -316 411 -92 125 -299 431 -299 441 0 3 -13 24 -28 47
-94 139 -276 510 -354 721 -56 150 -121 368 -144 481 -2 11 -6 31 -9 45 -8 38
-13 63 -21 117 -5 26 -9 50 -9 53 -1 3 -5 37 -9 75 -5 39 -10 79 -12 90 -21
116 -20 496 2 675 29 229 134 626 214 806 12 27 26 58 30 69 46 112 160 329
241 457 243 380 541 688 960 991 214 154 624 422 825 538 160 93 383 219 388
219 4 0 24 11 46 25 42 27 501 258 630 318 720 335 1430 593 2265 824 110 30
205 56 210 57 6 2 21 6 35 9 28 8 516 127 540 132 8 2 89 19 180 39 91 20 183
41 205 46 42 10 394 77 455 86 19 3 42 7 50 9 8 2 33 7 55 10 23 3 52 7 65 10
13 3 42 7 65 10 33 5 129 20 255 40 14 2 45 6 70 10 25 3 79 10 120 16 41 5
89 12 105 14 17 2 53 7 80 10 28 3 66 8 85 11 19 3 60 7 90 10 30 2 71 6 90 9
34 4 127 14 200 20 19 2 60 6 90 9 119 12 227 21 385 31 50 3 115 8 145 10 30
2 107 7 170 10 63 4 156 10 205 14 91 7 315 6 595 -3 85 -3 167 -5 183 -5 26
-1 27 -3 27 -58 0 -32 -11 -114 -24 -183 -13 -69 -27 -147 -31 -175 -3 -27
-10 -77 -15 -110 -13 -91 -17 -120 -35 -250 -9 -66 -25 -174 -35 -240 -10 -66
-21 -138 -25 -160 -3 -23 -8 -52 -10 -65 -3 -14 -8 -45 -11 -70 -3 -25 -7 -53
-10 -63 -3 -10 -7 -30 -9 -45 -3 -22 -15 -102 -40 -252 -2 -14 -11 -68 -20
-120 -8 -52 -17 -108 -20 -125 -5 -42 -15 -105 -20 -135 -3 -14 -7 -38 -9 -55
-8 -48 -16 -96 -26 -155 -5 -30 -12 -75 -15 -99 -3 -23 -7 -46 -9 -50 -2 -3
-7 -33 -11 -66 -3 -33 -10 -78 -15 -100 -5 -22 -11 -65 -15 -95 -3 -30 -8 -62
-10 -70 -5 -19 -13 -63 -19 -115 -3 -22 -8 -49 -10 -60 -2 -11 -7 -42 -10 -69
-4 -27 -9 -52 -10 -55 -2 -3 -7 -33 -11 -66 -3 -32 -8 -62 -10 -65 -1 -3 -6
-32 -10 -65 -3 -32 -8 -62 -10 -65 -1 -3 -6 -32 -10 -65 -3 -32 -8 -62 -10
-65 -1 -3 -6 -27 -9 -55 -4 -27 -9 -57 -11 -65 -2 -8 -7 -37 -10 -65 -8 -59
-10 -66 -30 -195 -3 -14 -7 -43 -10 -65 -3 -22 -10 -65 -15 -95 -17 -100 -19
-115 -25 -155 -2 -22 -7 -53 -10 -70 -8 -49 -14 -87 -20 -130 -3 -22 -10 -65
-15 -95 -5 -30 -12 -73 -15 -95 -2 -22 -7 -51 -10 -65 -2 -13 -7 -42 -10 -65
-3 -22 -8 -51 -10 -65 -5 -29 -11 -68 -20 -125 -3 -23 -8 -52 -10 -65 -3 -14
-8 -43 -10 -65 -9 -68 -16 -118 -25 -180 -5 -33 -12 -78 -15 -100 -3 -22 -8
-51 -10 -65 -2 -14 -7 -45 -10 -70 -6 -46 -8 -60 -20 -140 -8 -56 -12 -78 -24
-160 -5 -36 -13 -85 -16 -110 -3 -25 -8 -52 -10 -60 -2 -8 -6 -37 -10 -65 -3
-27 -8 -61 -10 -75 -7 -43 -45 -297 -51 -337 -3 -21 -7 -51 -9 -66 -2 -16 -6
-40 -9 -55 -3 -15 -8 -47 -11 -72 -3 -25 -10 -70 -15 -100 -5 -30 -12 -73 -15
-95 -4 -22 -8 -49 -10 -60 -12 -76 -15 -94 -19 -125 -3 -19 -19 -120 -36 -225
-18 -104 -34 -206 -36 -225 -3 -19 -11 -75 -20 -125 -8 -49 -17 -102 -20 -117
-12 -78 -15 -97 -24 -148 -5 -30 -11 -74 -14 -98 -3 -24 -7 -46 -10 -50 -2 -4
-7 -31 -10 -61 -4 -29 -8 -56 -10 -60 -2 -3 -7 -28 -10 -56 -8 -59 -12 -91
-19 -125 -5 -25 -12 -67 -22 -125 -3 -16 -10 -59 -16 -95 -20 -118 -20 -170 0
-216 28 -63 73 -89 206 -119 11 -3 144 -39 295 -81 151 -41 298 -82 325 -89
51 -13 496 -141 660 -190 50 -14 99 -29 110 -31 34 -9 38 -10 95 -27 30 -8 89
-25 130 -36 41 -11 149 -40 240 -66 181 -50 190 -53 223 -60 12 -3 33 -9 47
-14 14 -5 43 -14 65 -20 22 -6 87 -24 145 -40 58 -17 108 -27 112 -23 5 5 10
30 13 57 4 28 8 61 10 74 2 13 7 45 11 70 4 25 8 53 10 63 1 9 6 38 10 65 3
26 8 57 10 68 2 11 7 40 10 65 3 25 8 54 10 65 2 11 7 40 10 65 3 25 8 54 10
64 2 11 8 54 14 96 6 42 13 87 15 100 3 13 7 42 10 65 3 22 8 51 10 65 3 14 7
43 10 65 3 22 7 51 9 65 3 14 7 43 11 65 3 22 12 83 20 135 8 52 17 111 19
130 3 19 10 62 15 95 16 98 40 257 45 295 6 45 15 101 26 170 6 30 12 73 15
95 3 22 7 49 9 61 2 12 7 45 11 74 4 29 9 62 11 74 5 29 13 74 18 116 3 19 12
78 20 130 8 52 18 118 22 145 3 28 7 57 9 65 5 28 16 95 20 125 4 28 31 212
40 265 2 14 7 45 10 70 3 25 8 52 10 60 2 8 6 31 9 50 22 154 37 257 41 270 2
8 7 40 10 70 3 30 8 62 10 70 2 8 7 35 10 60 3 25 8 56 10 70 2 14 7 45 10 70
3 25 8 52 10 60 3 8 7 35 10 60 3 25 9 70 15 100 5 30 12 78 16 105 3 28 7 57
9 65 1 8 5 35 9 60 4 25 10 59 12 75 3 17 7 41 9 55 2 14 9 61 15 105 6 44 15
103 20 130 5 28 12 70 15 95 3 25 8 52 10 60 2 8 6 38 10 65 3 28 19 136 36
240 16 105 31 204 34 220 2 17 15 104 30 195 14 91 27 181 30 200 6 45 16 110
21 133 2 10 13 83 24 162 11 79 23 154 25 167 3 13 8 43 11 68 3 25 7 52 9 60
2 8 7 35 10 60 9 67 31 214 40 260 2 14 7 45 10 70 3 25 8 56 10 70 5 29 11
68 20 125 3 23 7 51 10 64 2 12 9 55 15 94 17 119 30 210 35 237 2 14 6 43 10
65 3 23 7 51 10 64 2 13 7 44 10 70 7 46 9 61 18 116 7 40 17 103 22 140 2 17
6 48 10 70 30 186 37 234 41 260 2 17 6 44 8 60 3 17 12 80 21 140 8 61 20
133 25 160 5 28 12 73 15 100 3 28 8 57 10 65 4 16 9 50 21 135 3 28 8 59 10
70 2 11 7 40 10 65 3 25 7 52 9 60 1 8 6 35 10 60 3 25 8 56 10 70 5 27 52
343 60 400 6 39 24 151 30 190 6 38 23 150 30 195 3 23 7 50 9 60 2 11 7 43
10 70 4 28 9 57 11 65 2 8 6 38 10 65 3 28 12 91 20 140 8 50 16 108 20 130 3
22 10 69 16 105 5 36 12 76 14 90 6 41 25 173 29 205 3 17 10 62 16 100 6 39
13 86 16 105 2 19 6 42 9 50 2 8 7 40 10 70 3 30 10 78 15 105 5 28 12 75 16
105 4 30 8 57 9 60 2 11 17 107 21 135 10 74 14 101 18 121 2 12 7 45 11 74 4
29 9 62 11 74 2 11 6 38 9 61 4 22 8 51 10 65 2 14 7 45 10 70 4 25 10 64 15
88 6 35 5 45 -7 49 -13 5 -1071 11 -1076 7z"/>
<path d="M19480 12923 c5 -16 25 -86 45 -158 20 -71 45 -159 55 -195 25 -84
140 -490 145 -510 3 -13 275 -972 320 -1127 8 -29 22 -77 30 -105 35 -123 107
-377 120 -423 7 -27 71 -250 140 -495 70 -245 129 -452 131 -460 2 -8 10 -40
19 -70 9 -30 20 -68 25 -85 8 -28 39 -139 60 -210 5 -16 20 -72 34 -124 15
-52 45 -157 67 -235 23 -78 43 -148 44 -156 2 -8 29 -103 60 -210 31 -107 58
-204 61 -214 3 -17 18 -67 44 -151 5 -16 34 -118 64 -225 30 -107 59 -210 65
-228 5 -18 10 -34 11 -37 0 -3 2 -10 5 -17 2 -7 27 -96 55 -198 28 -102 60
-214 70 -250 25 -84 90 -311 95 -330 2 -8 22 -80 45 -160 23 -80 44 -154 47
-165 22 -79 174 -616 182 -640 9 -26 68 -236 91 -320 34 -126 183 -643 189
-653 4 -8 20 11 44 50 21 35 92 149 157 253 66 105 130 208 143 230 52 88 141
233 173 282 19 28 34 54 34 58 0 3 12 25 28 48 15 23 32 51 39 62 6 11 65 110
131 220 153 254 330 551 352 590 25 44 391 667 404 688 9 15 89 -62 604 -580
326 -329 903 -909 1281 -1288 l688 -691 340 341 c354 353 763 756 970 955 201
193 425 406 478 453 l49 45 -691 694 c-380 381 -849 853 -1043 1048 -193 195
-459 463 -591 595 l-239 240 196 120 c108 66 211 129 229 140 172 104 370 224
460 280 61 38 119 73 130 79 18 10 67 40 230 140 28 17 59 36 70 43 35 21 442
269 660 402 116 71 279 171 363 221 83 51 152 94 152 96 0 3 -128 43 -159 49
-9 2 -72 20 -141 40 -69 20 -163 48 -210 61 -47 14 -107 32 -135 39 -27 8
-144 41 -260 75 -246 72 -259 76 -305 88 -38 10 -497 143 -645 187 -220 65
-503 148 -530 155 -16 4 -86 25 -155 45 -69 20 -177 52 -240 70 -63 18 -171
50 -240 70 -69 21 -129 38 -135 39 -21 5 -132 38 -191 57 -33 11 -69 21 -80
24 -10 2 -120 33 -244 70 -548 160 -1069 312 -1430 417 -151 44 -336 98 -410
119 -74 22 -142 42 -150 44 -8 2 -94 27 -190 55 -96 28 -182 53 -190 55 -88
25 -225 64 -630 181 -261 75 -504 145 -540 154 -36 10 -254 72 -485 138 -528
150 -476 139 -465 105z"/>
</g>
</svg>
