<svg width="23" height="33" viewBox="0 0 23 33" fill="none" xmlns="http://www.w3.org/2000/svg">
    <path d="M6.38874 22.8456C8.14588 22.8456 9.64961 22.2242 10.9007 20.982C12.1516 19.7397 12.7771 18.2453 12.7771 16.5V6.34633C12.7771 4.60104 12.152 3.10721 10.9007 1.86434C9.64961 0.621748 8.14588 0 6.38874 0C4.6318 0 3.12787 0.621748 1.87672 1.86434C0.625503 3.107 5.97527e-08 4.60104 5.97527e-08 6.34633V16.5C5.97527e-08 18.2452 0.625783 19.7397 1.87672 20.982C3.12766 22.2242 4.6318 22.8456 6.38874 22.8456Z"
          transform="translate(5.11108)" fill="white"/>
    <path d="M22.6199 0.376896C22.3678 0.125655 22.0677 -6.78333e-08 21.7216 -6.78333e-08C21.3759 -6.78333e-08 21.0764 0.125655 20.8232 0.376896C20.5706 0.628068 20.4441 0.925501 20.4441 1.26913V3.80773C20.4441 6.25374 19.5688 8.34584 17.8185 10.0844C16.0688 11.823 13.9623 12.6923 11.4998 12.6923C9.03739 12.6923 6.93117 11.823 5.18081 10.0844C3.43065 8.34632 2.55565 6.25381 2.55565 3.80773V1.26913C2.55565 0.925501 2.42915 0.628068 2.17636 0.376896C1.92343 0.125655 1.62428 -6.78333e-08 1.278 -6.78333e-08C0.931717 -6.78333e-08 0.632217 0.125655 0.379428 0.376896C0.126429 0.628068 -1.40846e-07 0.925501 -1.40846e-07 1.26913V3.80773C-1.40846e-07 6.72961 0.981785 9.27148 2.9448 11.4329C4.90788 13.5944 7.3336 14.8338 10.222 15.1509V17.769H5.11109C4.76502 17.769 4.46558 17.8947 4.21273 18.146C3.9598 18.397 3.8333 18.6946 3.8333 19.0384C3.8333 19.3816 3.9598 19.6797 4.21273 19.9307C4.46558 20.1818 4.76502 20.3078 5.11109 20.3078H17.8882C18.2342 20.3078 18.5341 20.1818 18.7866 19.9307C19.0398 19.6798 19.1663 19.3816 19.1663 19.0384C19.1663 18.6947 19.0398 18.3971 18.7866 18.146C18.5341 17.8947 18.2343 17.769 17.8882 17.769H12.7779V15.1509C15.6658 14.8338 18.0914 13.5944 20.0546 11.4329C22.0179 9.27148 23 6.72961 23 3.80773V1.26913C23 0.925571 22.8732 0.628346 22.6199 0.376896Z"
          transform="translate(0 12.6923)" fill="white"/>
</svg>
