<svg width="24" height="24" viewBox="0 0 24 24" fill="none" xmlns="http://www.w3.org/2000/svg">
    <path fill-rule="evenodd" clip-rule="evenodd"
          d="M23.9249 10.6675C23.887 10.3302 23.4936 10.0767 23.1534 10.0767C22.0537 10.0767 21.0779 9.43095 20.6686 8.43234C20.2505 7.40952 20.5201 6.21669 21.3397 5.46489C21.5977 5.22906 21.629 4.83428 21.4126 4.56004C20.8498 3.84531 20.21 3.19969 19.5115 2.64015C19.238 2.42066 18.8367 2.4512 18.5995 2.71382C17.8842 3.50598 16.5994 3.80039 15.6066 3.38614C14.5734 2.95153 13.9218 1.90461 13.9856 0.780799C14.0066 0.427806 13.7486 0.120891 13.3967 0.0799036C12.5003 -0.0237706 11.596 -0.0269853 10.697 0.0727599C10.349 0.111158 10.0911 0.41084 10.1028 0.759368C10.1419 1.8721 9.48248 2.90072 8.45955 3.3197C7.47859 3.72038 6.20277 3.42847 5.48891 2.64336C5.25298 2.38476 4.85818 2.35297 4.58332 2.56719C3.8641 3.13146 3.20998 3.77762 2.64195 4.48646C2.4204 4.76203 2.45299 5.16146 2.71357 5.39855C3.54878 6.1549 3.81847 7.35809 3.38456 8.39269C2.9703 9.37907 1.94604 10.0148 0.773443 10.0148C0.392937 10.0025 0.121913 10.2579 0.0802991 10.6039C-0.0252531 11.5054 -0.0265033 12.424 0.0751197 13.3329C0.112804 13.6717 0.518135 13.923 0.862028 13.923C1.90701 13.8963 2.91029 14.5432 3.33116 15.5674C3.75069 16.5902 3.48101 17.7823 2.66016 18.5347C2.40343 18.7706 2.37083 19.1647 2.58721 19.439C3.14479 20.1491 3.78463 20.7954 4.48563 21.3596C4.76058 21.5811 5.16064 21.5499 5.39898 21.2872C6.11695 20.4931 7.40171 20.1992 8.39061 20.6143C9.4264 21.0476 10.0779 22.0944 10.0142 23.2188C9.99336 23.572 10.2526 23.8794 10.6031 23.9198C11.0617 23.9733 11.523 24 11.9855 24C12.4246 24 12.8638 23.9759 13.3029 23.927C13.6509 23.8886 13.9087 23.589 13.897 23.2398C13.8567 22.1277 14.5173 21.0991 15.5389 20.6808C16.5264 20.2775 17.7969 20.5727 18.5108 21.357C18.7481 21.615 19.1401 21.6462 19.4165 21.4327C20.1344 20.8698 20.7872 20.2241 21.3579 19.5133C21.5794 19.2384 21.5481 18.8383 21.2862 18.6013C20.451 17.845 20.1799 16.6416 20.6138 15.6077C21.0218 14.6345 22.008 13.981 23.0688 13.981L23.2172 13.9848C23.5613 14.0128 23.8778 13.7478 23.9195 13.3966C24.0253 12.4942 24.0265 11.5764 23.9249 10.6675ZM12.019 16.0281C9.81172 16.0281 8.01627 14.2327 8.01627 12.0254C8.01627 9.81823 9.81172 8.02273 12.019 8.02273C14.2262 8.02273 16.0217 9.81823 16.0217 12.0254C16.0217 14.2327 14.2262 16.0281 12.019 16.0281Z"
          fill="#C4C4C4"/>
    <path fill-rule="evenodd" clip-rule="evenodd"
          d="M23.9249 10.6675C23.887 10.3302 23.4936 10.0767 23.1534 10.0767C22.0537 10.0767 21.0779 9.43095 20.6686 8.43234C20.2505 7.40952 20.5201 6.21669 21.3397 5.46489C21.5977 5.22906 21.629 4.83428 21.4126 4.56004C20.8498 3.84531 20.21 3.19969 19.5115 2.64015C19.238 2.42066 18.8367 2.4512 18.5995 2.71382C17.8842 3.50598 16.5994 3.80039 15.6066 3.38614C14.5734 2.95153 13.9218 1.90461 13.9856 0.780799C14.0066 0.427806 13.7486 0.120891 13.3967 0.0799036C12.5003 -0.0237706 11.596 -0.0269853 10.697 0.0727599C10.349 0.111158 10.0911 0.41084 10.1028 0.759368C10.1419 1.8721 9.48248 2.90072 8.45955 3.3197C7.47859 3.72038 6.20277 3.42847 5.48891 2.64336C5.25298 2.38476 4.85818 2.35297 4.58332 2.56719C3.8641 3.13146 3.20998 3.77762 2.64195 4.48646C2.4204 4.76203 2.45299 5.16146 2.71357 5.39855C3.54878 6.1549 3.81847 7.35809 3.38456 8.39269C2.9703 9.37907 1.94604 10.0148 0.773443 10.0148C0.392937 10.0025 0.121913 10.2579 0.0802991 10.6039C-0.0252531 11.5054 -0.0265033 12.424 0.0751197 13.3329C0.112804 13.6717 0.518135 13.923 0.862028 13.923C1.90701 13.8963 2.91029 14.5432 3.33116 15.5674C3.75069 16.5902 3.48101 17.7823 2.66016 18.5347C2.40343 18.7706 2.37083 19.1647 2.58721 19.439C3.14479 20.1491 3.78463 20.7954 4.48563 21.3596C4.76058 21.5811 5.16064 21.5499 5.39898 21.2872C6.11695 20.4931 7.40171 20.1992 8.39061 20.6143C9.4264 21.0476 10.0779 22.0944 10.0142 23.2188C9.99336 23.572 10.2526 23.8794 10.6031 23.9198C11.0617 23.9733 11.523 24 11.9855 24C12.4246 24 12.8638 23.9759 13.3029 23.927C13.6509 23.8886 13.9087 23.589 13.897 23.2398C13.8567 22.1277 14.5173 21.0991 15.5389 20.6808C16.5264 20.2775 17.7969 20.5727 18.5108 21.357C18.7481 21.615 19.1401 21.6462 19.4165 21.4327C20.1344 20.8698 20.7872 20.2241 21.3579 19.5133C21.5794 19.2384 21.5481 18.8383 21.2862 18.6013C20.451 17.845 20.1799 16.6416 20.6138 15.6077C21.0218 14.6345 22.008 13.981 23.0688 13.981L23.2172 13.9848C23.5613 14.0128 23.8778 13.7478 23.9195 13.3966C24.0253 12.4942 24.0265 11.5764 23.9249 10.6675ZM12.019 16.0281C9.81172 16.0281 8.01627 14.2327 8.01627 12.0254C8.01627 9.81823 9.81172 8.02273 12.019 8.02273C14.2262 8.02273 16.0217 9.81823 16.0217 12.0254C16.0217 14.2327 14.2262 16.0281 12.019 16.0281Z"
          fill="url(#paint0_linear)"/>
    <defs>
        <linearGradient id="paint0_linear" x2="1" gradientUnits="userSpaceOnUse" gradientTransform="translate(-4.42298 7.72383) scale(24) rotate(-30.4055)">
            <stop stop-color="#77DB7B"/>
            <stop offset="1" stop-color="#57DA54"/>
        </linearGradient>
    </defs>
</svg>
