<svg width="27" height="30" viewBox="0 0 18 20" fill="none" xmlns="http://www.w3.org/2000/svg">
    <path d="M4.48924 15.6072C2.84939 14.2878 1.79999 12.2648 1.79999 9.99587C1.79999 6.64199 4.0963 3.83215 7.19995 3.03099V1.17565C3.09197 2.00944 2.93918e-09 5.64163 2.93918e-09 9.99587C2.93918e-09 12.6867 1.18129 15.0995 3.05203 16.7486C4.50003 18.0975 5.39996 16.2973 4.48924 15.6072ZM14.8721 3.17817C13.9501 2.34529 12.6 3.6955 13.4851 4.36437C15.1401 5.68337 16.2001 7.71607 16.2001 9.99587C16.2001 13.3503 13.9034 16.1606 10.8001 16.9613V18.817C14.908 17.9823 18 14.3506 18 9.99574C18 7.26951 16.7871 4.82853 14.8721 3.17817ZM7.99522 4.58592L10.9247 2.8314C11.3509 2.57608 11.3518 2.16022 10.9271 1.90309L7.97044 0.113391C7.54513 -0.143345 7.20187 0.0504589 7.20393 0.54762L7.21985 4.14822C7.22114 4.64512 7.5685 4.84124 7.99522 4.58592ZM10.0301 15.4156L7.07307 17.2053C6.64789 17.4624 6.64879 17.8781 7.07551 18.1336L10.0048 19.8882C10.431 20.143 10.7791 19.9476 10.7813 19.45L10.7967 15.8496C10.7983 15.3528 10.4545 15.1588 10.0301 15.4156Z"
          fill="white"/>
</svg>
