<svg width="24" height="18" viewBox="0 0 24 18" fill="none" xmlns="http://www.w3.org/2000/svg">
    <path d="M22.9559 10.0417C22.2599 9.15108 21.3705 8.57381 20.287 8.30954C20.6289 7.78118 20.7994 7.19308 20.7994 6.54538C20.7994 5.64192 20.4868 4.87068 19.8621 4.23141C19.2372 3.59235 18.483 3.27269 17.5996 3.27269C16.8079 3.27269 16.1164 3.53692 15.5248 4.06537C15.0334 2.83804 14.2477 1.85371 13.1686 1.11234C12.0896 0.370752 10.9 0 9.59982 0C7.83328 0 6.32487 0.639367 5.07486 1.91779C3.82476 3.1959 3.19991 4.73868 3.19991 6.54552C3.19991 6.65629 3.20827 6.83956 3.22491 7.09515C2.24162 7.56392 1.45837 8.267 0.874888 9.20441C0.29163 10.1421 0 11.1646 0 12.2728C0 13.8495 0.548015 15.198 1.64374 16.3187C2.7395 17.4398 4.0583 18 5.59993 18H19.2001C20.5249 18 21.6561 17.5204 22.5937 16.5618C23.5312 15.6031 24 14.4462 24 13.0909C23.9999 11.9488 23.6518 10.9326 22.9559 10.0417ZM15.8809 9.69673C15.8015 9.7775 15.708 9.81794 15.5998 9.81794H12.7998V14.3181C12.7998 14.4287 12.7603 14.5247 12.6811 14.6056C12.6018 14.6867 12.5082 14.727 12.4001 14.727H9.99968C9.89137 14.727 9.79763 14.6868 9.71847 14.6056C9.63949 14.5247 9.59974 14.4287 9.59974 14.3181V9.81794H6.79973C6.68318 9.81794 6.58725 9.77965 6.51239 9.70317C6.43739 9.62643 6.39996 9.52837 6.39996 9.40917C6.39996 9.30681 6.44155 9.20445 6.52482 9.10223L10.9123 4.61514C10.9873 4.5384 11.0832 4.50007 11.1998 4.50007C11.3165 4.50007 11.4124 4.5384 11.4873 4.61514L15.8874 9.11499C15.9624 9.19164 15.9995 9.28966 15.9995 9.40921C15.9995 9.51977 15.9599 9.61599 15.8809 9.69673Z"
          fill="white"/>
</svg>
