<?xml version="1.0" encoding="utf-8"?>
<!-- Generator: Adobe Illustrator 26.1.0, SVG Export Plug-In . SVG Version: 6.00 Build 0)  -->
<svg version="1.1" id="Layer_1" xmlns="http://www.w3.org/2000/svg" xmlns:xlink="http://www.w3.org/1999/xlink" x="0px" y="0px"
	 viewBox="0 0 74.4 74.4" style="enable-background:new 0 0 74.4 74.4;" xml:space="preserve">
<g>
	<path d="M37.1,35c6.5,0,11.7-5.1,11.7-11.6c-0.6-15.3-22.9-15.3-23.6,0C25.2,29.7,30.5,35,37.1,35L37.1,35z M30.5,23.4
		c0.1-3.5,3.2-6.2,6.8-6.1c3.4,0.1,6.1,2.8,6.3,6.1C43.2,31.8,30.8,31.8,30.5,23.4L30.5,23.4z"/>
	<path d="M53.5,42.6c-4.3-2.8-9.3-4.3-14.4-4.5c-0.5,0-0.9,0-1.4,0c-0.1,0-0.3,0-0.4,0h-0.1h-0.1c-0.1,0-0.3,0-0.4,0
		c-0.5,0-0.9,0-1.4,0c-5.1,0.2-10.1,1.7-14.4,4.5c-4.4,2.9-6.7,6.9-6.7,11.2V58c0,1.5,1.1,2.7,2.7,2.8h40.6c1.6-0.1,2.7-1.3,2.7-2.8
		v-4.2C60.2,49.5,57.9,45.5,53.5,42.6z M54.8,55.7H19.7v-1.5c0.3-4.7,4.5-7.5,8.6-9.1c2.9-1.1,6-1.7,9-1.7s6.1,0.6,9,1.7
		c4,1.6,8.3,4.4,8.6,9.1v1.5H54.8z"/>
</g>
<path d="M57.9,14.4c-2.9,0-5.6,0.8-7.9,2.1c1,1.9,1.7,4.2,1.8,6.9l0,0.1c0,4.5-2,8.5-5.2,11.2c2.6,2.9,6.7,4.7,11.2,4.7
	c7.9,0,14.3-5.6,14.3-12.5C72.2,19.9,65.8,14.4,57.9,14.4z"/>
</svg>
