<?xml version="1.0" encoding="UTF-8" standalone="no"?>
<!-- Created with Inkscape (http://www.inkscape.org/) -->

<svg
   xmlns:dc="http://purl.org/dc/elements/1.1/"
   xmlns:cc="http://creativecommons.org/ns#"
   xmlns:rdf="http://www.w3.org/1999/02/22-rdf-syntax-ns#"
   xmlns:svg="http://www.w3.org/2000/svg"
   xmlns="http://www.w3.org/2000/svg"
   xmlns:sodipodi="http://sodipodi.sourceforge.net/DTD/sodipodi-0.dtd"
   xmlns:inkscape="http://www.inkscape.org/namespaces/inkscape"
   width="16px"
   height="16px"
   id="svg5366"
   version="1.1"
   inkscape:version="0.48.2 r9819"
   sodipodi:docname="New document 10">
  <defs
     id="defs5368" />
  <sodipodi:namedview
     id="base"
     pagecolor="#ffffff"
     bordercolor="#666666"
     borderopacity="1.0"
     inkscape:pageopacity="0.0"
     inkscape:pageshadow="2"
     inkscape:zoom="47.9375"
     inkscape:cx="6.4387086"
     inkscape:cy="9.6688396"
     inkscape:current-layer="layer1"
     showgrid="true"
     inkscape:grid-bbox="true"
     inkscape:document-units="px"
     inkscape:snap-global="false"
     inkscape:window-width="1521"
     inkscape:window-height="987"
     inkscape:window-x="386"
     inkscape:window-y="0"
     inkscape:window-maximized="0">
    <inkscape:grid
       type="xygrid"
       id="grid5374" />
  </sodipodi:namedview>
  <metadata
     id="metadata5371">
    <rdf:RDF>
      <cc:Work
         rdf:about="">
        <dc:format>image/svg+xml</dc:format>
        <dc:type
           rdf:resource="http://purl.org/dc/dcmitype/StillImage" />
        <dc:title></dc:title>
      </cc:Work>
    </rdf:RDF>
  </metadata>
  <g
     id="layer1"
     inkscape:label="Layer 1"
     inkscape:groupmode="layer">
    <path
       sodipodi:type="arc"
       style="fill:#ffffff;fill-rule:evenodd;stroke:#000000;stroke-width:1px;stroke-linecap:butt;stroke-linejoin:miter;stroke-opacity:1"
       id="path5884"
       sodipodi:cx="7.4993482"
       sodipodi:cy="7.3220339"
       sodipodi:rx="6.5189047"
       sodipodi:ry="6.3207302"
       d="m 14.018253,7.3220339 a 6.5189047,6.3207302 0 1 1 -13.03780952,0 6.5189047,6.3207302 0 1 1 13.03780952,0 z"
       transform="matrix(1.1413355,0,0,1.17877,-0.53841198,-0.62056467)" />
    <g
       transform="scale(1.0626006,0.94108738)"
       style="font-size:14.21570778px;font-style:normal;font-weight:normal;line-height:125%;letter-spacing:0px;word-spacing:0px;fill:#000000;fill-opacity:1;stroke:none;font-family:Sans"
       id="text5886">
      <path
         d="M 4.7179022,5.0666522 C 4.7179017,4.9532839 4.7624414,4.7953703 4.8515215,4.5929109 4.9406003,4.3904637 5.0857883,4.1856966 5.2870858,3.9786091 5.4883812,3.771535 5.7596686,3.5927976 6.100949,3.4423965 6.4422255,3.2920098 6.8581225,3.2087148 7.3486411,3.192511 c 0.5391011,7.5e-6 1.030195,0.070577 1.4732832,0.2117086 0.4430789,0.1411461 0.7993968,0.3574819 1.0689546,0.6490081 0.2695461,0.2915394 0.4124211,0.6490141 0.4286231,1.0724252 -6e-6,0.2707146 -0.05438,0.5101879 -0.16312,0.7184208 C 10.04763,6.0523162 9.9030204,6.2362595 9.7225532,6.3959042 9.542075,6.5555573 9.3367295,6.708265 9.1065161,6.8540276 8.8762928,6.9997977 8.626986,7.1582898 8.3585949,7.3295041 8.2012556,7.4336263 8.0942446,7.5591473 8.0375615,7.7060677 7.9808707,7.8529939 7.9484782,7.9999171 7.9403838,8.1468379 7.9322819,8.2937637 7.9247622,8.3672253 7.9178247,8.367223 l -1.26331,0 C 6.6336885,8.3672253 6.6232766,8.3244209 6.623279,8.2388096 6.6232766,8.0444569 6.6788067,7.8107679 6.7898694,7.537742 6.9009269,7.2647224 7.0871839,7.0148371 7.3486411,6.7880855 7.4689531,6.6839706 7.5513033,6.3404421 7.8312711,6.1564945 8.1112314,5.9725555 8.2392075,5.7610542 8.3722527,5.6106555 8.5052891,5.4602664 8.4690595,5.3977525 8.4991429,5.1571169 8.4991383,4.8493933 8.4556848,4.8277203 8.2902558,4.604437 8.1248182,4.3811661 8.1411335,4.2872522 7.8287806,4.2340293 7.6552455,4.2062709 7.5429224,4.1258893 7.3740217,4.1258827 6.8534243,4.1258893 6.4208233,4.1862751 6.1547438,4.5287043 6.0043479,4.7114968 5.9013859,4.9301464 5.8458575,5.1846537 5.8018946,5.3813281 5.779914,5.5016432 5.7799155,5.5455994 c -1.5e-6,0.013888 0.00231,0.020829 0.00694,0.020824 z M 7.293111,8.8496408 c 0.2892159,1.8e-6 0.5130714,0.089081 0.6715672,0.2672387 0.1584883,0.1781604 0.2377343,0.3921825 0.2377383,0.6420669 -4e-6,0.2498856 -0.07925,0.4639086 -0.2377383,0.6420666 -0.1584958,0.178159 -0.3823513,0.267239 -0.6715672,0.267239 -0.2799671,0 -0.5015089,-0.09082 -0.664626,-0.272445 C 6.465363,10.214178 6.3838033,10.001891 6.3838055,9.7589464 6.3838033,9.5160033 6.465363,9.3037165 6.628485,9.1220854 6.7916021,8.9404574 7.0131439,8.8496426 7.293111,8.8496408 z"
         style="font-variant:normal;font-stretch:normal;font-family:LilyUPC;-inkscape-font-specification:LilyUPC"
         id="path5891"
         inkscape:connector-curvature="0"
         sodipodi:nodetypes="cccccccccssccccccscsscccccccccccccsscsc" />
    </g>
    <rect
       style="fill:#ffffff;fill-opacity:1;stroke:#000000;stroke-width:0.00542909;stroke-linecap:round;stroke-linejoin:round;stroke-miterlimit:4;stroke-opacity:0.99579827;stroke-dasharray:none;stroke-dashoffset:0"
       id="rect5895"
       width="5.0270581"
       height="2.9625378"
       x="4.9649587"
       y="8.0311184" />
    <path
       sodipodi:type="arc"
       style="fill:#000000;fill-rule:evenodd;stroke:#000000;stroke-width:0;stroke-linecap:butt;stroke-linejoin:miter;stroke-miterlimit:4;stroke-opacity:1;stroke-dasharray:none"
       id="path5897"
       sodipodi:cx="7.3533244"
       sodipodi:cy="11.973925"
       sodipodi:rx="1.178618"
       sodipodi:ry="1.0430248"
       d="m 8.5319424,11.973925 a 1.178618,1.0430248 0 1 1 -2.3572359,0 1.178618,1.0430248 0 1 1 2.3572359,0 z"
       transform="matrix(1.0884956,0,0,1.19,-0.29610827,-2.9947328)" />
  </g>
</svg>
