<?xml version="1.0" encoding="UTF-8" standalone="no"?>
<!-- Created with Inkscape (http://www.inkscape.org/) -->

<svg
   xmlns:dc="http://purl.org/dc/elements/1.1/"
   xmlns:cc="http://creativecommons.org/ns#"
   xmlns:rdf="http://www.w3.org/1999/02/22-rdf-syntax-ns#"
   xmlns:svg="http://www.w3.org/2000/svg"
   xmlns="http://www.w3.org/2000/svg"
   xmlns:sodipodi="http://sodipodi.sourceforge.net/DTD/sodipodi-0.dtd"
   xmlns:inkscape="http://www.inkscape.org/namespaces/inkscape"
   width="32px"
   height="32px"
   id="svg6114"
   version="1.1"
   inkscape:version="0.48.1 r9760"
   sodipodi:docname="icon.svg">
  <defs
     id="defs6116" />
  <sodipodi:namedview
     id="base"
     pagecolor="#ffffff"
     bordercolor="#666666"
     borderopacity="1.0"
     inkscape:pageopacity="0.0"
     inkscape:pageshadow="2"
     inkscape:zoom="21.28125"
     inkscape:cx="15.036711"
     inkscape:cy="16"
     inkscape:current-layer="layer1"
     showgrid="true"
     inkscape:grid-bbox="true"
     inkscape:document-units="px"
     inkscape:snap-global="false"
     inkscape:window-width="2560"
     inkscape:window-height="1305"
     inkscape:window-x="0"
     inkscape:window-y="0"
     inkscape:window-maximized="0">
    <inkscape:grid
       type="xygrid"
       id="grid6122" />
  </sodipodi:namedview>
  <metadata
     id="metadata6119">
    <rdf:RDF>
      <cc:Work
         rdf:about="">
        <dc:format>image/svg+xml</dc:format>
        <dc:type
           rdf:resource="http://purl.org/dc/dcmitype/StillImage" />
        <dc:title></dc:title>
      </cc:Work>
    </rdf:RDF>
  </metadata>
  <g
     id="layer1"
     inkscape:label="Layer 1"
     inkscape:groupmode="layer">
    <g
       transform="matrix(1.7934038,0,0,1.1149658,-10.333116,-5.108279)"
       style="font-size:17.03526306px;font-style:normal;font-variant:normal;font-weight:normal;font-stretch:normal;line-height:125%;letter-spacing:0px;word-spacing:0px;fill:#000000;fill-opacity:1;stroke:#15304f;stroke-width:0;stroke-miterlimit:4;stroke-opacity:1;font-family:Sakkal Majalla;-inkscape-font-specification:Sans"
       id="text4327">
      <path
         d="m 16.044416,19.269053 c -0.04991,-0.144175 0.04082,-0.910711 0.002,-1.140846 -0.03882,-0.230127 -0.0132,-0.561115 -0.0132,-0.788478 -3e-6,-0.354896 0.115729,-0.470652 0.257138,-0.756242 0.141403,-0.285579 0.317467,-0.553141 0.528193,-0.802687 0.210719,-0.249533 0.44085,-0.489369 0.690394,-0.719507 0.249536,-0.230124 0.479667,-0.463027 0.690394,-0.698712 0.210718,-0.235668 0.274209,-0.518626 0.41562,-0.776493 0.1414,-0.257849 0.167073,-0.469665 0.167079,-0.780213 -6e-6,-0.266166 -0.02878,-0.284696 -0.06382,-0.598457 -0.102594,-0.205167 -0.332672,-0.413263 -0.510118,-0.551906 -0.177455,-0.138623 -0.360118,-0.06164 -0.593017,-0.13097 -0.232908,-0.06931 -0.767345,0.198592 -1.027972,0.198581 -0.784212,0.577457 -1.333587,0.583507 -2.021207,1.321025 l 0.0068,-2.270783 c 0.848434,-0.532341 1.727369,-0.7985163 2.636806,-0.7985284 0.421441,1.21e-5 0.817932,0.055465 1.189474,0.1663604 0.371532,0.110918 0.69732,0.275892 0.977365,0.494921 0.280033,0.219051 0.50046,0.492159 0.661281,0.819323 0.160808,0.327184 0.241215,0.707039 0.241222,1.139565 -7e-6,0.410364 -0.0721,0.776356 -0.216268,1.097976 -0.144185,0.321638 -0.325795,0.616926 -0.544829,0.885867 -0.219047,0.268956 -0.456109,0.519882 -0.711189,0.752779 -0.255091,0.232911 -0.492153,0.464428 -0.711189,0.694553 -0.219045,0.230137 -0.400655,0.469973 -0.544829,0.719507 -0.144183,0.249545 -0.216272,0.524039 -0.216268,0.823482 -4e-6,0.25509 -0.08208,0.418445 -0.02107,0.626391 0.061,0.207954 0.05445,0.929317 0.115451,1.073492 z m 0.951252,2.802196 c -0.243998,0 -0.437751,0.09222 -0.626289,-0.08522 -0.182999,-0.17745 -0.274497,-0.393718 -0.274494,-0.648804 -3e-6,-0.26063 0.04646,0.06597 0.229465,-0.10594 0.182993,-0.182994 0.241658,-0.274492 0.491201,-0.274494 0.249536,2e-6 0.105568,-0.0086 0.288568,0.17436 0.182992,0.171907 0.387063,0.128509 0.387068,0.389139 -5e-6,0.255086 0.156158,0.433053 -0.02683,0.610503 -0.188545,0.177451 -0.224696,-0.05954 -0.468687,-0.05954 z"
         style="fill:#000000;stroke:#15304f;font-family:Segoe UI;-inkscape-font-specification:Segoe UI"
         id="path3769"
         inkscape:connector-curvature="0"
         sodipodi:nodetypes="cccssccscccccccccccccssssccccscccccccs" />
    </g>
    <path
       style="fill:#000000;fill-opacity:1;stroke:#15304f;stroke-width:0;stroke-linecap:butt;stroke-linejoin:miter;stroke-miterlimit:4;stroke-opacity:1;stroke-dasharray:none"
       d="m 2.039961,5.974053 -0.00491,14.442477 4.3866568,-2.081414 6.5573742,11.638937 4.522327,-2.20885 -6.693046,-11.384071 3.889205,-2.123893 z"
       id="path4331"
       inkscape:connector-curvature="0"
       sodipodi:nodetypes="cccccccc" />
    <path
       sodipodi:type="arc"
       style="fill:#000000;fill-rule:evenodd;stroke:#000000;stroke-width:0;stroke-linecap:butt;stroke-linejoin:miter;stroke-miterlimit:4;stroke-opacity:1;stroke-dasharray:none"
       id="path6643"
       sodipodi:cx="19.829662"
       sodipodi:cy="21.756241"
       sodipodi:rx="2.3964758"
       sodipodi:ry="1.9265785"
       d="m 22.226138,21.756241 a 2.3964758,1.9265785 0 1 1 -4.792951,0 2.3964758,1.9265785 0 1 1 4.792951,0 z"
       transform="matrix(0.88456623,0,0,1.1100713,2.0665373,-4.0181115)" />
  </g>
</svg>
