<?xml version="1.0" encoding="utf-8"?>
<!-- Generator: Adobe Illustrator 15.0.0, SVG Export Plug-In . SVG Version: 6.00 Build 0)  -->
<!DOCTYPE svg PUBLIC "-//W3C//DTD SVG 1.1//EN" "http://www.w3.org/Graphics/SVG/1.1/DTD/svg11.dtd">
<svg version="1.1" id="Warstwa_1" xmlns="http://www.w3.org/2000/svg" xmlns:xlink="http://www.w3.org/1999/xlink" x="0px" y="0px"
	 width="8.417px" height="8.417px" viewBox="-1.75 -1.729 8.417 8.417" enable-background="new -1.75 -1.729 8.417 8.417"
	 xml:space="preserve">
<rect x="2.469" y="1.868" opacity="0.08" fill="#FFFFFF" enable-background="new    " width="0.6" height="0.6"/>
<rect x="1.869" y="2.468" opacity="0.08" fill="#FFFFFF" enable-background="new    " width="0.6" height="0.6"/>
<rect x="1.269" y="3.068" opacity="0.08" fill="#FFFFFF" enable-background="new    " width="0.6" height="0.6"/>
<rect x="0.669" y="3.668" opacity="0.08" fill="#FFFFFF" enable-background="new    " width="0.6" height="0.6"/>
<rect x="0.069" y="4.268" opacity="0.08" fill="#FFFFFF" enable-background="new    " width="0.6" height="0.6"/>
<rect x="-0.531" y="4.868" opacity="0.08" fill="#FFFFFF" enable-background="new    " width="0.6" height="0.6"/>
<rect x="3.069" y="1.268" opacity="0.08" fill="#FFFFFF" enable-background="new    " width="0.6" height="0.6"/>
<rect x="3.669" y="0.668" opacity="0.08" fill="#FFFFFF" enable-background="new    " width="0.6" height="0.6"/>
<rect x="4.269" y="0.068" opacity="0.08" fill="#FFFFFF" enable-background="new    " width="0.6" height="0.6"/>
<rect x="4.869" y="-0.532" opacity="0.08" fill="#FFFFFF" enable-background="new    " width="0.6" height="0.6"/>
<rect x="5.469" y="-1.132" opacity="0.08" fill="#FFFFFF" enable-background="new    " width="0.6" height="0.599"/>
<rect x="6.069" y="-1.731" opacity="0.08" fill="#FFFFFF" enable-background="new    " width="0.6" height="0.599"/>
<rect x="6.669" y="-2.331" opacity="0.08" fill="#FFFFFF" enable-background="new    " width="0.6" height="0.598"/>
<rect x="7.269" y="-2.931" opacity="0.08" fill="#FFFFFF" enable-background="new    " width="0.6" height="0.598"/>
<rect x="7.869" y="-3.531" opacity="0.08" fill="#FFFFFF" enable-background="new    " width="0.6" height="0.598"/>
<rect x="-1.131" y="5.468" opacity="0.08" fill="#FFFFFF" enable-background="new    " width="0.6" height="0.6"/>
<rect x="-1.731" y="6.068" opacity="0.08" fill="#FFFFFF" enable-background="new    " width="0.6" height="0.6"/>
<rect x="-2.331" y="6.668" opacity="0.08" fill="#FFFFFF" enable-background="new    " width="0.6" height="0.6"/>
<rect x="-2.931" y="7.268" opacity="0.08" fill="#FFFFFF" enable-background="new    " width="0.6" height="0.6"/>
<rect x="-3.531" y="7.868" opacity="0.08" fill="#FFFFFF" enable-background="new    " width="0.6" height="0.6"/>
</svg>
