<?xml version="1.0" encoding="utf-8"?>
<!-- Generator: Adobe Illustrator 23.1.0, SVG Export Plug-In . SVG Version: 6.00 Build 0)  -->
<svg version="1.1" id="Layer_1" xmlns="http://www.w3.org/2000/svg" xmlns:xlink="http://www.w3.org/1999/xlink" x="0px" y="0px"
	 viewBox="0 0 48 48" style="enable-background:new 0 0 48 48;" xml:space="preserve">
<style type="text/css">
	.st0{fill:#FFFFFF;stroke:#000000;stroke-linecap:round;stroke-linejoin:round;stroke-miterlimit:10;}
	.st1{fill:none;stroke:#000000;stroke-width:0.8;stroke-linecap:round;stroke-linejoin:round;stroke-miterlimit:10;}
	.st2{fill:#E58973;stroke:#000000;stroke-linecap:round;stroke-linejoin:round;stroke-miterlimit:10;}
	.st3{fill:#80BFC3;stroke:#000000;stroke-linecap:round;stroke-linejoin:round;stroke-miterlimit:10;}
	.st4{fill:none;stroke:#000000;stroke-linecap:round;stroke-linejoin:round;stroke-miterlimit:10;}
</style>
<g>
	<path class="st0" d="M28.37,18.85H3.71c-0.67,0-1.21-0.54-1.21-1.21V3.78c0-0.67,0.54-1.21,1.21-1.21h24.66
		c0.67,0,1.21,0.54,1.21,1.21v13.87C29.57,18.31,29.03,18.85,28.37,18.85z"/>
	<g>
		<path class="st1" d="M19.47,12.94H12.6l-1.57,3.39h-0.37l5.22-11.24h0.32l5.22,11.24h-0.37L19.47,12.94z M19.33,12.64l-3.29-7.11
			l-3.29,7.11H19.33z"/>
	</g>
</g>
<g>
	<path class="st2" d="M44.29,32.61H19.63c-0.67,0-1.21-0.54-1.21-1.21V17.54c0-0.67,0.54-1.21,1.21-1.21h24.66
		c0.67,0,1.21,0.54,1.21,1.21v13.87C45.5,32.07,44.96,32.61,44.29,32.61z"/>
	<g>
		<path class="st1" d="M36.38,29.79v0.31h-8.83v-0.24l8.22-10.69h-8.14v-0.31h8.59v0.24L28,29.79H36.38z"/>
	</g>
</g>
<g>
	<path class="st3" d="M28.37,45.43H3.71c-0.67,0-1.21-0.54-1.21-1.21V30.35c0-0.67,0.54-1.21,1.21-1.21h24.66
		c0.67,0,1.21,0.54,1.21,1.21v13.87C29.57,44.89,29.03,45.43,28.37,45.43z"/>
	<path class="st4" d="M8.09,41.88c0,0,5.12,1.5,7.28-4.25c0.93-2.46-0.09-3.93-1.55-4.8c-2.15-1.28-4.92,0.06-5.34,2.53l0,0
		c-0.26,1.51,0.45,3.02,1.79,3.75c1.94,1.06,5.16,2.3,9.62,2.3c7.79,0,3.82-8.42,3.82-8.42"/>
</g>
</svg>
