<?xml version="1.0" encoding="UTF-8" standalone="no"?>
<!-- Created with Inkscape (http://www.inkscape.org/) -->

<svg
   xmlns:dc="http://purl.org/dc/elements/1.1/"
   xmlns:cc="http://creativecommons.org/ns#"
   xmlns:rdf="http://www.w3.org/1999/02/22-rdf-syntax-ns#"
   xmlns:svg="http://www.w3.org/2000/svg"
   xmlns="http://www.w3.org/2000/svg"
   xmlns:sodipodi="http://sodipodi.sourceforge.net/DTD/sodipodi-0.dtd"
   xmlns:inkscape="http://www.inkscape.org/namespaces/inkscape"
   width="16px"
   height="16px"
   id="svg5368"
   version="1.1"
   inkscape:version="0.48.2 r9819"
   sodipodi:docname="New document 10">
  <defs
     id="defs5370" />
  <sodipodi:namedview
     id="base"
     pagecolor="#ffffff"
     bordercolor="#666666"
     borderopacity="1.0"
     inkscape:pageopacity="0.0"
     inkscape:pageshadow="2"
     inkscape:zoom="47.9375"
     inkscape:cx="9.3520831"
     inkscape:cy="11.485074"
     inkscape:current-layer="layer1"
     showgrid="true"
     inkscape:grid-bbox="true"
     inkscape:document-units="px"
     inkscape:snap-global="false"
     inkscape:window-width="1566"
     inkscape:window-height="987"
     inkscape:window-x="338"
     inkscape:window-y="0"
     inkscape:window-maximized="0">
    <inkscape:grid
       type="xygrid"
       id="grid5376" />
  </sodipodi:namedview>
  <metadata
     id="metadata5373">
    <rdf:RDF>
      <cc:Work
         rdf:about="">
        <dc:format>image/svg+xml</dc:format>
        <dc:type
           rdf:resource="http://purl.org/dc/dcmitype/StillImage" />
        <dc:title></dc:title>
      </cc:Work>
    </rdf:RDF>
  </metadata>
  <g
     id="layer1"
     inkscape:label="Layer 1"
     inkscape:groupmode="layer">
    <g
       transform="matrix(1.0220329,0.00110078,-0.00105383,0.97844093,0,0)"
       style="font-size:36.39824295px;font-style:normal;font-weight:normal;line-height:125%;letter-spacing:0px;word-spacing:0px;fill:#000000;fill-opacity:1;stroke:none;font-family:Sans"
       id="text5890">
      <path
         d="m 9.2742092,9.7396108 c 0.1260668,1.1399862 0.1989212,1.6966532 0.5662292,2.3305372 0.3672906,0.633892 0.5156516,1.166714 1.4454936,1.874501 0.337669,0.473938 0.555301,0.631113 1.081832,0.769527 0.200091,0.288025 0.6446,0.250574 0.905276,0.250573 0.118472,1e-6 0.204373,-0.003 0.257702,-0.0089 0.05331,-0.0059 0.121434,-0.02073 0.204385,-0.04443 l 0,1.119673 c -0.0948,0.03555 -0.225131,0.06813 -0.390997,0.09775 -0.165889,0.02962 -0.343614,0.05628 -0.533178,0.07998 -0.189584,0.0237 -0.385083,0.04147 -0.586495,0.05332 -0.201432,0.01185 -0.379158,0.01777 -0.533177,0.01777 -0.4384,0 -0.832358,-0.07405 -1.181877,-0.222157 C 10.159868,15.909658 9.8221891,15.672691 9.4963664,15.34686 9.1705285,15.02103 8.8417361,14.597451 8.5099882,14.07612 8.1782272,13.554794 7.8109275,12.920906 7.4080883,12.174454 7.0644799,12.731332 6.7475359,13.261547 6.4572553,13.7651 6.1669656,14.268658 5.8707562,14.707048 5.5686263,15.080271 5.2664891,15.453496 4.9406588,15.749705 4.5911344,15.9689 c -0.3495297,0.219195 -0.7494123,0.328793 -1.1996491,0.328793 -0.1895755,0 -0.429505,-0.01777 -0.7197895,-0.05332 -0.2902859,-0.03555 -0.5124429,-0.08886 -0.6664717,-0.159953 l 0,-1.137445 0.1421806,0 c 0.4028446,10e-7 0.3223595,-0.09784 0.6734498,-0.03334 0.561433,0.103144 1.3717895,-0.449556 1.7388283,-0.791669 0.380076,-0.354266 1.4159292,-0.817292 1.6874101,-1.429556 0.2376621,-0.535993 0.2627137,-0.13642 0.5629846,-1.62726 C 6.4186082,9.8646582 5.8855569,9.386487 5.5775126,8.8509818 5.2694512,8.305964 4.9880523,7.8557257 4.7333151,7.5002658 4.4785722,7.1448233 4.2327184,6.8811969 3.995753,6.709386 3.7587835,6.5375941 3.5099676,6.4516933 3.2493047,6.4516836 l -0.2843613,0 0,-1.1196725 c 0.1184827,-0.023686 0.2725116,-0.050345 0.4620871,-0.079977 0.1895725,-0.02961 0.3850706,-0.053307 0.5864951,-0.07109 0.2014203,-0.017762 0.3880322,-0.032572 0.5598363,-0.044431 0.1717987,-0.011837 0.3050929,-0.017761 0.399883,-0.017773 0.3909933,1.11e-5 0.7316341,0.050367 1.0219233,0.151067 0.2902811,0.1007221 0.5627937,0.2754856 0.8175387,0.5242911 0.2547351,0.2488262 0.5124373,0.5805807 0.7731072,0.9952644 0.2606586,0.4147025 0.5627921,0.936031 0.9064016,1.563987 C 8.8239636,7.7964839 9.1260971,7.3136626 9.3986172,6.9048844 9.6711223,6.4961247 9.9258624,6.1584461 10.162838,5.8918473 10.399797,5.6252692 10.636765,5.429771 10.873741,5.3053522 c 0.236959,-0.124397 0.497623,-0.186601 0.781994,-0.1866121 0.189564,1.11e-5 0.420607,0.020746 0.69313,0.062204 0.272503,0.04148 0.497622,0.09776 0.675358,0.1688395 l 0,1.1552176 -0.390996,0 c -0.272524,9.7e-6 -0.533188,0.05629 -0.781994,0.1688395 0,0 -0.751721,0.043615 -1.018366,0.2403102 -0.29829,0.2200387 -0.830455,0.9155129 -1.1207318,1.3242738 -0.2902938,0.4087769 -0.4703526,0.8452497 -0.437926,1.5011861 z"
         style="font-variant:normal;font-stretch:normal;font-family:MoolBoran;-inkscape-font-specification:MoolBoran"
         id="path5898"
         inkscape:connector-curvature="0"
         sodipodi:nodetypes="ccccccccccssccccsssssccsssscccccccccccccccsscccccccssc" />
    </g>
    <path
       style="fill:#000000;fill-opacity:1;stroke:#000000;stroke-width:0;stroke-linecap:round;stroke-linejoin:round;stroke-miterlimit:4;stroke-opacity:1;stroke-dashoffset:0"
       d="m 6.028683,1.0221643 6.946545,0.02086 -2.002608,1.9400261 -6.9674051,0.02086 z"
       id="rect5894"
       inkscape:connector-curvature="0"
       sodipodi:nodetypes="ccccc" />
  </g>
</svg>
