<?xml version="1.0" encoding="UTF-8" standalone="no"?>
<!-- Created with Inkscape (http://www.inkscape.org/) -->

<svg
   xmlns:dc="http://purl.org/dc/elements/1.1/"
   xmlns:cc="http://creativecommons.org/ns#"
   xmlns:rdf="http://www.w3.org/1999/02/22-rdf-syntax-ns#"
   xmlns:svg="http://www.w3.org/2000/svg"
   xmlns="http://www.w3.org/2000/svg"
   xmlns:sodipodi="http://sodipodi.sourceforge.net/DTD/sodipodi-0.dtd"
   xmlns:inkscape="http://www.inkscape.org/namespaces/inkscape"
   width="16px"
   height="16px"
   id="svg4317"
   version="1.1"
   inkscape:version="0.48.2 r9819"
   sodipodi:docname="ajaxoader.svg"
   inkscape:export-filename="C:\Users\ajay\Desktop\new work\ajaxoader.png"
   inkscape:export-xdpi="90"
   inkscape:export-ydpi="90">
  <defs
     id="defs4319" />
  <sodipodi:namedview
     id="base"
     pagecolor="#ffffff"
     bordercolor="#666666"
     borderopacity="1.0"
     inkscape:pageopacity="0.0"
     inkscape:pageshadow="2"
     inkscape:zoom="47.9375"
     inkscape:cx="8"
     inkscape:cy="7.1655802"
     inkscape:current-layer="layer1"
     showgrid="true"
     inkscape:grid-bbox="true"
     inkscape:document-units="px"
     inkscape:snap-global="false"
     inkscape:window-width="1549"
     inkscape:window-height="987"
     inkscape:window-x="356"
     inkscape:window-y="0"
     inkscape:window-maximized="0">
    <inkscape:grid
       type="xygrid"
       id="grid4325" />
  </sodipodi:namedview>
  <metadata
     id="metadata4322">
    <rdf:RDF>
      <cc:Work
         rdf:about="">
        <dc:format>image/svg+xml</dc:format>
        <dc:type
           rdf:resource="http://purl.org/dc/dcmitype/StillImage" />
        <dc:title></dc:title>
      </cc:Work>
    </rdf:RDF>
  </metadata>
  <g
     id="layer1"
     inkscape:label="Layer 1"
     inkscape:groupmode="layer">
    <path
       sodipodi:type="arc"
       style="fill:#000000;fill-rule:evenodd;stroke:#000000;stroke-width:0;stroke-linecap:butt;stroke-linejoin:miter;stroke-miterlimit:4;stroke-opacity:1;stroke-dasharray:none"
       id="path4835"
       sodipodi:cx="5.6010432"
       sodipodi:cy="4.1095176"
       sodipodi:rx="0.90743154"
       sodipodi:ry="2.2112126"
       d="m 6.5084748,4.1095176 a 0.90743154,2.2112126 0 1 1 -1.8148631,0 0.90743154,2.2112126 0 1 1 1.8148631,0 z"
       transform="matrix(0.79902354,-0.39952729,0.47395518,0.94997987,-0.43830406,2.1860792)" />
    <path
       sodipodi:type="arc"
       style="fill:#b3b3b3;fill-rule:evenodd;stroke:#000000;stroke-width:0;stroke-linecap:butt;stroke-linejoin:miter;stroke-miterlimit:4;stroke-opacity:1;stroke-dasharray:none"
       id="path4837"
       sodipodi:cx="7.5932202"
       sodipodi:cy="4.1199479"
       sodipodi:rx="0.70925683"
       sodipodi:ry="2.0130379"
       d="m 8.3024771,4.1199479 a 0.70925683,2.0130379 0 1 1 -1.4185137,0 0.70925683,2.0130379 0 1 1 1.4185137,0 z"
       transform="matrix(-0.10105856,1.1046794,-1.17242,-0.10749396,18.238113,0.72609412)" />
    <path
       sodipodi:type="arc"
       style="fill:#000000;fill-rule:evenodd;stroke:#000000;stroke-width:0;stroke-linecap:butt;stroke-linejoin:miter;stroke-miterlimit:4;stroke-opacity:1;stroke-dasharray:none"
       id="path4839"
       sodipodi:cx="10.534551"
       sodipodi:cy="3.9322033"
       sodipodi:rx="1.0013038"
       sodipodi:ry="1.9713168"
       d="m 11.535854,3.9322033 a 1.0013038,1.9713168 0 1 1 -2.0026071,0 1.0013038,1.9713168 0 1 1 2.0026071,0 z"
       transform="matrix(0.80941203,0,0,1.2035786,-0.4789957,-1.4213589)" />
    <path
       sodipodi:type="arc"
       style="fill:#999999;fill-rule:evenodd;stroke:#000000;stroke-width:0;stroke-linecap:butt;stroke-linejoin:miter;stroke-miterlimit:4;stroke-opacity:1;stroke-dasharray:none"
       id="path4841"
       sodipodi:cx="14.237288"
       sodipodi:cy="4.7144718"
       sodipodi:rx="0.53194261"
       sodipodi:ry="2.2112126"
       d="m 14.769231,4.7144718 a 0.53194261,2.2112126 0 1 1 -1.063885,0 0.53194261,2.2112126 0 1 1 1.063885,0 z"
       transform="matrix(0.87538871,-0.98349516,0.79606935,0.71013942,-4.7177852,21.772066)" />
    <path
       sodipodi:type="arc"
       style="fill:#4d4d4d;fill-rule:evenodd;stroke:#000000;stroke-width:0;stroke-linecap:butt;stroke-linejoin:miter;stroke-miterlimit:4;stroke-opacity:1;stroke-dasharray:none"
       id="path4843"
       sodipodi:cx="8.458931"
       sodipodi:cy="9.3559322"
       sodipodi:rx="0.57366365"
       sodipodi:ry="2.1173403"
       d="m 9.0325946,9.3559322 a 0.57366365,2.1173403 0 1 1 -1.1473273,0 0.57366365,2.1173403 0 1 1 1.1473273,0 z"
       transform="matrix(1.2057244,-0.4429841,0.38164089,1.0410673,-4.3711706,6.4892832)" />
    <path
       sodipodi:type="arc"
       style="fill:#333333;fill-rule:evenodd;stroke:#000000;stroke-width:0;stroke-linecap:butt;stroke-linejoin:miter;stroke-miterlimit:4;stroke-opacity:1;stroke-dasharray:none"
       id="path4845"
       sodipodi:cx="2.8787484"
       sodipodi:cy="10.023468"
       sodipodi:rx="0.83441985"
       sodipodi:ry="2.3468058"
       d="m 3.7131683,10.023468 a 0.83441985,2.3468058 0 1 1 -1.6688397,0 0.83441985,2.3468058 0 1 1 1.6688397,0 z"
       transform="matrix(0.74070323,0.50775621,-0.57056902,0.83418271,8.6014657,1.7986194)" />
    <path
       sodipodi:type="arc"
       style="fill:#4d4d4d;fill-rule:evenodd;stroke:#000000;stroke-width:0;stroke-linecap:butt;stroke-linejoin:miter;stroke-miterlimit:4;stroke-opacity:1;stroke-dasharray:none"
       id="path4847"
       sodipodi:cx="11.045632"
       sodipodi:cy="10.576271"
       sodipodi:rx="0.97001302"
       sodipodi:ry="2.2112126"
       d="m 12.015645,10.576271 a 0.97001302,2.2112126 0 1 1 -1.940026,0 0.97001302,2.2112126 0 1 1 1.940026,0 z"
       transform="matrix(0.81020325,0,0,1.0674421,-1.8346766,1.3279373)" />
    <path
       sodipodi:type="arc"
       style="fill:#1a1a1a;fill-rule:evenodd;stroke:#000000;stroke-width:0;stroke-linecap:butt;stroke-linejoin:miter;stroke-miterlimit:4;stroke-opacity:1;stroke-dasharray:none"
       id="path4849"
       sodipodi:cx="1.1160365"
       sodipodi:cy="4.5893092"
       sodipodi:rx="0.30247718"
       sodipodi:ry="1.7731421"
       d="m 1.4185137,4.5893092 a 0.30247718,1.7731421 0 1 1 -0.60495435,0 0.30247718,1.7731421 0 1 1 0.60495435,0 z"
       transform="matrix(1.650896,-2.0609252,1.0373306,0.83279608,-2.3497559,3.6703636)" />
    <path
       sodipodi:type="arc"
       style="fill:#1a1a1a;fill-rule:evenodd;stroke:#000000;stroke-width:0;stroke-linecap:butt;stroke-linejoin:miter;stroke-miterlimit:4;stroke-opacity:1;stroke-dasharray:none"
       id="path4851"
       sodipodi:cx="13.694915"
       sodipodi:cy="9.1056061"
       sodipodi:rx="0.78226858"
       sodipodi:ry="2.3050847"
       d="m 14.477183,9.1056061 a 0.78226858,2.3050847 0 1 1 -1.564537,0 0.78226858,2.3050847 0 1 1 1.564537,0 z"
       transform="matrix(-0.04013744,0.97350851,-1.0166429,-0.04200899,13.163737,-5.2863626)" />
    <path
       sodipodi:type="arc"
       style="fill:#333333;fill-rule:evenodd;stroke:#000000;stroke-width:0;stroke-linecap:butt;stroke-linejoin:miter;stroke-miterlimit:4;stroke-opacity:1;stroke-dasharray:none"
       id="path4853"
       sodipodi:cx="5.7470665"
       sodipodi:cy="11.014341"
       sodipodi:rx="0.90743154"
       sodipodi:ry="2.5867014"
       d="m 6.654498,11.014341 a 0.90743154,2.5867014 0 1 1 -1.814863,0 0.90743154,2.5867014 0 1 1 1.814863,0 z"
       transform="matrix(-0.32305232,-0.76048657,0.83441221,-0.35524336,-3.6945528,18.11022)"
       inkscape:transform-center-x="8.8660214"
       inkscape:transform-center-y="-6.3434176" />
  </g>
</svg>
