<?xml version="1.0" encoding="UTF-8" standalone="no"?>
<!-- Created with Inkscape (http://www.inkscape.org/) -->

<svg
   xmlns:dc="http://purl.org/dc/elements/1.1/"
   xmlns:cc="http://creativecommons.org/ns#"
   xmlns:rdf="http://www.w3.org/1999/02/22-rdf-syntax-ns#"
   xmlns:svg="http://www.w3.org/2000/svg"
   xmlns="http://www.w3.org/2000/svg"
   xmlns:sodipodi="http://sodipodi.sourceforge.net/DTD/sodipodi-0.dtd"
   xmlns:inkscape="http://www.inkscape.org/namespaces/inkscape"
   width="16px"
   height="16px"
   id="svg4287"
   version="1.1"
   inkscape:version="0.48.2 r9819"
   sodipodi:docname="New document 6">
  <defs
     id="defs4289" />
  <sodipodi:namedview
     id="base"
     pagecolor="#ffffff"
     bordercolor="#666666"
     borderopacity="1.0"
     inkscape:pageopacity="0.0"
     inkscape:pageshadow="2"
     inkscape:zoom="47.9375"
     inkscape:cx="8"
     inkscape:cy="8"
     inkscape:current-layer="layer1"
     showgrid="true"
     inkscape:grid-bbox="true"
     inkscape:document-units="px"
     inkscape:snap-global="false"
     inkscape:window-width="1565"
     inkscape:window-height="987"
     inkscape:window-x="343"
     inkscape:window-y="0"
     inkscape:window-maximized="0">
    <inkscape:grid
       type="xygrid"
       id="grid4295" />
  </sodipodi:namedview>
  <metadata
     id="metadata4292">
    <rdf:RDF>
      <cc:Work
         rdf:about="">
        <dc:format>image/svg+xml</dc:format>
        <dc:type
           rdf:resource="http://purl.org/dc/dcmitype/StillImage" />
        <dc:title></dc:title>
      </cc:Work>
    </rdf:RDF>
  </metadata>
  <g
     id="layer1"
     inkscape:label="Layer 1"
     inkscape:groupmode="layer">
    <path
       sodipodi:type="arc"
       style="fill:#ffffff;fill-rule:evenodd;stroke:#000000;stroke-width:0.5;stroke-linecap:butt;stroke-linejoin:miter;stroke-miterlimit:4;stroke-opacity:1;stroke-dasharray:none"
       id="path4805"
       sodipodi:cx="6.7692308"
       sodipodi:cy="3.4002607"
       sodipodi:rx="4.8083444"
       sodipodi:ry="1.3767927"
       d="m 11.577575,3.4002607 a 4.8083444,1.3767927 0 1 1 -9.6166885,0 4.8083444,1.3767927 0 1 1 9.6166885,0 z"
       transform="matrix(1.1703553,0,0,1.5646503,0.06716419,7.1647877)" />
    <path
       sodipodi:type="arc"
       style="fill:#ffffff;fill-rule:evenodd;stroke:#000000;stroke-width:0.5;stroke-linecap:butt;stroke-linejoin:miter;stroke-miterlimit:4;stroke-opacity:1;stroke-dasharray:none"
       id="path4807"
       sodipodi:cx="7.415906"
       sodipodi:cy="9.011734"
       sodipodi:rx="4.9126468"
       sodipodi:ry="1.1056063"
       d="m 12.328553,9.011734 a 4.9126468,1.1056063 0 1 1 -9.8252938,0 4.9126468,1.1056063 0 1 1 9.8252938,0 z"
       transform="matrix(1.1475203,0,0,1.910208,-0.52033253,-8.7032023)" />
    <path
       sodipodi:type="arc"
       style="fill:#ffffff;fill-rule:evenodd;stroke:#000000;stroke-width:0.5;stroke-linecap:butt;stroke-linejoin:miter;stroke-miterlimit:4;stroke-opacity:1;stroke-dasharray:none"
       id="path4809"
       sodipodi:cx="7.6140809"
       sodipodi:cy="6.2581487"
       sodipodi:rx="5.2359843"
       sodipodi:ry="1.8983051"
       d="m 12.850065,6.2581487 a 5.2359843,1.8983051 0 1 1 -10.4719684,0 5.2359843,1.8983051 0 1 1 10.4719684,0 z"
       transform="matrix(1.0856842,0,0,1.1649095,-0.27691812,-2.7738789)" />
    <path
       style="fill:#000000;fill-opacity:1;stroke:#000000;stroke-width:0;stroke-linecap:round;stroke-linejoin:round;stroke-miterlimit:4;stroke-opacity:0.99159666"
       d="m 2.0182778,4.5081848 0.5475631,-0.2317833 0,8.9700135 -0.4830026,-0.989714 C 2.0202908,9.7797625 1.9839371,7.163528 2.0182778,4.5081848 z"
       id="rect4813"
       inkscape:connector-curvature="0"
       sodipodi:nodetypes="ccccc" />
    <path
       style="fill:#000000;fill-opacity:1;stroke:#000000;stroke-width:0;stroke-linecap:round;stroke-linejoin:round;stroke-miterlimit:4;stroke-opacity:0.99159666"
       d="m 13.434159,4.3807039 0.500652,0 c 0.05293,2.7560277 0.05827,5.4348333 0,8.0104301 l -0.500652,0 z"
       id="rect4815"
       inkscape:connector-curvature="0"
       sodipodi:nodetypes="ccccc" />
    <path
       style="fill:#000000;fill-opacity:1;stroke:#000000;stroke-width:0.2;stroke-linecap:round;stroke-linejoin:round;stroke-miterlimit:4;stroke-opacity:0.99159666;stroke-dasharray:none"
       d="M 2.3572362,4.4641459 C 6.60051,5.9257222 10.223628,5.565589 13.580182,4.4224249 l -0.02086,0.3546285 C 10.261719,5.8576884 6.776717,6.4698247 2.3780967,4.7979139 z"
       id="rect4819"
       inkscape:connector-curvature="0"
       sodipodi:nodetypes="ccccc" />
    <path
       style="fill:#000000;fill-opacity:1;stroke:#000000;stroke-width:0.2;stroke-linecap:round;stroke-linejoin:round;stroke-miterlimit:4;stroke-opacity:0.99159666;stroke-dasharray:none"
       d="m 2.7118643,8.1981749 c 4.2392407,1.5398259 7.7011387,1.1158403 10.8891777,0 l 0.06258,0.3129075 c -3.320801,1.2151791 -6.9035247,1.5572776 -11.0560622,0 z"
       id="rect4821"
       inkscape:connector-curvature="0"
       sodipodi:nodetypes="ccccc" />
    <path
       style="fill:#000000;fill-opacity:1;stroke:#000000;stroke-width:0.2;stroke-linecap:round;stroke-linejoin:round;stroke-miterlimit:4;stroke-opacity:0.99159666;stroke-dasharray:none"
       d="m 2.7744459,12.119948 c 4.0066568,1.796514 8.2632541,1.158983 10.7848751,0.04172 l 0.104303,0.208605 c -2.65222,1.222131 -7.1592235,1.989461 -11.014341,-0.02086 z"
       id="rect4823"
       inkscape:connector-curvature="0"
       sodipodi:nodetypes="ccccc" />
  </g>
</svg>
