<?xml version="1.0" encoding="UTF-8" standalone="no"?>
<!-- Created with Inkscape (http://www.inkscape.org/) -->

<svg
   xmlns:dc="http://purl.org/dc/elements/1.1/"
   xmlns:cc="http://creativecommons.org/ns#"
   xmlns:rdf="http://www.w3.org/1999/02/22-rdf-syntax-ns#"
   xmlns:svg="http://www.w3.org/2000/svg"
   xmlns="http://www.w3.org/2000/svg"
   xmlns:sodipodi="http://sodipodi.sourceforge.net/DTD/sodipodi-0.dtd"
   xmlns:inkscape="http://www.inkscape.org/namespaces/inkscape"
   width="16px"
   height="16px"
   id="svg2985"
   version="1.1"
   inkscape:version="0.48.2 r9819"
   sodipodi:docname="New document 2">
  <defs
     id="defs2987" />
  <sodipodi:namedview
     id="base"
     pagecolor="#ffffff"
     bordercolor="#666666"
     borderopacity="1.0"
     inkscape:pageopacity="0.0"
     inkscape:pageshadow="2"
     inkscape:zoom="47.9375"
     inkscape:cx="7.5723598"
     inkscape:cy="8.5297302"
     inkscape:current-layer="layer1"
     showgrid="true"
     inkscape:grid-bbox="true"
     inkscape:document-units="px"
     inkscape:snap-global="false"
     inkscape:window-width="1555"
     inkscape:window-height="987"
     inkscape:window-x="347"
     inkscape:window-y="0"
     inkscape:window-maximized="0">
    <inkscape:grid
       type="xygrid"
       id="grid2993" />
  </sodipodi:namedview>
  <metadata
     id="metadata2990">
    <rdf:RDF>
      <cc:Work
         rdf:about="">
        <dc:format>image/svg+xml</dc:format>
        <dc:type
           rdf:resource="http://purl.org/dc/dcmitype/StillImage" />
        <dc:title></dc:title>
      </cc:Work>
    </rdf:RDF>
  </metadata>
  <g
     id="layer1"
     inkscape:label="Layer 1"
     inkscape:groupmode="layer">
    <path
       style="fill:#ffffff;fill-rule:evenodd;stroke:#000000;stroke-width:0.71716553;stroke-linecap:butt;stroke-linejoin:miter;stroke-miterlimit:4;stroke-opacity:1"
       d="m 11.32658,8.4652865 c -0.09606,0.5163758 -0.998289,1.5975155 -1.289138,1.9915015 -0.895701,1.213333 -0.4536143,2.351158 -1.554391,3.112547 -0.4342748,0.300381 -1.0564762,-0.284801 -1.5955689,-0.284801 -0.6453313,0 -1.2018394,0.467049 -1.7462564,0.14201 C 3.9832792,12.735201 3.9002427,11.486645 3.40114,10.056611 3.2545763,9.6366745 2.6928385,8.8195633 2.5749146,8.4652865 2.0240206,6.8102449 2.3550512,5.5745765 4.1036223,4.3285293 c 0.906917,-0.646277 1.928608,0.2488691 3.015832,0.2488691 1.1562081,0 1.8286424,-0.7509204 2.8212857,-0.089491 1.382846,0.9214329 1.685371,2.3671918 1.38584,3.9773796 z"
       id="path3763"
       inkscape:connector-curvature="0"
       sodipodi:nodetypes="sssssssssss" />
    <path
       style="fill:#ffffff;fill-rule:evenodd;stroke:#000000;stroke-width:0.465424;stroke-linecap:butt;stroke-linejoin:miter;stroke-miterlimit:4;stroke-opacity:1;stroke-dasharray:none"
       d="M 14.776192,4.6912263 C 14.52177,6.0390619 12.581655,6.6561448 10.699771,4.5719203 9.8253116,3.6034389 8.7003373,4.241254 7.8265002,4.2542369 7.1540706,4.2642276 7.1836221,3.7807166 7.2607413,3.5367526 7.4212191,3.0290854 8.4506248,1.8243964 10.643398,2.4023154 c 1.373785,0.3620703 1.704769,1.8740996 2.443899,2.1466179 0.813342,0.2998794 1.737594,-0.1156886 1.688895,0.142293 z"
       id="path3765"
       inkscape:connector-curvature="0"
       sodipodi:nodetypes="sssssss" />
    <path
       style="fill:#000000;stroke:#000000;stroke-width:0;stroke-linecap:butt;stroke-linejoin:miter;stroke-miterlimit:4;stroke-opacity:1;stroke-dasharray:none"
       d="M 5.1055163,1.9999129 C 5.29633,1.506622 5.699196,1.6141459 6.223199,2.0648912 l 1.3074778,2.6857835 z"
       id="path3768"
       inkscape:connector-curvature="0"
       sodipodi:nodetypes="cccc" />
  </g>
</svg>
