<?xml version="1.0" encoding="UTF-8" standalone="no"?>
<!-- Created with Inkscape (http://www.inkscape.org/) -->

<svg
   xmlns:dc="http://purl.org/dc/elements/1.1/"
   xmlns:cc="http://creativecommons.org/ns#"
   xmlns:rdf="http://www.w3.org/1999/02/22-rdf-syntax-ns#"
   xmlns:svg="http://www.w3.org/2000/svg"
   xmlns="http://www.w3.org/2000/svg"
   xmlns:sodipodi="http://sodipodi.sourceforge.net/DTD/sodipodi-0.dtd"
   xmlns:inkscape="http://www.inkscape.org/namespaces/inkscape"
   width="16px"
   height="16px"
   id="svg3771"
   version="1.1"
   inkscape:version="0.48.2 r9819"
   sodipodi:docname="New document 4">
  <defs
     id="defs3773" />
  <sodipodi:namedview
     id="base"
     pagecolor="#ffffff"
     bordercolor="#666666"
     borderopacity="1.0"
     inkscape:pageopacity="0.0"
     inkscape:pageshadow="2"
     inkscape:zoom="47.9375"
     inkscape:cx="8"
     inkscape:cy="8"
     inkscape:current-layer="layer1"
     showgrid="true"
     inkscape:grid-bbox="true"
     inkscape:document-units="px"
     inkscape:snap-global="false"
     inkscape:window-width="1543"
     inkscape:window-height="987"
     inkscape:window-x="360"
     inkscape:window-y="0"
     inkscape:window-maximized="0">
    <inkscape:grid
       type="xygrid"
       id="grid3779" />
  </sodipodi:namedview>
  <metadata
     id="metadata3776">
    <rdf:RDF>
      <cc:Work
         rdf:about="">
        <dc:format>image/svg+xml</dc:format>
        <dc:type
           rdf:resource="http://purl.org/dc/dcmitype/StillImage" />
        <dc:title></dc:title>
      </cc:Work>
    </rdf:RDF>
  </metadata>
  <g
     id="layer1"
     inkscape:label="Layer 1"
     inkscape:groupmode="layer">
    <rect
       style="fill:#1a1a1a;fill-opacity:1;stroke:#000000;stroke-width:0;stroke-linecap:round;stroke-linejoin:round;stroke-miterlimit:4;stroke-opacity:0.99159666000000002;stroke-dasharray:none"
       id="rect4289"
       width="13.962869"
       height="13.983728"
       x="1.0289963"
       y="1.0289963"
       ry="0" />
    <path
       sodipodi:type="arc"
       style="fill:#ffffff;fill-rule:evenodd;stroke:#000000;stroke-width:0;stroke-linecap:butt;stroke-linejoin:miter;stroke-miterlimit:4;stroke-opacity:1;stroke-dasharray:none"
       id="path4291"
       sodipodi:cx="4.2868319"
       sodipodi:cy="4.1408086"
       sodipodi:rx="1.178618"
       sodipodi:ry="0.97001302"
       d="m 5.4654498,4.1408086 a 1.178618,0.97001302 0 1 1 -2.3572359,0 1.178618,0.97001302 0 1 1 2.3572359,0 z"
       transform="matrix(0.8495575,0,0,1.0322582,0.36330493,-0.29002819)" />
    <path
       sodipodi:type="arc"
       style="fill:#ffffff;fill-rule:evenodd;stroke:#000000;stroke-width:0;stroke-linecap:butt;stroke-linejoin:miter;stroke-miterlimit:4;stroke-opacity:1;stroke-dasharray:none"
       id="path4293"
       sodipodi:cx="8.6675358"
       sodipodi:cy="5.2464147"
       sodipodi:rx="1.3246415"
       sodipodi:ry="1.1577575"
       d="m 9.9921772,5.2464147 a 1.3246415,1.1577575 0 1 1 -2.6492829,0 1.3246415,1.1577575 0 1 1 2.6492829,0 z"
       transform="matrix(0.7480315,0,0,0.86486487,1.5372706,-0.511364)" />
    <path
       sodipodi:type="arc"
       style="fill:#ffffff;fill-rule:evenodd;stroke:#000000;stroke-width:0;stroke-linecap:butt;stroke-linejoin:miter;stroke-miterlimit:4;stroke-opacity:1;stroke-dasharray:none"
       id="path4295"
       sodipodi:cx="3.3794003"
       sodipodi:cy="8.2190351"
       sodipodi:rx="0.89700133"
       sodipodi:ry="1.1681877"
       d="m 4.2764016,8.2190351 a 0.89700133,1.1681877 0 1 1 -1.7940027,0 0.89700133,1.1681877 0 1 1 1.7940027,0 z"
       transform="matrix(1.0930232,0,0,0.84821428,0.31145206,1.0284969)" />
    <path
       sodipodi:type="arc"
       style="fill:#ffffff;fill-rule:evenodd;stroke:#000000;stroke-width:0;stroke-linecap:butt;stroke-linejoin:miter;stroke-miterlimit:4;stroke-opacity:1;stroke-dasharray:none"
       id="path4297"
       sodipodi:cx="7.8539767"
       sodipodi:cy="8.0104303"
       sodipodi:rx="1.011734"
       sodipodi:ry="1.1056063"
       d="m 8.8657107,8.0104303 a 1.011734,1.1056063 0 1 1 -2.023468,0 1.011734,1.1056063 0 1 1 2.023468,0 z"
       transform="matrix(0.98969067,0,0,0.8773585,0.23742255,0.97198097)" />
    <path
       sodipodi:type="arc"
       style="fill:#ffffff;fill-rule:evenodd;stroke:#000000;stroke-width:0;stroke-linecap:butt;stroke-linejoin:miter;stroke-miterlimit:4;stroke-opacity:1;stroke-dasharray:none"
       id="path4299"
       sodipodi:cx="11.598435"
       sodipodi:cy="3.0977836"
       sodipodi:rx="1.3142112"
       sodipodi:ry="0.94915253"
       d="m 12.912647,3.0977836 a 1.3142112,0.94915253 0 1 1 -2.628423,0 1.3142112,0.94915253 0 1 1 2.628423,0 z"
       transform="matrix(0.76190477,0,0,1.0769231,3.1787421,0.66914049)" />
    <path
       sodipodi:type="arc"
       style="fill:#ffffff;fill-rule:evenodd;stroke:#000000;stroke-width:0;stroke-linecap:butt;stroke-linejoin:miter;stroke-miterlimit:4;stroke-opacity:1;stroke-dasharray:none"
       id="path4301"
       sodipodi:cx="12.140808"
       sodipodi:cy="6.9465451"
       sodipodi:rx="1.3767927"
       sodipodi:ry="1.1264668"
       d="m 13.517601,6.9465451 a 1.3767927,1.1264668 0 1 1 -2.753586,0 1.3767927,1.1264668 0 1 1 2.753586,0 z"
       transform="matrix(0.71969697,0,0,0.86111111,3.2466516,2.0182529)" />
    <path
       sodipodi:type="arc"
       style="fill:#ffffff;fill-rule:evenodd;stroke:#000000;stroke-width:0;stroke-linecap:butt;stroke-linejoin:miter;stroke-miterlimit:4;stroke-opacity:1;stroke-dasharray:none"
       id="path4303"
       sodipodi:cx="12.182529"
       sodipodi:cy="10.701434"
       sodipodi:rx="1.1681877"
       sodipodi:ry="1.2933507"
       d="m 13.350717,10.701434 a 1.1681877,1.2933507 0 1 1 -2.336375,0 1.1681877,1.2933507 0 1 1 2.336375,0 z"
       transform="matrix(0.85714286,0,0,0.76612903,1.5526169,3.8065358)" />
    <path
       sodipodi:type="arc"
       style="fill:#ffffff;fill-rule:evenodd;stroke:#000000;stroke-width:0;stroke-linecap:butt;stroke-linejoin:miter;stroke-miterlimit:4;stroke-opacity:1;stroke-dasharray:none"
       id="path4305"
       sodipodi:cx="7.5932202"
       sodipodi:cy="11.139504"
       sodipodi:rx="1.6271186"
       sodipodi:ry="1.2516297"
       d="m 9.2203388,11.139504 a 1.6271186,1.2516297 0 1 1 -3.2542372,0 1.6271186,1.2516297 0 1 1 3.2542372,0 z"
       transform="matrix(0.59615383,0,0,0.79166667,3.494133,3.1864407)" />
    <path
       sodipodi:type="arc"
       style="fill:#ffffff;fill-rule:evenodd;stroke:#000000;stroke-width:0;stroke-linecap:butt;stroke-linejoin:miter;stroke-miterlimit:4;stroke-opacity:1;stroke-dasharray:none"
       id="path4307"
       sodipodi:cx="2.9934812"
       sodipodi:cy="12.568448"
       sodipodi:rx="1.5332464"
       sodipodi:ry="1.3455019"
       d="m 4.5267276,12.568448 a 1.5332464,1.3455019 0 1 1 -3.0664928,0 1.5332464,1.3455019 0 1 1 3.0664928,0 z"
       transform="matrix(0.63265306,0,0,0.74418603,2.1218104,2.6623813)" />
  </g>
</svg>
