<?xml version="1.0" encoding="UTF-8" standalone="no"?>
<!-- Created with Inkscape (http://www.inkscape.org/) -->

<svg
   xmlns:dc="http://purl.org/dc/elements/1.1/"
   xmlns:cc="http://creativecommons.org/ns#"
   xmlns:rdf="http://www.w3.org/1999/02/22-rdf-syntax-ns#"
   xmlns:svg="http://www.w3.org/2000/svg"
   xmlns="http://www.w3.org/2000/svg"
   xmlns:sodipodi="http://sodipodi.sourceforge.net/DTD/sodipodi-0.dtd"
   xmlns:inkscape="http://www.inkscape.org/namespaces/inkscape"
   width="16px"
   height="16px"
   id="svg4813"
   version="1.1"
   inkscape:version="0.48.2 r9819"
   sodipodi:docname="New document 8">
  <defs
     id="defs4815" />
  <sodipodi:namedview
     id="base"
     pagecolor="#ffffff"
     bordercolor="#666666"
     borderopacity="1.0"
     inkscape:pageopacity="0.0"
     inkscape:pageshadow="2"
     inkscape:zoom="46.8125"
     inkscape:cx="8"
     inkscape:cy="9.7089453"
     inkscape:current-layer="layer1"
     showgrid="true"
     inkscape:grid-bbox="true"
     inkscape:document-units="px"
     inkscape:snap-global="false"
     inkscape:window-width="1455"
     inkscape:window-height="987"
     inkscape:window-x="448"
     inkscape:window-y="0"
     inkscape:window-maximized="0">
    <inkscape:grid
       type="xygrid"
       id="grid4821" />
  </sodipodi:namedview>
  <metadata
     id="metadata4818">
    <rdf:RDF>
      <cc:Work
         rdf:about="">
        <dc:format>image/svg+xml</dc:format>
        <dc:type
           rdf:resource="http://purl.org/dc/dcmitype/StillImage" />
        <dc:title></dc:title>
      </cc:Work>
    </rdf:RDF>
  </metadata>
  <g
     id="layer1"
     inkscape:label="Layer 1"
     inkscape:groupmode="layer">
    <path
       style="fill:#ffffff;fill-rule:evenodd;stroke:#000000;stroke-width:0.7629962;stroke-linecap:butt;stroke-linejoin:miter;stroke-miterlimit:4;stroke-opacity:1;stroke-dasharray:none"
       d="m 14.622708,4.866345 c 0,2.0714925 -1.062938,3.6255923 -3.29669,3.6417206 C 10.011268,8.5175585 9.8735404,8.1373641 9.5175153,7.9919727 9.3949094,7.9419036 9.1506339,10.711765 7.9524706,9.4347655 7.5743871,9.0318048 6.5622043,9.967687 6.5754338,10.678828 c 0.013552,0.728446 -0.4471366,1.03937 -1.1415367,1.031724 -0.8992585,-0.01 -1.1644138,0.738824 -1.495048,1.305183 -0.5910295,1.012398 -1.1494867,0.95502 -1.6260734,1.268214 C 0.94507232,15.182746 1.457663,13.795684 1.646788,13.666598 1.9024412,13.492106 8.2401703,6.8398626 8.19062,6.7583188 7.8251058,6.1568036 7.6557571,5.4296517 7.6557571,4.6464302 c 0,-2.0714924 1.698345,-3.2691378 3.5425659,-3.2691378 1.844221,0 3.424385,1.4175602 3.424385,3.4890526 z"
       id="path5331"
       inkscape:connector-curvature="0"
       sodipodi:nodetypes="sssssssssssss" />
    <path
       sodipodi:type="arc"
       style="fill:#ffffff;fill-rule:evenodd;stroke:#000000;stroke-width:0.69999999;stroke-linecap:butt;stroke-linejoin:miter;stroke-miterlimit:4;stroke-opacity:1;stroke-dasharray:none"
       id="path5334"
       sodipodi:cx="12.12283"
       sodipodi:cy="3.9946597"
       sodipodi:rx="1.1214954"
       sodipodi:ry="0.98264354"
       d="m 13.244326,3.9946597 a 1.1214954,0.98264354 0 1 1 -2.242991,0 1.1214954,0.98264354 0 1 1 2.242991,0 z"
       transform="matrix(0.9411552,0,0,1.0741446,0.64928005,-0.37094849)" />
  </g>
</svg>
