<?xml version="1.0" encoding="UTF-8" standalone="no"?>
<!-- Created with Inkscape (http://www.inkscape.org/) -->

<svg
   xmlns:dc="http://purl.org/dc/elements/1.1/"
   xmlns:cc="http://creativecommons.org/ns#"
   xmlns:rdf="http://www.w3.org/1999/02/22-rdf-syntax-ns#"
   xmlns:svg="http://www.w3.org/2000/svg"
   xmlns="http://www.w3.org/2000/svg"
   xmlns:sodipodi="http://sodipodi.sourceforge.net/DTD/sodipodi-0.dtd"
   xmlns:inkscape="http://www.inkscape.org/namespaces/inkscape"
   width="16px"
   height="16px"
   id="svg3775"
   version="1.1"
   inkscape:version="0.48.2 r9819"
   sodipodi:docname="New document 4">
  <defs
     id="defs3777" />
  <sodipodi:namedview
     id="base"
     pagecolor="#ffffff"
     bordercolor="#666666"
     borderopacity="1.0"
     inkscape:pageopacity="0.0"
     inkscape:pageshadow="2"
     inkscape:zoom="46.8125"
     inkscape:cx="8"
     inkscape:cy="7.1455274"
     inkscape:current-layer="layer1"
     showgrid="true"
     inkscape:grid-bbox="true"
     inkscape:document-units="px"
     inkscape:snap-global="false"
     inkscape:window-width="1585"
     inkscape:window-height="987"
     inkscape:window-x="323"
     inkscape:window-y="0"
     inkscape:window-maximized="0">
    <inkscape:grid
       type="xygrid"
       id="grid3783" />
  </sodipodi:namedview>
  <metadata
     id="metadata3780">
    <rdf:RDF>
      <cc:Work
         rdf:about="">
        <dc:format>image/svg+xml</dc:format>
        <dc:type
           rdf:resource="http://purl.org/dc/dcmitype/StillImage" />
        <dc:title></dc:title>
      </cc:Work>
    </rdf:RDF>
  </metadata>
  <g
     id="layer1"
     inkscape:label="Layer 1"
     inkscape:groupmode="layer">
    <g
       transform="matrix(1.0929982,0,0,1.0748525,-0.43871258,-0.14953271)"
       style="font-size:27.89591026px;font-style:normal;font-weight:normal;line-height:125%;letter-spacing:0px;word-spacing:0px;fill:#000000;fill-opacity:1;stroke:none;font-family:Sans"
       id="text4296">
      <path
         d="m 14.744326,6.3424955 c -0.381403,0.03633 -0.699227,0.088544 -0.953474,0.1566421 -0.254272,0.068112 -0.469938,0.1589192 -0.647,0.272421 -0.177085,0.1135155 -0.333727,0.2610767 -0.469926,0.4426841 -0.136222,0.1816202 -0.281513,0.4040972 -0.435873,0.6674314 -0.199787,0.3359914 -0.401832,0.6765173 -0.606137,1.0215788 -0.204326,0.345071 -0.438154,0.6901372 -0.701484,1.0351998 0.236088,0.2724243 0.442674,0.5176033 0.619758,0.7355363 0.177063,0.21794 0.356406,0.440417 0.538031,0.667432 0.208845,0.263342 0.413161,0.50398 0.612947,0.721915 0.199764,0.217939 0.41316,0.406363 0.64019,0.565274 0.227005,0.158913 0.478994,0.286043 0.755968,0.381389 0.276948,0.09535 0.592502,0.147562 0.946663,0.156643 l -0.02724,0.490357 c -0.145305,0 -0.317838,-0.0023 -0.5176,-0.0068 -0.199789,-0.0045 -0.404104,-0.0068 -0.612947,-0.0068 -0.199788,0 -0.390483,-0.0023 -0.572084,-0.0068 -0.181626,-0.0045 -0.326917,-0.0068 -0.435874,-0.0068 -0.24519,0 -0.451776,0.0045 -0.619758,0.01362 -0.168004,0.0091 -0.320105,0.01362 -0.456305,0.01362 C 11.511586,13.1394 11.216464,12.685365 10.916811,12.294894 10.617138,11.904426 10.262473,11.35325 9.9446578,10.9991 9.6449863,11.380492 9.3798942,11.918047 9.0575375,12.254031 8.7351652,12.590018 8.3923691,12.8806 8.0291482,13.125778 7.6659138,13.370958 7.2799844,13.566192 6.871359,13.711484 6.4627223,13.856774 6.0223088,13.92942 5.5501172,13.92942 c -0.481281,0 -0.9262348,-0.084 -1.3348629,-0.251989 C 3.8066202,13.509438 3.4502031,13.27788 3.1460018,12.982757 2.8417968,12.687636 2.6034286,12.34711 2.4308967,11.961179 2.2583624,11.575251 2.1720958,11.16435 2.1720968,10.728474 2.1720958,10.292603 2.2470115,9.8703512 2.3968441,9.4617159 2.5466743,9.053089 2.7509899,8.6717 3.0097913,8.3175477 3.2685892,7.9634061 3.5637117,7.6410416 3.8951596,7.3504532 4.2266021,7.0598774 4.5784789,6.8101584 4.950791,6.6012954 4.5421561,6.2108328 4.2129811,5.8022017 3.9632648,5.3754009 3.7135431,4.9486167 3.5886836,4.4491787 3.588686,3.8770855 3.5886836,3.4321414 3.6772203,3.0303208 3.8542964,2.6716225 4.0313673,2.3129462 4.2697354,2.0042027 4.5694016,1.7453911 4.869061,1.4866033 5.2141273,1.2868281 5.6046014,1.1460649 5.9950667,1.0053267 6.0592858,1.0939448 6.4860839,1.0939321 6.8939559,1.0629397 7.4871952,1.6244 7.6292771,1.9001691 7.8918333,2.2720547 8.0698816,2.5326078 8.1863836,2.7414517 8.3028707,3.1093131 8.3694214,3.1250823 8.4549189,3.4843564 8.6092825,3.7840305 8.4798212,3.4289599 8.4798295,3.8103386 8.4798212,4.1826572 8.5035592,4.0768704 8.367357,4.3674433 8.4148249,4.7772797 8.2102503,4.8816263 8.0980446,5.1972125 7.9936583,5.4908059 7.9498215,5.6512556 7.6456252,5.8510229 7.3414152,6.050806 7.3059311,6.1557505 6.9881129,6.3645992 7.5601905,6.8095603 8.2263874,7.964289 8.8030189,8.4773423 9.3796351,8.9904071 9.4079881,9.5057363 9.8983546,10.023331 10.261573,9.5238977 11.082524,8.4537634 11.305011,8.0451267 11.527478,7.6365012 11.638716,7.2823543 11.638726,6.9826848 11.638716,6.8464811 11.602393,6.7375128 11.529758,6.6557796 11.457102,6.5740604 11.364025,6.5127657 11.250527,6.4718955 11.137008,6.4310395 11.005338,6.4015273 10.855516,6.3833586 10.705675,6.3652045 10.549033,6.3515835 10.38559,6.3424955 l 0.02724,-0.4631157 c 0.263331,7.8e-6 0.583425,0.00455 0.960284,0.013621 0.376839,0.00909 0.769578,0.013629 1.178221,0.013621 0.172522,7.7e-6 0.358676,-0.00226 0.558463,-0.00681 0.199763,-0.00453 0.394998,-0.0068 0.585705,-0.00681 0.199763,7.8e-6 0.385917,-0.00226 0.558463,-0.00681 0.17252,-0.00453 0.322352,-0.0068 0.449495,-0.00681 z M 8.7059334,10.420763 C 8.6631124,9.7434937 8.5905284,10.053678 8.3504156,9.4235179 8.0643664,9.1511011 8.0563835,9.2097309 7.7294851,8.9236845 7.4025738,8.6376474 7.0529672,8.3402548 6.6806643,8.0315057 6.3083505,7.7227678 5.8951791,7.3867822 5.4411488,7.023548 4.8963031,7.3504595 4.4627001,7.7749818 4.1403385,8.2971162 3.817971,8.8192612 3.6567888,9.3845342 3.6567912,9.9929369 c -2.4e-6,0.3632311 0.065833,0.7060271 0.1975052,1.0283891 0.1316674,0.322367 0.3132812,0.603869 0.544842,0.844505 0.2315545,0.24064 0.5062454,0.431335 0.8240736,0.572084 0.3178201,0.140752 0.6628864,0.211128 1.0351998,0.211127 0.3268998,1e-6 0.644724,-0.05448 0.9534735,-0.163453 C 7.5206227,12.376622 7.813475,12.231331 8.090443,12.049715 8.3673972,11.868103 8.3254363,11.692185 8.5615419,11.442464 8.7976322,11.192747 8.7539193,10.75281 8.7059334,10.420763 z M 6.2323424,5.8492289 C 6.7590171,5.5949772 6.8943888,5.5974102 7.1895178,5.2205529 7.4846337,4.8437129 7.7010773,4.7071079 7.7010843,4.1350143 7.7010773,3.8898457 7.82321,3.6492074 7.746031,3.4130987 7.6688382,3.1770114 7.6035214,3.0056337 7.4582368,2.8194681 7.3129393,2.6333254 7.1565564,2.1876514 6.9431662,2.0786713 6.7297639,1.9697148 6.4454742,1.7164889 6.1821395,1.7164769 5.9460362,1.7164889 5.962248,1.806181 5.7715581,1.9060568 5.580859,2.0059562 5.5115199,2.0382553 5.379854,2.2016963 5.2481799,2.3651602 5.1482923,2.5558547 5.0801909,2.7737804 5.0120819,2.9917279 4.9780293,3.2142048 4.9780331,3.4412119 c -3.8e-6,0.299673 0.040859,0.5675533 0.1225894,0.8036419 0.081722,0.2361074 0.1929608,0.4563141 0.3337157,0.6606209 C 5.5750847,5.109799 5.7385372,5.2982233 5.924696,5.4707483 6.1108455,5.6432896 6.0144,5.6767034 6.2323424,5.8492289 z"
         style="font-variant:normal;font-stretch:normal;font-family:Arabic Typesetting;-inkscape-font-specification:Arabic Typesetting"
         id="path4301"
         inkscape:connector-curvature="0"
         sodipodi:nodetypes="ccscccccccccccsssscccccccssssssssccscccccccccscccccccccccccccccccccccsscccssccccscccccccsccccc" />
    </g>
    <rect
       style="fill:#ffffff;fill-opacity:1;stroke:#000000;stroke-width:0;stroke-linecap:round;stroke-linejoin:miter;stroke-miterlimit:4;stroke-opacity:1;stroke-dasharray:none"
       id="rect4307"
       width="5.7676902"
       height="9.5914555"
       x="10.210948"
       y="6.1094794" />
  </g>
</svg>
