<?xml version="1.0" encoding="UTF-8" standalone="no"?>
<!-- Created with Inkscape (http://www.inkscape.org/) -->

<svg
   xmlns:dc="http://purl.org/dc/elements/1.1/"
   xmlns:cc="http://creativecommons.org/ns#"
   xmlns:rdf="http://www.w3.org/1999/02/22-rdf-syntax-ns#"
   xmlns:svg="http://www.w3.org/2000/svg"
   xmlns="http://www.w3.org/2000/svg"
   xmlns:sodipodi="http://sodipodi.sourceforge.net/DTD/sodipodi-0.dtd"
   xmlns:inkscape="http://www.inkscape.org/namespaces/inkscape"
   width="16px"
   height="16px"
   id="svg10090"
   version="1.1"
   inkscape:version="0.48.2 r9819"
   sodipodi:docname="New document 29">
  <defs
     id="defs10092" />
  <sodipodi:namedview
     id="base"
     pagecolor="#ffffff"
     bordercolor="#666666"
     borderopacity="1.0"
     inkscape:pageopacity="0.0"
     inkscape:pageshadow="2"
     inkscape:zoom="47.9375"
     inkscape:cx="8"
     inkscape:cy="7.1655802"
     inkscape:current-layer="layer1"
     showgrid="true"
     inkscape:grid-bbox="true"
     inkscape:document-units="px"
     inkscape:snap-global="false"
     inkscape:window-width="1546"
     inkscape:window-height="987"
     inkscape:window-x="357"
     inkscape:window-y="0"
     inkscape:window-maximized="0">
    <inkscape:grid
       type="xygrid"
       id="grid10098" />
  </sodipodi:namedview>
  <metadata
     id="metadata10095">
    <rdf:RDF>
      <cc:Work
         rdf:about="">
        <dc:format>image/svg+xml</dc:format>
        <dc:type
           rdf:resource="http://purl.org/dc/dcmitype/StillImage" />
        <dc:title></dc:title>
      </cc:Work>
    </rdf:RDF>
  </metadata>
  <g
     id="layer1"
     inkscape:label="Layer 1"
     inkscape:groupmode="layer">
    <g
       style="font-size:6px;font-style:normal;font-weight:normal;line-height:125%;letter-spacing:0px;word-spacing:0px;fill:#ff6600;fill-opacity:1;stroke:none;font-family:Sans"
       id="text10608"
       transform="matrix(2.594435,0,0,3.2325698,-9.0385415,-9.9156142)">
      <path
         d="m 9.2667174,7.3846154 -0.9609375,0 0,-1.3447265 C 8.305776,5.8055154 8.2813619,5.6453593 8.2325377,5.5594201 8.1602683,5.4324689 8.05187,5.3689924 7.9073424,5.3689904 c -0.1601596,2e-6 -0.2832064,0.069338 -0.3691406,0.2080078 -0.06055,0.097658 -0.090823,0.2519547 -0.09082,0.4628907 l 0,1.3447265 -0.9609375,0 0,-1.3447265 C 6.4864418,5.8055154 6.4669106,5.6531718 6.4278502,5.5828576 6.3497232,5.4422346 6.2296062,5.3719221 6.0674987,5.3719201 c -0.1503922,2e-6 -0.2675796,0.060549 -0.3515625,0.1816406 -0.031251,0.042971 -0.053712,0.1020525 -0.067383,0.1772461 -0.013673,0.075197 -0.020509,0.1782242 -0.020508,0.3090821 l 0,1.3447265 -0.9609375,0 0,-2.3224006 0.9609375,-0.3963494 -0.166884,0.062798 c 0.1132802,-0.1093725 0.1750747,0.081736 0.2688262,0.030952 0.1699201,-0.091794 0.5679781,-0.1376925 0.7769644,-0.1376953 0.2675757,2.8e-6 0.4902317,0.069339 0.6679688,0.2080078 0.089841,0.070315 0.1757782,0.1699243 0.2578125,0.2988281 C 7.5069486,5.0076647 7.5899564,4.9119616 7.6817565,4.8416467 7.8751123,4.6932119 8.0958152,4.6189932 8.3438659,4.6189904 c 0.2031208,2.8e-6 0.3837846,0.048831 0.5419922,0.1464844 0.1699171,0.1074244 0.2812451,0.2529321 0.3339843,0.4365234 0.031245,0.1113302 0.04687,0.250002 0.046875,0.4160157 z"
         style="font-variant:normal;font-weight:bold;font-stretch:normal;fill:#ff6600;font-family:Aharoni;-inkscape-font-specification:Aharoni Bold"
         id="path10613"
         inkscape:connector-curvature="0"
         sodipodi:nodetypes="ccccccccccccccsccccccccccccccc" />
    </g>
    <path
       style="fill:#333333;fill-opacity:0.99159666;stroke:#000000;stroke-width:0;stroke-linecap:round;stroke-linejoin:round;stroke-miterlimit:4;stroke-opacity:1"
       d="M 5.8529661e-4,7.0327824 3.080408,3.6387091 7.9590034,2.9963099 7.9380915,3.0808272 6.5038769,5.000743 6.7621817,5.9773736 C 6.0115221,7.4797815 5.0038341,8.144211 3.0662531,7.9736569 L 2.1814035,7.0614363 0.10414114,7.093162 z"
       id="rect10615"
       inkscape:connector-curvature="0"
       sodipodi:nodetypes="cccccccccc" />
    <path
       style="fill:#333333;fill-opacity:0.99159666;stroke:#000000;stroke-width:0;stroke-linecap:round;stroke-linejoin:round;stroke-miterlimit:4;stroke-opacity:1"
       d="m 1.4085749,6.6548047 0.4072711,0 0,4.4911393 -0.4501418,0 z"
       id="rect10618"
       inkscape:connector-curvature="0"
       sodipodi:nodetypes="ccccc" />
    <path
       style="fill:#333333;fill-opacity:0.99159666;stroke:#000000;stroke-width:0;stroke-linecap:round;stroke-linejoin:round;stroke-miterlimit:4;stroke-opacity:1"
       d="m 1.3871395,11.057448 0.4287064,0 0.2572238,1.017697 -1.0717659,0 z"
       id="rect10620"
       inkscape:connector-curvature="0"
       sodipodi:nodetypes="ccccc" />
  </g>
</svg>
