<?xml version="1.0" encoding="UTF-8" standalone="no"?>
<!-- Created with Inkscape (http://www.inkscape.org/) -->

<svg
   xmlns:dc="http://purl.org/dc/elements/1.1/"
   xmlns:cc="http://creativecommons.org/ns#"
   xmlns:rdf="http://www.w3.org/1999/02/22-rdf-syntax-ns#"
   xmlns:svg="http://www.w3.org/2000/svg"
   xmlns="http://www.w3.org/2000/svg"
   xmlns:sodipodi="http://sodipodi.sourceforge.net/DTD/sodipodi-0.dtd"
   xmlns:inkscape="http://www.inkscape.org/namespaces/inkscape"
   width="16px"
   height="16px"
   id="svg3771"
   version="1.1"
   inkscape:version="0.48.2 r9819"
   sodipodi:docname="New document 4">
  <defs
     id="defs3773" />
  <sodipodi:namedview
     id="base"
     pagecolor="#ffffff"
     bordercolor="#666666"
     borderopacity="1.0"
     inkscape:pageopacity="0.0"
     inkscape:pageshadow="2"
     inkscape:zoom="47.9375"
     inkscape:cx="8"
     inkscape:cy="7.8977657"
     inkscape:current-layer="layer1"
     showgrid="true"
     inkscape:grid-bbox="true"
     inkscape:document-units="px"
     inkscape:snap-global="false"
     inkscape:window-width="1566"
     inkscape:window-height="987"
     inkscape:window-x="340"
     inkscape:window-y="0"
     inkscape:window-maximized="0">
    <inkscape:grid
       type="xygrid"
       id="grid3779" />
  </sodipodi:namedview>
  <metadata
     id="metadata3776">
    <rdf:RDF>
      <cc:Work
         rdf:about="">
        <dc:format>image/svg+xml</dc:format>
        <dc:type
           rdf:resource="http://purl.org/dc/dcmitype/StillImage" />
        <dc:title></dc:title>
      </cc:Work>
    </rdf:RDF>
  </metadata>
  <g
     id="layer1"
     inkscape:label="Layer 1"
     inkscape:groupmode="layer">
    <g
       transform="matrix(1.0301061,0,0,1.1547284,-0.38687778,-0.07973517)"
       style="font-size:22.37649918px;font-style:normal;font-weight:normal;line-height:125%;letter-spacing:0px;word-spacing:0px;fill:#000000;fill-opacity:1;stroke:none;font-family:Sans"
       id="text4296">
      <path
         d="M 4.2808984,9.3475549 6.2257309,9.0416262 c 0.1092575,0.7793927 0.4133649,1.3766818 0.9123231,1.7918678 0.4989511,0.415191 1.196395,0.622785 2.0923338,0.622784 0.9032112,1e-6 1.5733402,-0.18392 2.0103882,-0.551765 0.437033,-0.36784 0.655554,-0.799418 0.655562,-1.2947335 C 11.89633,9.1654581 11.703303,8.8158256 11.317259,8.5608811 11.047742,8.3860691 10.377614,8.1639068 9.3068699,7.8943935 7.8646304,7.530198 6.8649001,7.2151646 6.3076761,6.9492924 5.7504466,6.6834319 5.3279741,6.3155894 5.0402572,5.8457638 4.7525374,5.3759522 4.6086782,4.8569665 4.6086792,4.2888053 4.6086782,3.7716491 4.7270433,3.2927255 4.963775,2.852033 5.2005039,2.4113604 5.5228213,2.0453389 5.9307282,1.7539675 6.2366543,1.5281743 6.6536638,1.336969 7.1817581,1.1803512 7.7098452,1.0237566 8.2761769,0.9454535 8.880755,0.94544164 c 0.9104958,1.186e-5 1.709916,0.13112406 2.398262,0.39333686 0.688332,0.2622358 1.196391,0.6173313 1.524181,1.0652875 0.327771,0.447977 0.553575,1.0470867 0.677413,1.7973311 l -1.92298,0.2622246 C 11.470215,3.8663413 11.217096,3.4001647 10.798272,3.0650905 10.379435,2.7300358 9.7876088,2.5625036 9.0227933,2.5624933 8.1195707,2.5625036 7.4749359,2.7118258 7.0888869,3.0104604 6.7028309,3.3091145 6.5098046,3.658747 6.5098075,4.0593588 c -2.9e-6,0.254949 0.080121,0.4843953 0.2403726,0.6883395 0.160245,0.2112444 0.4115434,0.3860606 0.7538957,0.5244492 0.1966643,0.072848 0.7757431,0.2403799 1.737238,0.5025972 1.3912402,0.3714915 2.3618342,0.6755989 2.9117852,0.9123231 0.549935,0.2367364 0.981512,0.5809058 1.294734,1.0325093 0.313203,0.4516137 0.469809,1.0124824 0.469819,1.6826079 -10e-6,0.655564 -0.191215,1.272884 -0.573616,1.851961 -0.38242,0.579081 -0.934184,1.027047 -1.655293,1.343901 -0.721125,0.316855 -1.536934,0.475282 -2.4474292,0.475282 -1.5077956,0 -2.6568481,-0.313212 -3.4471609,-0.939638 C 5.0038357,11.507267 4.499418,10.578556 4.2808984,9.3475549 z"
         id="path4301"
         inkscape:connector-curvature="0" />
    </g>
    <rect
       style="fill:#000000;fill-opacity:1;stroke:#000000;stroke-width:0;stroke-linecap:round;stroke-linejoin:miter;stroke-miterlimit:4;stroke-opacity:1;stroke-dasharray:none"
       id="rect4303"
       width="1.9608865"
       height="2.0230002"
       x="8.031291"
       y="0.020860506" />
    <rect
       style="fill:#000000;fill-opacity:1;stroke:#000000;stroke-width:0;stroke-linecap:round;stroke-linejoin:miter;stroke-miterlimit:4;stroke-opacity:1;stroke-dasharray:none"
       id="rect4305"
       width="1.940026"
       height="2.3815062"
       x="8.0730124"
       y="13.618495" />
  </g>
</svg>
