<?xml version="1.0" encoding="UTF-8" standalone="no"?>
<!-- Created with Inkscape (http://www.inkscape.org/) -->

<svg
   xmlns:dc="http://purl.org/dc/elements/1.1/"
   xmlns:cc="http://creativecommons.org/ns#"
   xmlns:rdf="http://www.w3.org/1999/02/22-rdf-syntax-ns#"
   xmlns:svg="http://www.w3.org/2000/svg"
   xmlns="http://www.w3.org/2000/svg"
   xmlns:sodipodi="http://sodipodi.sourceforge.net/DTD/sodipodi-0.dtd"
   xmlns:inkscape="http://www.inkscape.org/namespaces/inkscape"
   width="16px"
   height="16px"
   id="svg2985"
   version="1.1"
   inkscape:version="0.48.2 r9819"
   sodipodi:docname="New document 2">
  <defs
     id="defs2987" />
  <sodipodi:namedview
     id="base"
     pagecolor="#ffffff"
     bordercolor="#666666"
     borderopacity="1.0"
     inkscape:pageopacity="0.0"
     inkscape:pageshadow="2"
     inkscape:zoom="47.9375"
     inkscape:cx="8"
     inkscape:cy="8"
     inkscape:current-layer="layer1"
     showgrid="true"
     inkscape:grid-bbox="true"
     inkscape:document-units="px"
     inkscape:snap-global="false"
     inkscape:window-width="1555"
     inkscape:window-height="987"
     inkscape:window-x="353"
     inkscape:window-y="0"
     inkscape:window-maximized="0">
    <inkscape:grid
       type="xygrid"
       id="grid2993" />
  </sodipodi:namedview>
  <metadata
     id="metadata2990">
    <rdf:RDF>
      <cc:Work
         rdf:about="">
        <dc:format>image/svg+xml</dc:format>
        <dc:type
           rdf:resource="http://purl.org/dc/dcmitype/StillImage" />
        <dc:title></dc:title>
      </cc:Work>
    </rdf:RDF>
  </metadata>
  <g
     id="layer1"
     inkscape:label="Layer 1"
     inkscape:groupmode="layer">
    <path
       style="fill:#ffffff;fill-rule:evenodd;stroke:#000000;stroke-width:0.97562242;stroke-linecap:butt;stroke-linejoin:miter;stroke-miterlimit:4;stroke-opacity:1"
       d="m 14.489342,11.646369 c 0,3.382067 -2.325517,2.851561 -5.9210025,2.851561 -3.5954857,0 -7.0994024,0.530506 -7.0994024,-2.851561 0,-3.3820658 2.9147167,-6.1237718 6.5102023,-6.1237718 3.5954866,0 6.5102026,2.741706 6.5102026,6.1237718 z"
       id="path3765"
       inkscape:connector-curvature="0"
       sodipodi:nodetypes="sssss" />
    <path
       sodipodi:type="arc"
       style="fill:#ffffff;fill-rule:evenodd;stroke:#000000;stroke-width:0.79744446;stroke-linecap:butt;stroke-linejoin:miter;stroke-miterlimit:4;stroke-opacity:1;stroke-dasharray:none"
       id="path3768"
       sodipodi:cx="7.2594523"
       sodipodi:cy="4.5893092"
       sodipodi:rx="2.3363755"
       sodipodi:ry="2.5032594"
       d="m 9.5958278,4.5893092 a 2.3363755,2.5032594 0 1 1 -4.6727509,0 2.3363755,2.5032594 0 1 1 4.6727509,0 z"
       transform="matrix(1.2139843,0,0,1.0502011,-0.52033156,-0.71443254)" />
    <path
       style="fill:#000000;fill-opacity:1;stroke:#000000;stroke-width:0;stroke-linecap:round;stroke-linejoin:round;stroke-miterlimit:4;stroke-opacity:1"
       d="M 8.9530003,6.3303827 C 7.7347222,10.448845 4.1845325,11.02142 1.6170158,10.967754 L 1.1434804,10.405337 C 5.0117543,10.308897 7.7159463,8.8240378 8.1961708,6.3682514 z"
       id="rect3770"
       inkscape:connector-curvature="0"
       sodipodi:nodetypes="ccccc" />
    <path
       transform="matrix(0.8505117,0.52595612,-0.52775157,0.84939878,0,0)"
       style="fill:#000000;fill-opacity:1;stroke:#000000;stroke-width:0;stroke-linecap:round;stroke-linejoin:round;stroke-miterlimit:4;stroke-opacity:1"
       d="m 10.793803,3.3815556 c 2.674441,1.0696894 4.727021,4.5264136 7.617867,-0.7122545 l 0.486488,0.8103745 c -3.699579,5.3238495 -5.703026,1.5427933 -8.281544,0.8285008 z"
       id="rect3773"
       inkscape:connector-curvature="0"
       sodipodi:nodetypes="ccccc" />
    <path
       sodipodi:type="arc"
       style="fill:#ffffff;fill-rule:evenodd;stroke:#000000;stroke-width:0.40000001;stroke-linecap:butt;stroke-linejoin:miter;stroke-miterlimit:4;stroke-opacity:1;stroke-dasharray:none"
       id="path3776"
       sodipodi:cx="11.181226"
       sodipodi:cy="11.76532"
       sodipodi:rx="1.0638852"
       sodipodi:ry="1.0221642"
       d="m 12.245111,11.76532 a 1.0638852,1.0221642 0 1 1 -2.12777,0 1.0638852,1.0221642 0 1 1 2.12777,0 z"
       transform="matrix(1.202961,0,0,1.3541023,-1.9981661,-4.3121497)" />
  </g>
</svg>
