<?xml version="1.0" encoding="UTF-8" standalone="no"?>
<!-- Created with Inkscape (http://www.inkscape.org/) -->

<svg
   xmlns:dc="http://purl.org/dc/elements/1.1/"
   xmlns:cc="http://creativecommons.org/ns#"
   xmlns:rdf="http://www.w3.org/1999/02/22-rdf-syntax-ns#"
   xmlns:svg="http://www.w3.org/2000/svg"
   xmlns="http://www.w3.org/2000/svg"
   xmlns:sodipodi="http://sodipodi.sourceforge.net/DTD/sodipodi-0.dtd"
   xmlns:inkscape="http://www.inkscape.org/namespaces/inkscape"
   width="16px"
   height="16px"
   id="svg6946"
   version="1.1"
   inkscape:version="0.48.2 r9819"
   sodipodi:docname="New document 16">
  <defs
     id="defs6948" />
  <sodipodi:namedview
     id="base"
     pagecolor="#ffffff"
     bordercolor="#666666"
     borderopacity="1.0"
     inkscape:pageopacity="0.0"
     inkscape:pageshadow="2"
     inkscape:zoom="47.9375"
     inkscape:cx="8"
     inkscape:cy="8"
     inkscape:current-layer="layer1"
     showgrid="true"
     inkscape:grid-bbox="true"
     inkscape:document-units="px"
     inkscape:snap-global="false"
     inkscape:window-width="1570"
     inkscape:window-height="987"
     inkscape:window-x="336"
     inkscape:window-y="0"
     inkscape:window-maximized="0">
    <inkscape:grid
       type="xygrid"
       id="grid6954" />
  </sodipodi:namedview>
  <metadata
     id="metadata6951">
    <rdf:RDF>
      <cc:Work
         rdf:about="">
        <dc:format>image/svg+xml</dc:format>
        <dc:type
           rdf:resource="http://purl.org/dc/dcmitype/StillImage" />
        <dc:title></dc:title>
      </cc:Work>
    </rdf:RDF>
  </metadata>
  <g
     id="layer1"
     inkscape:label="Layer 1"
     inkscape:groupmode="layer">
    <path
       sodipodi:type="arc"
       style="fill:#ffffff;fill-rule:evenodd;stroke:#000000;stroke-width:1px;stroke-linecap:butt;stroke-linejoin:miter;stroke-opacity:1"
       id="path7464"
       sodipodi:cx="8.2190351"
       sodipodi:cy="8.2398958"
       sodipodi:rx="7.280313"
       sodipodi:ry="7.6766624"
       d="m 15.499348,8.2398958 a 7.280313,7.6766624 0 1 1 -14.56062587,0 7.280313,7.6766624 0 1 1 14.56062587,0 z"
       transform="matrix(1.0284511,0,0,0.97806913,-0.4424457,-0.04875738)" />
    <path
       style="fill:#ffffff;fill-rule:evenodd;stroke:#000000;stroke-width:0.71618736;stroke-linecap:butt;stroke-linejoin:miter;stroke-miterlimit:4;stroke-opacity:1"
       d="M 7.6554749,7.078288 C 6.3523709,7.8428444 6.1444164,7.053907 5.3833602,6.9647693 4.7717966,6.8931408 4.7586892,6.9634714 4.6465086,7.1214204 2.8832497,9.6040691 7.5230456,10.799132 8.060711,9.0780898 8.4150208,7.9439608 7.3174259,10.663447 6.0680667,10.536738 4.0327437,10.330317 1.7132195,9.3231567 4.3067071,6.1970056 4.8799413,5.5060376 3.8956653,5.9154789 4.1912348,4.981721 4.8622607,2.8618295 7.2192555,2.2160026 6.9482614,3.2712284 6.7500576,4.0430185 7.3512558,6.1137286 7.623861,4.0005105 7.7899954,2.7126515 10.636638,2.0849104 10.584459,3.7122644 10.578697,3.8919925 9.1082261,3.4354323 9.3738341,4.6859858 9.4732226,5.1539356 7.7742468,4.7880573 7.9923626,5.4789972 8.1657159,6.0281402 7.8601021,6.958229 7.6554749,7.078288 z"
       id="path7472"
       inkscape:connector-curvature="0"
       sodipodi:nodetypes="sssssssssssss" />
    <path
       style="fill:#ffffff;fill-opacity:1;stroke:#000000;stroke-width:0.852;stroke-linecap:round;stroke-linejoin:round;stroke-miterlimit:4;stroke-opacity:1;stroke-dasharray:none;stroke-dashoffset:0"
       d="m 9.1759615,10.900869 3.3058605,-0.0398 C 12.007066,11.51854 10.6467,12.131381 11.392929,12.998838 8.9108218,11.994181 9.8551365,13.198781 9.0670717,13.337095 z"
       id="rect7476"
       inkscape:connector-curvature="0"
       sodipodi:nodetypes="ccccc" />
  </g>
</svg>
