<?xml version="1.0" encoding="UTF-8" standalone="no"?>
<!-- Created with Inkscape (http://www.inkscape.org/) -->

<svg
   xmlns:dc="http://purl.org/dc/elements/1.1/"
   xmlns:cc="http://creativecommons.org/ns#"
   xmlns:rdf="http://www.w3.org/1999/02/22-rdf-syntax-ns#"
   xmlns:svg="http://www.w3.org/2000/svg"
   xmlns="http://www.w3.org/2000/svg"
   xmlns:sodipodi="http://sodipodi.sourceforge.net/DTD/sodipodi-0.dtd"
   xmlns:inkscape="http://www.inkscape.org/namespaces/inkscape"
   width="16px"
   height="16px"
   id="svg12181"
   version="1.1"
   inkscape:version="0.48.2 r9819"
   sodipodi:docname="New document 30">
  <defs
     id="defs12183" />
  <sodipodi:namedview
     id="base"
     pagecolor="#ffffff"
     bordercolor="#666666"
     borderopacity="1.0"
     inkscape:pageopacity="0.0"
     inkscape:pageshadow="2"
     inkscape:zoom="47.9375"
     inkscape:cx="7.6232005"
     inkscape:cy="8"
     inkscape:current-layer="layer1"
     showgrid="true"
     inkscape:grid-bbox="true"
     inkscape:document-units="px"
     inkscape:snap-global="false"
     inkscape:window-width="1522"
     inkscape:window-height="987"
     inkscape:window-x="378"
     inkscape:window-y="0"
     inkscape:window-maximized="0">
    <inkscape:grid
       type="xygrid"
       id="grid12189" />
  </sodipodi:namedview>
  <metadata
     id="metadata12186">
    <rdf:RDF>
      <cc:Work
         rdf:about="">
        <dc:format>image/svg+xml</dc:format>
        <dc:type
           rdf:resource="http://purl.org/dc/dcmitype/StillImage" />
        <dc:title></dc:title>
      </cc:Work>
    </rdf:RDF>
  </metadata>
  <g
     id="layer1"
     inkscape:label="Layer 1"
     inkscape:groupmode="layer">
    <path
       style="fill:none;stroke:#000000;stroke-width:0.68248582;stroke-linecap:butt;stroke-linejoin:round;stroke-miterlimit:4;stroke-opacity:1;stroke-dasharray:none"
       d="M 8.922632,1.3686011 15.638446,3.3592618 14.018497,9.344169 11.160106,10.62961 8.9928998,10.129789 7.3266631,7.3379442 z"
       id="path12699"
       inkscape:connector-curvature="0"
       sodipodi:nodetypes="ccccccc" />
    <path
       style="fill:#ffffff;fill-opacity:0.99159666;stroke:#000000;stroke-width:0.88725746;stroke-linecap:round;stroke-linejoin:round;stroke-miterlimit:4;stroke-opacity:1"
       d="M 0.46186726,6.0206358 7.8794785,5.4074219 8.5298231,12.332607 6.3112225,14.31547 3.8432163,14.568124 1.112211,12.945812 z"
       id="rect12701"
       inkscape:connector-curvature="0"
       sodipodi:nodetypes="ccccccc" />
    <path
       sodipodi:type="arc"
       style="fill:#ff0000;fill-rule:evenodd;stroke:#000000;stroke-width:1px;stroke-linecap:butt;stroke-linejoin:miter;stroke-opacity:1"
       id="path12704"
       sodipodi:cx="9.9191656"
       sodipodi:cy="3.5045633"
       sodipodi:rx="0.30247718"
       sodipodi:ry="0.31290743"
       d="m 10.221643,3.5045633 a 0.30247718,0.31290743 0 1 1 -0.6049546,0 0.30247718,0.31290743 0 1 1 0.6049546,0 z"
       transform="translate(0.33376793,0.87614081)" />
    <path
       sodipodi:type="arc"
       style="fill:#ff0000;fill-rule:evenodd;stroke:#000000;stroke-width:1px;stroke-linecap:butt;stroke-linejoin:miter;stroke-opacity:1"
       id="path12708"
       sodipodi:cx="12.808344"
       sodipodi:cy="4.2033896"
       sodipodi:rx="0.31290743"
       sodipodi:ry="0.32333767"
       d="m 13.121251,4.2033896 a 0.31290743,0.32333767 0 1 1 -0.625815,0 0.31290743,0.32333767 0 1 1 0.625815,0 z"
       transform="translate(0.06258149,1.0638853)" />
    <path
       sodipodi:type="arc"
       style="fill:#ff0000;fill-rule:evenodd;stroke:#000000;stroke-width:1px;stroke-linecap:butt;stroke-linejoin:miter;stroke-opacity:1"
       id="path12710"
       sodipodi:cx="1.8565841"
       sodipodi:cy="7.2177315"
       sodipodi:rx="0.29204693"
       sodipodi:ry="0.27118644"
       d="m 2.148631,7.2177315 a 0.29204693,0.27118644 0 1 1 -0.5840939,0 0.29204693,0.27118644 0 1 1 0.5840939,0 z"
       transform="translate(1.0221643,1.1264667)" />
    <path
       sodipodi:type="arc"
       style="fill:#ff0000;fill-rule:evenodd;stroke:#000000;stroke-width:1px;stroke-linecap:butt;stroke-linejoin:miter;stroke-opacity:1"
       id="path12712"
       sodipodi:cx="5.1629725"
       sodipodi:cy="6.9569755"
       sodipodi:rx="0.30247718"
       sodipodi:ry="0.28161669"
       d="m 5.4654496,6.9569755 a 0.30247718,0.28161669 0 1 1 -0.6049543,0 0.30247718,0.28161669 0 1 1 0.6049543,0 z"
       transform="translate(0.66753585,1.1681878)" />
    <path
       sodipodi:type="arc"
       style="fill:#ff0000;fill-rule:evenodd;stroke:#000000;stroke-width:1px;stroke-linecap:butt;stroke-linejoin:miter;stroke-opacity:1"
       id="path12714"
       sodipodi:cx="3.8383312"
       sodipodi:cy="11.535854"
       sodipodi:rx="1.5853976"
       sodipodi:ry="0.12516297"
       d="m 5.4237288,11.535854 a 1.5853976,0.12516297 0 1 1 -3.1707952,0 1.5853976,0.12516297 0 1 1 3.1707952,0 z"
       transform="matrix(0.86312734,-0.08002882,0.09046241,0.9756557,0.21191871,0.56714838)" />
    <path
       sodipodi:type="arc"
       style="fill:#ff0000;fill-rule:evenodd;stroke:#000000;stroke-width:1px;stroke-linecap:butt;stroke-linejoin:miter;stroke-opacity:1"
       id="path12716"
       sodipodi:cx="10.764015"
       sodipodi:cy="6.5710559"
       sodipodi:rx="1.4810952"
       sodipodi:ry="0.10430248"
       d="m 12.24511,6.5710559 a 1.4810952,0.10430248 0 1 1 -2.96219,0 1.4810952,0.10430248 0 1 1 2.96219,0 z"
       transform="matrix(0.82624696,0.29805644,-0.28426363,0.86633743,3.7173321,-1.0679199)" />
  </g>
</svg>
