<?xml version="1.0" encoding="UTF-8" standalone="no"?>
<!-- Created with Inkscape (http://www.inkscape.org/) -->

<svg
   xmlns:dc="http://purl.org/dc/elements/1.1/"
   xmlns:cc="http://creativecommons.org/ns#"
   xmlns:rdf="http://www.w3.org/1999/02/22-rdf-syntax-ns#"
   xmlns:svg="http://www.w3.org/2000/svg"
   xmlns="http://www.w3.org/2000/svg"
   xmlns:sodipodi="http://sodipodi.sourceforge.net/DTD/sodipodi-0.dtd"
   xmlns:inkscape="http://www.inkscape.org/namespaces/inkscape"
   width="16px"
   height="16px"
   id="svg4827"
   version="1.1"
   inkscape:version="0.48.2 r9819"
   sodipodi:docname="New document 8">
  <defs
     id="defs4829" />
  <sodipodi:namedview
     id="base"
     pagecolor="#ffffff"
     bordercolor="#666666"
     borderopacity="1.0"
     inkscape:pageopacity="0.0"
     inkscape:pageshadow="2"
     inkscape:zoom="47.9375"
     inkscape:cx="8"
     inkscape:cy="7.8913534"
     inkscape:current-layer="layer1"
     showgrid="true"
     inkscape:grid-bbox="true"
     inkscape:document-units="px"
     inkscape:snap-global="false"
     inkscape:window-width="1565"
     inkscape:window-height="963"
     inkscape:window-x="343"
     inkscape:window-y="0"
     inkscape:window-maximized="0">
    <inkscape:grid
       type="xygrid"
       id="grid4835" />
  </sodipodi:namedview>
  <metadata
     id="metadata4832">
    <rdf:RDF>
      <cc:Work
         rdf:about="">
        <dc:format>image/svg+xml</dc:format>
        <dc:type
           rdf:resource="http://purl.org/dc/dcmitype/StillImage" />
        <dc:title></dc:title>
      </cc:Work>
    </rdf:RDF>
  </metadata>
  <g
     id="layer1"
     inkscape:label="Layer 1"
     inkscape:groupmode="layer">
    <path
       style="fill:#ffffff;fill-rule:evenodd;stroke:#000000;stroke-width:1.31127024;stroke-linecap:butt;stroke-linejoin:miter;stroke-miterlimit:4;stroke-opacity:1;stroke-dasharray:none"
       d="M 14.142066,7.9804722 C 13.719906,8.3001 12.723211,8.4217504 12.703795,8.6174576 12.626438,9.397214 12.397408,10.114154 12.03617,10.722187 c -0.09448,0.159068 0.830456,1.140629 0.95227,1.588462 0.09576,0.35201 -0.222429,0.360602 -0.347943,0.291327 -0.355307,-0.196101 -1.345915,-0.95406 -1.42553,-0.884118 -0.698793,0.613916 -1.6162618,0.977474 -2.7046027,0.977474 -0.05524,0 -0.045088,0.76406 -0.1440123,1.033939 -0.3211397,0.87611 -0.3850015,0.733782 -0.6050096,0.05911 C 7.6941607,13.582379 7.5945345,12.714432 7.5554553,12.710525 6.7558996,12.630543 6.0153015,12.349943 5.3845093,11.919682 5.3048537,11.865348 3.8581628,12.815353 3.7821116,12.75635 3.6649835,12.665481 3.5517703,12.82371 3.651325,12.540037 3.8004484,12.115121 4.5003473,11.146249 4.3612945,10.973094 3.821944,10.301478 3.4625314,9.478597 3.3564178,8.5779757 3.3348266,8.3947266 1.9792495,7.9074242 1.8105968,7.8233903 1.5214163,7.6793012 1.7071263,7.7348112 1.9983115,7.6050699 2.5961239,7.3387072 3.4610602,7.2934098 3.4727071,7.1871733 3.5620268,6.37243 3.6373541,6.0287326 4.0870318,5.3929758 4.2724143,5.1308805 3.8666646,4.4405811 3.6728548,4.1850183 3.0438694,3.3556217 3.3835486,3.3691756 3.91887,3.7136444 4.3555031,3.9946093 5.1685568,4.2848473 5.2048526,4.2546289 5.9114735,3.6663245 6.6117807,3.4175843 7.5782075,3.3256392 7.6284596,3.3208585 7.7258025,2.724191 7.7442343,2.4591401 7.8085454,1.5343265 8.2196332,1.3045857 8.3084518,2.3379773 c 0.00898,0.1045467 0.1202843,1.0244349 0.1826347,1.0244349 0.7866125,0 1.4857294,0.188144 2.0782355,0.5227647 0.155217,0.087658 1.142179,-0.6334023 1.499613,-0.6591393 0.148144,-0.010668 0.625306,-0.385972 0.347396,0.3076914 -0.04867,0.1214508 -0.827956,1.1795137 -0.743469,1.2824116 0.536858,0.6538617 0.885889,1.4897091 1.009803,2.4262796 0.01534,0.1159725 1.462264,0.2231702 1.593976,0.4349723 0.154659,0.2487056 -0.01804,0.2148399 -0.134575,0.3030797 z"
       id="path5345"
       inkscape:connector-curvature="0"
       sodipodi:nodetypes="sssssssssssssssssssssssssssssssss" />
    <path
       sodipodi:type="arc"
       style="fill:#ffffff;fill-rule:evenodd;stroke:#000000;stroke-width:0.89999998000000003;stroke-linecap:butt;stroke-linejoin:miter;stroke-miterlimit:4;stroke-opacity:1;stroke-dasharray:none"
       id="path5348"
       sodipodi:cx="8.0417213"
       sodipodi:cy="7.3116035"
       sodipodi:rx="3.6818774"
       sodipodi:ry="3.0769231"
       d="m 11.723599,7.3116035 a 3.6818774,3.0769231 0 1 1 -7.363755,0 3.6818774,3.0769231 0 1 1 7.363755,0 z"
       transform="matrix(1.2837458,0,0,1.5056347,-2.2922348,-2.9877442)" />
  </g>
</svg>
