<?xml version="1.0" encoding="UTF-8" standalone="no"?>
<!-- Created with Inkscape (http://www.inkscape.org/) -->

<svg
   xmlns:dc="http://purl.org/dc/elements/1.1/"
   xmlns:cc="http://creativecommons.org/ns#"
   xmlns:rdf="http://www.w3.org/1999/02/22-rdf-syntax-ns#"
   xmlns:svg="http://www.w3.org/2000/svg"
   xmlns="http://www.w3.org/2000/svg"
   xmlns:sodipodi="http://sodipodi.sourceforge.net/DTD/sodipodi-0.dtd"
   xmlns:inkscape="http://www.inkscape.org/namespaces/inkscape"
   width="16px"
   height="16px"
   id="svg5350"
   version="1.1"
   inkscape:version="0.48.2 r9819"
   sodipodi:docname="New document 10">
  <defs
     id="defs5352" />
  <sodipodi:namedview
     id="base"
     pagecolor="#ffffff"
     bordercolor="#666666"
     borderopacity="1.0"
     inkscape:pageopacity="0.0"
     inkscape:pageshadow="2"
     inkscape:zoom="47.9375"
     inkscape:cx="8"
     inkscape:cy="8.011538"
     inkscape:current-layer="layer1"
     showgrid="true"
     inkscape:grid-bbox="true"
     inkscape:document-units="px"
     inkscape:snap-global="false"
     inkscape:window-width="1550"
     inkscape:window-height="987"
     inkscape:window-x="357"
     inkscape:window-y="0"
     inkscape:window-maximized="0">
    <inkscape:grid
       type="xygrid"
       id="grid5866" />
  </sodipodi:namedview>
  <metadata
     id="metadata5355">
    <rdf:RDF>
      <cc:Work
         rdf:about="">
        <dc:format>image/svg+xml</dc:format>
        <dc:type
           rdf:resource="http://purl.org/dc/dcmitype/StillImage" />
        <dc:title></dc:title>
      </cc:Work>
    </rdf:RDF>
  </metadata>
  <g
     id="layer1"
     inkscape:label="Layer 1"
     inkscape:groupmode="layer">
    <path
       style="fill:#ffffff;fill-opacity:0.99159666;stroke:#000000;stroke-width:0.72221214;stroke-linecap:round;stroke-linejoin:round;stroke-miterlimit:4;stroke-opacity:1"
       d="m 8.7187462,3.7028007 c 1.9213278,1.4237691 3.3583268,1.1977759 4.5039688,-0.020672 1.944901,2.5309604 1.375665,3.9828836 1.075574,5.6848126 -1.86846,1.3912347 -3.941374,2.0028547 -6.6999331,0 C 7.5395116,7.578868 6.7198148,6.3334513 8.7187462,3.7028007 z"
       id="rect5870"
       inkscape:connector-curvature="0"
       sodipodi:nodetypes="ccccc" />
    <path
       sodipodi:type="arc"
       style="fill:#ffffff;fill-rule:evenodd;stroke:#000000;stroke-width:0.77551228;stroke-linecap:butt;stroke-linejoin:miter;stroke-miterlimit:4;stroke-opacity:1;stroke-dasharray:none"
       id="path5875"
       sodipodi:cx="10.565841"
       sodipodi:cy="4.9856586"
       sodipodi:rx="1.7418513"
       sodipodi:ry="1.9191656"
       d="m 12.307692,4.9856586 a 1.7418513,1.9191656 0 1 1 -3.4837026,0 1.7418513,1.9191656 0 1 1 3.4837026,0 z"
       transform="matrix(1.0095862,0,0,0.86148706,0.41564173,-1.2951289)" />
    <path
       sodipodi:nodetypes="ccccc"
       inkscape:connector-curvature="0"
       id="path5889"
       d="m 3.698498,6.7215625 c 1.9329003,1.4080868 3.3785557,1.1845829 4.5310972,-0.020444 1.9566168,2.5030827 1.3839528,3.9390145 1.0820533,5.6221965 -1.8797145,1.375911 -3.9651145,1.980793 -6.7402891,0 C 2.5121608,10.554936 1.6875265,9.3232378 3.698498,6.721563 z"
       style="fill:#ffffff;fill-opacity:0.99159666;stroke:#000000;stroke-width:0.72038347;stroke-linecap:round;stroke-linejoin:round;stroke-miterlimit:4;stroke-opacity:1" />
    <path
       transform="matrix(1.0156672,0,0,0.85199808,-4.6546182,1.7786835)"
       d="m 12.307692,4.9856586 a 1.7418513,1.9191656 0 1 1 -3.4837026,0 1.7418513,1.9191656 0 1 1 3.4837026,0 z"
       sodipodi:ry="1.9191656"
       sodipodi:rx="1.7418513"
       sodipodi:cy="4.9856586"
       sodipodi:cx="10.565841"
       id="path5891"
       style="fill:#ffffff;fill-rule:evenodd;stroke:#000000;stroke-width:0.77551228;stroke-linecap:butt;stroke-linejoin:miter;stroke-miterlimit:4;stroke-opacity:1;stroke-dasharray:none"
       sodipodi:type="arc" />
  </g>
</svg>
