<?xml version="1.0" encoding="utf-8"?>
<!-- Generator: Adobe Illustrator 23.1.0, SVG Export Plug-In . SVG Version: 6.00 Build 0)  -->
<svg version="1.1" id="Layer_1" xmlns="http://www.w3.org/2000/svg" xmlns:xlink="http://www.w3.org/1999/xlink" x="0px" y="0px"
	 viewBox="0 0 48 48" style="enable-background:new 0 0 48 48;" xml:space="preserve">
<style type="text/css">
	.st0{fill:#80BFC3;stroke:#000000;stroke-linecap:round;stroke-linejoin:round;stroke-miterlimit:10;}
	.st1{fill:#FFFFFF;stroke:#000000;stroke-linecap:round;stroke-linejoin:round;stroke-miterlimit:10;}
	.st2{fill:#E58973;stroke:#000000;stroke-linecap:round;stroke-linejoin:round;stroke-miterlimit:10;}
</style>
<g>
	<rect x="14.7" y="5.77" class="st0" width="3.39" height="3.39"/>
	
		<rect x="25.15" y="9.36" transform="matrix(0.7071 0.7071 -0.7071 0.7071 15.8651 -15.5998)" class="st0" width="3.22" height="3.97"/>
	<circle class="st0" cx="16.39" cy="22.33" r="14.22"/>
	<circle class="st1" cx="16.39" cy="22.33" r="11.27"/>
	<line class="st2" x1="16.39" y1="22.33" x2="16.39" y2="13.58"/>
	<circle class="st2" cx="16.39" cy="22.33" r="2.24"/>
	<path class="st0" d="M19.09,5.77h-5.41c-0.41,0-0.74-0.33-0.74-0.74V2.24c0-0.41,0.33-0.74,0.74-0.74h5.41
		c0.41,0,0.74,0.33,0.74,0.74v2.78C19.84,5.43,19.5,5.77,19.09,5.77z"/>
	<path class="st0" d="M29.45,11.79l-3.12-3.12c-0.29-0.29-0.29-0.76,0-1.05l1.97-1.97c0.29-0.29,0.76-0.29,1.05,0l3.12,3.12
		c0.29,0.29,0.29,0.76,0,1.05l-1.97,1.97C30.21,12.08,29.74,12.08,29.45,11.79z"/>
</g>
<g>
	<path class="st2" d="M43,22.38H23.57c-1.56,0-2.83,1.27-2.83,2.83v13.44c0,1.56,1.27,2.83,2.83,2.83h1.73v5.01l4.84-5.01H43
		c1.56,0,2.83-1.27,2.83-2.83V25.21C45.83,23.65,44.56,22.38,43,22.38z"/>
	<g>
		<line class="st1" x1="26.69" y1="27.6" x2="39.88" y2="27.6"/>
		<line class="st1" x1="26.69" y1="31.87" x2="39.88" y2="31.87"/>
		<line class="st1" x1="26.69" y1="36.13" x2="39.88" y2="36.13"/>
	</g>
</g>
</svg>
