<svg width="18" height="14" viewBox="0 0 18 14" fill="none" xmlns="http://www.w3.org/2000/svg">
<path d="M1.5 0H12.75C13.2675 0 13.6725 0.272222 13.9425 0.684445L18 7L13.9425 13.3078C13.6725 13.72 13.2675 14 12.75 14H1.5C0.674999 14 0 13.3 0 12.4444V1.55556C0 0.7 0.674999 0 1.5 0ZM3.75 9.79222L4.8075 10.8889L7.5 8.09667L10.1925 10.8889L11.25 9.79222L8.5575 7L11.25 4.20778L10.1925 3.11111L7.5 5.90333L4.8075 3.11111L3.75 4.20778L6.4425 7L3.75 9.79222Z" fill="#333333"/>
<path d="M1.5 0H12.75C13.2675 0 13.6725 0.272222 13.9425 0.684445L18 7L13.9425 13.3078C13.6725 13.72 13.2675 14 12.75 14H1.5C0.674999 14 0 13.3 0 12.4444V1.55556C0 0.7 0.674999 0 1.5 0ZM3.75 9.79222L4.8075 10.8889L7.5 8.09667L10.1925 10.8889L11.25 9.79222L8.5575 7L11.25 4.20778L10.1925 3.11111L7.5 5.90333L4.8075 3.11111L3.75 4.20778L6.4425 7L3.75 9.79222Z" fill="url(#paint0_linear)"/>
<defs>
<linearGradient id="paint0_linear" x1="18" y1="14" x2="4.51797" y2="-3.48387" gradientUnits="userSpaceOnUse">
<stop stop-color="#FB3B3B"/>
<stop offset="1" stop-color="#E84242"/>
</linearGradient>
</defs>
</svg>
