<svg width="18" height="14" viewBox="0 0 18 14" fill="none" xmlns="http://www.w3.org/2000/svg">
<path d="M12.75 0H1.5C0.674999 0 0 0.7 0 1.55556V12.4444C0 13.3 0.674999 14 1.5 14H12.75C13.2675 14 13.6725 13.72 13.9425 13.3078L18 7L13.9425 0.684445C13.6725 0.272222 13.2675 0 12.75 0Z" fill="#333333"/>
<path d="M12.75 0H1.5C0.674999 0 0 0.7 0 1.55556V12.4444C0 13.3 0.674999 14 1.5 14H12.75C13.2675 14 13.6725 13.72 13.9425 13.3078L18 7L13.9425 0.684445C13.6725 0.272222 13.2675 0 12.75 0Z" fill="url(#paint0_linear)"/>
<rect width="10" height="10" fill="black" fill-opacity="0" transform="translate(3 2)"/>
<path d="M10.0833 3.25H5.08333C4.62083 3.25 4.25 3.625 4.25 4.08333V9.91667C4.25 10.375 4.62083 10.75 5.08333 10.75H10.9167C11.375 10.75 11.75 10.375 11.75 9.91667V4.91667L10.0833 3.25ZM8 9.91667C7.30833 9.91667 6.75 9.35833 6.75 8.66667C6.75 7.975 7.30833 7.41667 8 7.41667C8.69167 7.41667 9.25 7.975 9.25 8.66667C9.25 9.35833 8.69167 9.91667 8 9.91667ZM9.25 5.75H5.08333V4.08333H9.25V5.75Z" fill="white"/>
<defs>
<linearGradient id="paint0_linear" x1="16.7622" y1="10.5428" x2="3.46263" y2="0.508424" gradientUnits="userSpaceOnUse">
<stop stop-color="#77DB7B"/>
<stop offset="1" stop-color="#57DA54"/>
</linearGradient>
</defs>
</svg>
