<svg width="17" height="17" viewBox="0 0 17 17" fill="none" xmlns="http://www.w3.org/2000/svg">
<path d="M16.7787 4.69253C16.6312 4.33852 16.454 4.05805 16.2473 3.85151L13.1483 0.752516C12.9419 0.54609 12.6614 0.368932 12.3072 0.221274C11.9532 0.0737708 11.6285 0 11.3334 0H1.06242C0.767374 0 0.516441 0.103233 0.309818 0.309853C0.103195 0.516357 0 0.767247 0 1.06245V15.9375C0 16.2328 0.103195 16.4837 0.309818 16.6902C0.516441 16.8967 0.767374 17 1.06242 17H15.9377C16.233 17 16.4838 16.8967 16.6904 16.6902C16.8968 16.4837 17 16.2328 17 15.9375V5.66667C17 5.37143 16.9263 5.04681 16.7787 4.69253ZM7.08341 1.77069C7.08341 1.67479 7.11849 1.59195 7.18862 1.5217C7.25867 1.45177 7.34171 1.41672 7.43762 1.41672H9.56273C9.65841 1.41672 9.74141 1.45169 9.81149 1.5217C9.88178 1.59195 9.91682 1.67479 9.91682 1.77069V5.31239C9.91682 5.40845 9.88154 5.49141 9.81149 5.56153C9.74141 5.63143 9.65841 5.66651 9.56273 5.66651H7.43762C7.34171 5.66651 7.25863 5.63155 7.18862 5.56153C7.11849 5.49129 7.08341 5.40845 7.08341 5.31239V1.77069ZM12.7503 15.5834H4.24992V11.3333H12.7503V15.5834ZM15.5838 15.5834H14.1669H14.1666V10.9791C14.1666 10.6838 14.0634 10.4331 13.8568 10.2264C13.6503 10.0198 13.3994 9.91649 13.1044 9.91649H3.89579C3.60063 9.91649 3.3497 10.0198 3.14307 10.2264C2.93657 10.4329 2.83326 10.6838 2.83326 10.9791V15.5834H1.41655V1.41657H2.83322V6.02079C2.83322 6.31599 2.93641 6.56676 3.14304 6.77338C3.34966 6.97989 3.60059 7.08324 3.89576 7.08324H10.2711C10.5661 7.08324 10.8172 6.97989 11.0235 6.77338C11.2299 6.56688 11.3334 6.31599 11.3334 6.02079V1.41657C11.444 1.41657 11.5878 1.4534 11.7651 1.52717C11.9423 1.6009 12.0677 1.67467 12.1415 1.74844L15.2518 4.8586C15.3255 4.93237 15.3993 5.05979 15.473 5.24048C15.547 5.42132 15.5838 5.5634 15.5838 5.66667V15.5834H15.5838Z" fill="white"/>
</svg>
