<?xml version="1.0" encoding="UTF-8" standalone="no"?>
<!-- Created with Inkscape (http://www.inkscape.org/) -->

<svg
   xmlns:dc="http://purl.org/dc/elements/1.1/"
   xmlns:cc="http://creativecommons.org/ns#"
   xmlns:rdf="http://www.w3.org/1999/02/22-rdf-syntax-ns#"
   xmlns:svg="http://www.w3.org/2000/svg"
   xmlns="http://www.w3.org/2000/svg"
   xmlns:xlink="http://www.w3.org/1999/xlink"
   xmlns:sodipodi="http://sodipodi.sourceforge.net/DTD/sodipodi-0.dtd"
   xmlns:inkscape="http://www.inkscape.org/namespaces/inkscape"
   width="24"
   height="24"
   id="svg9903"
   version="1.1"
   inkscape:version="0.48.1 r9760"
   sodipodi:docname="icon.svg">
  <defs
     id="defs9905">
    <linearGradient
       inkscape:collect="always"
       id="linearGradient7235">
      <stop
         style="stop-color:#03244d;stop-opacity:1;"
         offset="0"
         id="stop7237" />
      <stop
         style="stop-color:#03244d;stop-opacity:0;"
         offset="1"
         id="stop7239" />
    </linearGradient>
    <linearGradient
       inkscape:collect="always"
       xlink:href="#linearGradient7235"
       id="linearGradient7245"
       x1="5.0132604"
       y1="18.428677"
       x2="20.993111"
       y2="18.428677"
       gradientUnits="userSpaceOnUse"
       gradientTransform="matrix(1.0030474,0,0,0.99989987,-0.06312015,0.09582524)" />
  </defs>
  <sodipodi:namedview
     id="base"
     pagecolor="#ffffff"
     bordercolor="#666666"
     borderopacity="1.0"
     inkscape:pageopacity="0.0"
     inkscape:pageshadow="2"
     inkscape:zoom="5.6568542"
     inkscape:cx="10.555206"
     inkscape:cy="-17.863591"
     inkscape:current-layer="layer1"
     showgrid="true"
     inkscape:grid-bbox="true"
     inkscape:document-units="px"
     inkscape:snap-global="false"
     inkscape:window-width="2560"
     inkscape:window-height="1305"
     inkscape:window-x="0"
     inkscape:window-y="0"
     inkscape:window-maximized="1">
    <inkscape:grid
       type="xygrid"
       id="grid9911"
       empspacing="5"
       visible="true"
       enabled="true"
       snapvisiblegridlinesonly="true" />
  </sodipodi:namedview>
  <metadata
     id="metadata9908">
    <rdf:RDF>
      <cc:Work
         rdf:about="">
        <dc:format>image/svg+xml</dc:format>
        <dc:type
           rdf:resource="http://purl.org/dc/dcmitype/StillImage" />
        <dc:title></dc:title>
      </cc:Work>
    </rdf:RDF>
  </metadata>
  <g
     id="layer1"
     inkscape:label="Layer 1"
     inkscape:groupmode="layer"
     transform="translate(0,-8)">
    <path
       style="fill:none;stroke:#000000;stroke-width:1.5672313;stroke-linecap:butt;stroke-linejoin:miter;stroke-miterlimit:4;stroke-opacity:1;stroke-dasharray:none"
       d="m 15.125529,13.929056 -6.6372805,1.185502 -5.6797712,8.201398 7.8610667,5.867234 5.588539,-8.223845 z"
       id="path7606"
       inkscape:connector-curvature="0"
       sodipodi:nodetypes="cccccc" />
    <path
       sodipodi:type="arc"
       style="fill:#000000;fill-opacity:1;fill-rule:evenodd;stroke:#000000;stroke-width:0;stroke-linecap:butt;stroke-linejoin:miter;stroke-miterlimit:4;stroke-opacity:1;stroke-dasharray:none"
       id="path7608"
       sodipodi:cx="8.3876648"
       sodipodi:cy="5.9324522"
       sodipodi:rx="0.75183553"
       sodipodi:ry="0.76358294"
       d="m 9.1395003,5.9324522 a 0.75183553,0.76358294 0 1 1 -1.503671,0 0.75183553,0.76358294 0 1 1 1.503671,0 z"
       transform="matrix(1.8039699,0,0,1.9122225,-2.8761123,6.1881489)" />
    <rect
       style="fill:none;stroke:#000000;stroke-width:1.28121459;stroke-linecap:round;stroke-linejoin:miter;stroke-miterlimit:4;stroke-opacity:1;stroke-dasharray:none"
       id="rect7610"
       width="4.0634837"
       height="4.1825294"
       x="18.440216"
       y="9.0143986"
       transform="matrix(0.77817171,0.62805158,-0.57758642,0.81632955,0,0)" />
    <path
       style="fill:none;stroke:#000000;stroke-width:1.36641729;stroke-linecap:round;stroke-linejoin:miter;stroke-miterlimit:4;stroke-opacity:1;stroke-dasharray:none"
       id="path7612"
       d="m 21.671843,10.23098 c -0.06747,-7.29e-4 -0.134678,0.003 -0.201636,-0.007 -0.09659,-0.02216 -0.197356,-0.01756 -0.292712,-0.04458 -0.04006,-0.01372 -0.07977,-0.02858 -0.120924,-0.03786 -0.01455,-0.0033 -0.02978,-0.0037 -0.044,-0.0084 -0.02949,-0.0097 -0.05654,-0.02671 -0.08489,-0.03977 -0.04037,-0.03173 -0.0865,-0.0524 -0.129382,-0.07893 -0.01396,-0.0087 -0.02667,-0.019595 -0.04028,-0.028871 -0.0434,-0.029535 -0.03721,-0.024472 -0.08381,-0.047761 -0.124812,-0.043752 -0.243666,-0.106314 -0.360603,-0.1709665 -0.125,-0.058679 -0.240759,-0.1371989 -0.363192,-0.2016337 -0.137065,-0.067792 -0.287384,-0.078578 -0.435248,-0.087948 -0.02501,-9.273e-4 -0.05003,-0.00204 -0.07505,-0.00286 -0.04743,-0.00132 -0.09959,-0.00194 -0.147068,-0.00205 -0.02428,-1.347e-4 -0.09681,-0.00427 -0.0728,-1.694e-4 0.07027,0.01194 0.172106,-0.00265 0.03099,0.012389 -0.07404,0.011939 -0.149191,0.012684 -0.223494,0.021054 -0.07379,0.00827 -0.146938,0.025757 -0.219845,0.040247 -0.08859,0.023237 -0.180938,0.021155 -0.270428,0.034299 -0.03621,0.00532 -0.07979,0.019523 -0.114898,0.029891 -0.06725,0.015287 -0.129505,0.048526 -0.194798,0.070345 -0.0882,0.024901 -0.04452,0.011193 -0.131117,0.040892 -0.02147,0.00757 -0.04283,0.015408 -0.0644,0.022585 -0.02121,0.00702 -0.04302,0.012093 -0.06393,0.020094 -0.06644,0.02545 -0.127488,0.066567 -0.191909,0.097316 -0.06174,0.040627 -0.134061,0.071315 -0.185704,0.1285426 -0.01056,0.011644 -0.01876,0.025779 -0.02813,0.038657 -0.03183,0.06126 -0.05579,0.127526 -0.08934,0.187704 -0.01379,0.02475 -0.02937,0.04825 -0.04357,0.07272 -0.04348,0.06901 -0.09361,0.133763 -0.147228,0.193594 -0.03636,0.04956 -0.08041,0.09152 -0.113981,0.143656 -0.0058,0.0089 -0.04055,0.07082 -0.04405,0.07703 -0.06517,0.121318 -0.132541,0.24088 -0.202309,0.359115 -0.05277,0.09274 -0.0752,0.196544 -0.08538,0.303917 -0.0078,0.116261 -0.0064,0.232966 -0.0067,0.349455 -1.28e-4,0.09912 0.0064,0.202444 0.03588,0.297046 0.01288,0.04137 0.04425,0.111055 0.06129,0.15049 0.05522,0.121171 0.105319,0.23714 0.182772,0.343271 0.09802,0.116333 0.205216,0.222307 0.318046,0.320838 0.08454,0.08844 0.181485,0.160531 0.277871,0.232086 0.08226,0.06301 0.162255,0.129782 0.238187,0.202066 0.102796,0.08834 0.212963,0.164985 0.317281,0.251062 0.01883,0.01615 0.03785,0.03198 0.05642,0.04848 0.06326,0.05636 0.125837,0.112959 0.193817,0.162617 0.04604,0.03364 0.09398,0.06399 0.1406,0.09658 0.02236,0.01487 0.04439,0.03035 0.06705,0.04463 0.02029,0.01282 0.04161,0.0234 0.06174,0.0365 0.06793,0.04435 0.130873,0.09701 0.198157,0.142417 0.01593,0.01298 0.03249,0.02509 0.04784,0.03898 0.01636,0.01484 0.03085,0.03209 0.04704,0.0471 0.06314,0.05853 0.128233,0.114009 0.188114,0.176708 0.09247,0.100683 0.17046,0.215094 0.235303,0.338899 0.04421,0.09049 0.106688,0.167848 0.15511,0.25539 0.01314,0.02378 0.04705,0.09652 0.05851,0.120685 0.05877,0.127527 0.07659,0.269207 0.0902,0.409593 0.0097,0.104354 0.01136,0.199606 -0.0041,0.303196 -0.0025,0.01747 -0.0038,0.03512 -0.0077,0.05233 -0.0064,0.03031 -0.02042,0.06901 -0.02941,0.09835 -0.01511,0.04946 -0.0265,0.09902 -0.03644,0.149986 -0.02306,0.09781 -0.08178,0.170523 -0.139474,0.245495 -0.04994,0.07258 -0.07387,0.160184 -0.119502,0.235825 -0.0078,0.01341 -0.01444,0.02759 -0.02289,0.04048 -0.0185,0.02815 -0.04135,0.05252 -0.05993,0.08058 -0.0093,0.01417 -0.01713,0.02977 -0.02627,0.04427 -0.02863,0.04538 -0.03141,0.0463 -0.06599,0.09006 -0.0352,0.06346 -0.08907,0.101103 -0.143234,0.141698 -0.05362,0.04018 -0.107823,0.07913 -0.160543,0.120757 -0.08042,0.06172 -0.167442,0.110912 -0.250045,0.168943 -0.01593,0.01269 -0.03178,0.02544 -0.04779,0.03802 -0.01637,0.01281 -0.03174,0.02739 -0.04921,0.03835 -0.08938,0.05596 -0.19255,0.07474 -0.289849,0.106658 -0.126028,0.04776 -0.257239,0.06801 -0.389415,0.08007 -0.07669,-0.0014 -0.148998,0.02809 -0.222655,0.04685 -0.05699,0.01458 -0.06432,0.01493 -0.122238,0.02582 -0.132827,0.02244 -0.267525,0.02401 -0.401589,0.02554 -0.240448,9.72e-4 -0.4809,5.11e-4 -0.72135,3.9e-4 -0.124426,1.18e-4 -0.248853,1.29e-4 -0.373273,1.08e-4 -0.01687,1.8e-5 -0.03377,4.3e-5 -0.05063,5.2e-5 -0.05277,2.8e-5 -0.105482,-6.2e-5 -0.158251,-9.9e-5 -0.01937,-1.5e-5 -0.07749,-2.8e-5 -0.05809,-3.4e-5 0.03923,-1.4e-5 0.07846,10e-6 0.117694,1.5e-5 -0.10831,-7.1e-5 -0.216639,0.0011 -0.324907,-0.0031 -0.01469,-5.81e-4 -0.02899,-0.0049 -0.04357,-0.0073 -0.06112,-0.01025 -0.03459,-0.0061 -0.09816,-0.01494 -0.01887,-0.0062 -0.03776,-0.01238 -0.05663,-0.01864 -0.04987,-0.01662 -0.0719,-0.02527 -0.122687,-0.03935 -0.256353,-0.07117 0.134269,0.03929 -0.129572,-0.02855 -0.02275,-0.006 -0.04482,-0.01443 -0.06723,-0.02172 -0.134132,-0.05381 -0.276761,-0.06475 -0.415252,-0.09623 -0.08307,-0.01899 -0.166163,-0.03821 -0.250226,-0.0511 -0.01598,-0.0026 -0.03231,-0.0026 -0.04803,-0.0064 -0.01611,-0.0042 -0.03129,-0.01164 -0.04698,-0.01746 -0.01609,-0.0062 -2.865832,0.40395 -0.501606,0.201724 l 0.630473,-0.244751 0,0 c 0.01613,0.006 0.03231,0.01193 0.04849,0.01801 0.111586,0.03378 0.229246,0.04056 0.341335,0.07363 0.139226,0.02898 0.28087,0.04554 0.415519,0.0977 0.06558,0.01928 0.131964,0.03133 0.197649,0.0501 0.0989,0.02828 0.02652,0.01001 0.123666,0.03914 0.01906,0.0059 0.03837,0.0105 0.05755,0.01572 0.01723,0.0026 0.03447,0.0049 0.05171,0.0074 0.01593,0.0026 0.03186,0.0052 0.04785,0.0076 0.01436,0.002 0.0576,0.0044 0.04318,0.0059 -0.04395,0.004 -0.08816,0.0011 -0.132254,0.0023 -0.03481,0.0011 0.141381,-0.0011 0.104488,8.8e-5 0.166722,10e-6 0.333442,-1.34e-4 0.500162,-8e-6 0.122704,7.9e-5 0.245407,3.07e-4 0.368109,8.76e-4 0.05812,1.27e-4 0.116298,-8.76e-4 0.174433,3.37e-4 0.02517,4.99e-4 -0.100732,-1.6e-5 -0.07555,1.29e-4 0.09349,5.38e-4 0.186972,-4.04e-4 0.280449,-8.75e-4 0.132954,-0.0019 0.266469,-0.0026 0.398392,-0.02308 0.06055,-0.01072 0.119908,-0.0229 0.179254,-0.04007 0.0222,-0.0064 0.08617,-0.02762 0.109139,-0.03124 0.01868,-0.0029 0.03769,-0.002 0.05649,-0.0031 0.132488,-0.0105 0.264347,-0.02841 0.390831,-0.07564 0.136594,-0.04572 0.274154,-0.06432 0.382409,-0.177884 0.0368,-0.02777 0.07512,-0.05644 0.114189,-0.0803 0.04636,-0.02827 0.09644,-0.04978 0.137884,-0.08762 0.125605,-0.100742 -0.02647,0.01893 0.107185,-0.07885 0.01855,-0.01359 0.0358,-0.0293 0.05436,-0.04291 0.05357,-0.03934 0.108008,-0.07148 0.140781,-0.136287 0.02271,-0.02909 0.04486,-0.05567 0.0646,-0.08727 0.0093,-0.015 0.01667,-0.03153 0.02617,-0.04642 0.0091,-0.01428 0.01976,-0.02739 0.02969,-0.04113 0.0098,-0.01224 0.02072,-0.02364 0.0295,-0.03694 0.0087,-0.01313 0.01493,-0.0278 0.02237,-0.04168 0.04872,-0.07455 0.07013,-0.164124 0.120555,-0.237592 0.01919,-0.02549 0.0409,-0.0486 0.05969,-0.07445 0.03553,-0.04894 0.06057,-0.10269 0.0793,-0.161568 0.01056,-0.05144 0.02169,-0.102298 0.03674,-0.152426 0.0037,-0.01268 0.02667,-0.08074 0.02961,-0.09457 0.0037,-0.01721 0.0048,-0.03498 0.007,-0.05248 0.0018,-0.01224 0.01123,-0.07855 0.01206,-0.09244 0.0034,-0.06835 -0.0048,-0.137492 -0.0061,-0.205744 -0.01101,-0.138449 -0.0299,-0.277168 -0.08889,-0.402075 -0.0067,-0.01342 -0.05012,-0.104241 -0.05804,-0.118783 -0.04808,-0.08863 -0.109916,-0.166829 -0.155828,-0.25668 -0.06504,-0.122146 -0.141436,-0.236264 -0.235772,-0.333247 -0.08923,-0.09211 -0.184706,-0.177579 -0.281991,-0.258936 -0.06629,-0.04585 -0.129558,-0.09692 -0.196531,-0.141595 -0.01976,-0.01312 -0.04051,-0.02457 -0.06041,-0.03755 -0.02225,-0.01458 -0.04397,-0.03 -0.06593,-0.045 -0.0071,-0.005 -0.132476,-0.09146 -0.140821,-0.09765 -0.08806,-0.06513 -0.168737,-0.140876 -0.25338,-0.211019 -0.105439,-0.08498 -0.214752,-0.163976 -0.318008,-0.252436 -0.07696,-0.07113 -0.158691,-0.135237 -0.240153,-0.19979 -0.09489,-0.07258 -0.190243,-0.145636 -0.27386,-0.234046 -0.112448,-0.101786 -0.222068,-0.20791 -0.321795,-0.324859 -0.07474,-0.105808 -0.125663,-0.228093 -0.179045,-0.347943 -0.01574,-0.03709 -0.05014,-0.115613 -0.06207,-0.153996 -0.02988,-0.09613 -0.03657,-0.201273 -0.0373,-0.301937 -0.001,-0.117205 -0.0038,-0.234676 0.0031,-0.351703 0.0116,-0.11051 0.03437,-0.21722 0.08859,-0.313012 0.02237,-0.03755 0.04701,-0.07345 0.06891,-0.11132 0.04657,-0.08055 0.08722,-0.164796 0.130805,-0.247288 0.0217,-0.04052 0.04261,-0.08109 0.07006,-0.117383 0.0175,-0.02311 0.04325,-0.05038 0.06127,-0.07291 0.0091,-0.0115 0.01765,-0.02354 0.02648,-0.03533 0.05448,-0.05751 0.100436,-0.123765 0.146452,-0.18911 0.028,-0.04903 0.0131,-0.02509 0.04472,-0.07179 0.03569,-0.05951 0.05942,-0.12735 0.08957,-0.19018 0.0092,-0.01445 0.01728,-0.030055 0.02806,-0.043169 0.02477,-0.030096 0.04215,-0.03689 0.07213,-0.059066 0.0382,-0.028237 0.07412,-0.050985 0.114517,-0.075344 0.06649,-0.02937 0.128215,-0.072691 0.19556,-0.099224 0.02084,-0.00827 0.04283,-0.012388 0.06406,-0.01939 0.02162,-0.00702 0.04299,-0.015022 0.06447,-0.022544 0.237222,-0.085856 -0.103056,0.035198 0.128467,-0.040432 0.06593,-0.021543 0.127656,-0.058282 0.196069,-0.071803 0.02351,-0.00723 0.09279,-0.029656 0.11671,-0.033544 0.02218,-0.00358 0.04471,-0.00276 0.06703,-0.00468 0.06827,-0.00571 0.136359,-0.014449 0.203833,-0.027339 0.07355,-0.01445 0.147584,-0.033105 0.22188,-0.042115 0.07352,-0.00898 0.148219,-0.00806 0.22151,-0.020686 0.202328,-0.023145 0.406752,-0.014449 0.609739,-0.00795 0.148852,0.010897 0.299907,0.023942 0.43682,0.095265 0.121606,0.065436 0.238452,0.141002 0.362089,0.2019542 0.118927,0.063935 0.2396,0.124193 0.365414,0.1699663 0.08676,0.046677 0.167199,0.1064855 0.253448,0.1545785 0.01865,0.0083 0.06437,0.0295 0.08488,0.03561 0.01464,0.0044 0.02989,0.0059 0.04469,0.0094 0.04071,0.01 0.07998,0.02565 0.120212,0.03762 0.09624,0.02162 0.195614,0.02336 0.29246,0.04227 0.06874,0.0064 0.105551,-0.134544 0.174505,-0.134604 l -0.150445,0.170367 z"
       inkscape:connector-curvature="0"
       sodipodi:nodetypes="cccccccccccccccccccccccccccccccccccccccccccccscccccccccccccccccccccccccccccccssscsccccccccccccccccccccccccccsscccccccccccccccccccccccccccccccccccccccccccccccccccccccsccccccccccccccccccccc" />
  </g>
</svg>
