<?xml version="1.0" encoding="UTF-8" standalone="no"?>
<!-- Created with Inkscape (http://www.inkscape.org/) -->

<svg
   xmlns:dc="http://purl.org/dc/elements/1.1/"
   xmlns:cc="http://creativecommons.org/ns#"
   xmlns:rdf="http://www.w3.org/1999/02/22-rdf-syntax-ns#"
   xmlns:svg="http://www.w3.org/2000/svg"
   xmlns="http://www.w3.org/2000/svg"
   xmlns:sodipodi="http://sodipodi.sourceforge.net/DTD/sodipodi-0.dtd"
   xmlns:inkscape="http://www.inkscape.org/namespaces/inkscape"
   width="16px"
   height="16px"
   id="svg4311"
   version="1.1"
   inkscape:version="0.48.2 r9819"
   sodipodi:docname="New document 6">
  <defs
     id="defs4313" />
  <sodipodi:namedview
     id="base"
     pagecolor="#ffffff"
     bordercolor="#666666"
     borderopacity="1.0"
     inkscape:pageopacity="0.0"
     inkscape:pageshadow="2"
     inkscape:zoom="47.9375"
     inkscape:cx="8"
     inkscape:cy="7.7151413"
     inkscape:current-layer="layer1"
     showgrid="true"
     inkscape:grid-bbox="true"
     inkscape:document-units="px"
     inkscape:snap-global="false"
     showguides="true"
     inkscape:guide-bbox="true"
     inkscape:window-width="1463"
     inkscape:window-height="987"
     inkscape:window-x="440"
     inkscape:window-y="0"
     inkscape:window-maximized="0">
    <inkscape:grid
       type="xygrid"
       id="grid4319" />
  </sodipodi:namedview>
  <metadata
     id="metadata4316">
    <rdf:RDF>
      <cc:Work
         rdf:about="">
        <dc:format>image/svg+xml</dc:format>
        <dc:type
           rdf:resource="http://purl.org/dc/dcmitype/StillImage" />
        <dc:title></dc:title>
      </cc:Work>
    </rdf:RDF>
  </metadata>
  <g
     id="layer1"
     inkscape:label="Layer 1"
     inkscape:groupmode="layer">
    <rect
       style="fill:#000000;fill-opacity:1;stroke:#000000;stroke-width:0;stroke-linecap:round;stroke-linejoin:round;stroke-miterlimit:4;stroke-opacity:0.99159666;stroke-dasharray:none;stroke-dashoffset:0"
       id="rect4829"
       width="3.066493"
       height="2.9830511"
       x="-7.8197082e-010"
       y="0.020860491" />
    <rect
       y="-0.020860499"
       x="12.975228"
       height="2.9830511"
       width="3.066493"
       id="rect4831"
       style="fill:#000000;fill-opacity:1;stroke:#000000;stroke-width:0;stroke-linecap:round;stroke-linejoin:round;stroke-miterlimit:4;stroke-opacity:0.99159666;stroke-dasharray:none;stroke-dashoffset:0" />
    <rect
       style="fill:#000000;fill-opacity:1;stroke:#000000;stroke-width:0;stroke-linecap:round;stroke-linejoin:round;stroke-miterlimit:4;stroke-opacity:0.99159666;stroke-dasharray:none;stroke-dashoffset:0"
       id="rect4833"
       width="3.066493"
       height="2.9830511"
       x="1.4753995e-007"
       y="6.0078225" />
    <rect
       y="6.007823"
       x="12.975227"
       height="2.9830511"
       width="3.066493"
       id="rect4835"
       style="fill:#000000;fill-opacity:1;stroke:#000000;stroke-width:0;stroke-linecap:round;stroke-linejoin:round;stroke-miterlimit:4;stroke-opacity:0.99159666;stroke-dasharray:none;stroke-dashoffset:0" />
    <rect
       style="fill:#000000;fill-opacity:1;stroke:#000000;stroke-width:0;stroke-linecap:round;stroke-linejoin:round;stroke-miterlimit:4;stroke-opacity:0.99159666;stroke-dasharray:none;stroke-dashoffset:0"
       id="rect4837"
       width="3.066493"
       height="2.9830511"
       x="12.975228"
       y="11.994784" />
    <rect
       y="11.994784"
       x="0.020860683"
       height="2.9830511"
       width="3.066493"
       id="rect4839"
       style="fill:#000000;fill-opacity:1;stroke:#000000;stroke-width:0;stroke-linecap:round;stroke-linejoin:round;stroke-miterlimit:4;stroke-opacity:0.99159666;stroke-dasharray:none;stroke-dashoffset:0" />
    <g
       transform="scale(1.0593119,0.94400906)"
       style="font-size:19.42538452px;font-style:normal;font-weight:normal;line-height:125%;letter-spacing:0px;word-spacing:0px;fill:#000000;fill-opacity:1;stroke:none;font-family:Sans"
       id="text4841">
      <path
         d="m 10.350157,5.1662336 c -8e-6,0.3789366 -0.03905,0.7161816 -0.117117,1.011736 C 10.154952,6.4735413 10.045968,6.7425795 9.9060849,6.9850848 9.7661858,7.227606 9.6018953,7.4511729 9.413213,7.6557864 9.2245153,7.8604141 9.0195588,8.0650346 8.7983431,8.2696487 8.6161525,8.4439616 8.443729,8.618268 8.2810716,8.7925685 8.1184013,8.9668809 7.9768837,9.1525551 7.8565187,9.3495917 7.7361413,9.5466391 7.6401697,9.7626275 7.5686034,9.9975575 7.4970254,10.232497 7.4612395,10.493956 7.4612452,10.781936 l 0,1.057208 -0.7807872,0 0,-0.932161 C 6.6804531,10.452275 6.7243723,10.06198 6.8122158,9.7360976 6.9000493,9.4102254 7.0220471,9.1165569 7.1782098,8.8550914 7.3343617,8.5936377 7.521425,8.353019 7.7394005,8.1332348 7.9573641,7.9134639 8.19648,7.6823183 8.4567487,7.4397978 8.6128994,7.2958128 8.7576701,7.144242 8.8910616,6.9850848 9.0244387,6.8259435 9.1415567,6.6535316 9.2424158,6.467849 9.3432598,6.2821831 9.4229651,6.0813519 9.4815319,5.8653545 9.5400831,5.6493752 9.5693626,5.416335 9.5693704,5.1662336 9.5693626,4.8858373 9.5124302,4.616799 9.3985732,4.3591184 9.2847009,4.1014584 9.1383035,3.8741023 8.9593804,3.677049 8.780443,3.4800182 8.5754866,3.3208688 8.3445106,3.1996007 8.1135214,3.0783554 7.8809121,3.0177273 7.6466821,3.0177154 7.3213486,3.0177273 7.0220471,3.085934 6.7487769,3.2223363 6.4754967,3.3587615 6.4406376,3.7582036 6.2389386,3.9969166 6.0372313,4.2356516 6.058561,4.5160576 5.9381936,4.8381354 5.8178186,5.1602334 5.8694511,5.5637091 5.8499351,5.942627 L 4.7546998,5.9161428 C 4.7807232,5.4083897 4.9057165,5.4122777 5.0887643,4.5538174 5.2303318,3.8898916 5.2942774,4.005871 5.4799978,3.4756875 5.6859737,2.9720115 6.0639572,2.5630148 6.4315821,2.3811176 6.7991977,2.199245 7.2042306,2.1083024 7.6466821,2.1082899 c 0.3773742,1.25e-5 0.7303546,0.075798 1.0589425,0.2273563 0.328574,0.1515832 0.6148624,0.3637823 0.8588659,0.6365979 0.2439878,0.2728393 0.4359305,0.5968219 0.5758305,0.9719488 0.139882,0.3751485 0.209828,0.7824951 0.209836,1.2220407 z m -2.5668371,9.6171754 -1.4249366,0 0,-1.6597 1.4249366,0 z"
         style="font-variant:normal;font-stretch:normal;font-family:Microsoft Yi Baiti;-inkscape-font-specification:Microsoft Yi Baiti"
         id="path4846"
         inkscape:connector-curvature="0"
         sodipodi:nodetypes="cccscscccccccsscscccccccccsccscccccccccccc" />
    </g>
  </g>
</svg>
