<?xml version="1.0" encoding="UTF-8" standalone="no"?>
<!-- Created with Inkscape (http://www.inkscape.org/) -->

<svg
   xmlns:dc="http://purl.org/dc/elements/1.1/"
   xmlns:cc="http://creativecommons.org/ns#"
   xmlns:rdf="http://www.w3.org/1999/02/22-rdf-syntax-ns#"
   xmlns:svg="http://www.w3.org/2000/svg"
   xmlns="http://www.w3.org/2000/svg"
   xmlns:sodipodi="http://sodipodi.sourceforge.net/DTD/sodipodi-0.dtd"
   xmlns:inkscape="http://www.inkscape.org/namespaces/inkscape"
   width="16px"
   height="16px"
   id="svg12807"
   version="1.1"
   inkscape:version="0.48.2 r9819"
   sodipodi:docname="userblue.svg"
   inkscape:export-filename="C:\Users\ajay\Desktop\new work\ta\taa\userblue.png"
   inkscape:export-xdpi="90"
   inkscape:export-ydpi="90">
  <defs
     id="defs12809" />
  <sodipodi:namedview
     id="base"
     pagecolor="#ffffff"
     bordercolor="#666666"
     borderopacity="1.0"
     inkscape:pageopacity="0.0"
     inkscape:pageshadow="2"
     inkscape:zoom="47.9375"
     inkscape:cx="8"
     inkscape:cy="8"
     inkscape:current-layer="layer1"
     showgrid="true"
     inkscape:grid-bbox="true"
     inkscape:document-units="px"
     inkscape:snap-global="false"
     inkscape:window-width="1920"
     inkscape:window-height="1005"
     inkscape:window-x="-9"
     inkscape:window-y="-9"
     inkscape:window-maximized="1">
    <inkscape:grid
       type="xygrid"
       id="grid13323" />
  </sodipodi:namedview>
  <metadata
     id="metadata12812">
    <rdf:RDF>
      <cc:Work
         rdf:about="">
        <dc:format>image/svg+xml</dc:format>
        <dc:type
           rdf:resource="http://purl.org/dc/dcmitype/StillImage" />
        <dc:title></dc:title>
      </cc:Work>
    </rdf:RDF>
  </metadata>
  <g
     id="layer1"
     inkscape:label="Layer 1"
     inkscape:groupmode="layer">
    <path
       style="fill:#ffffff;fill-opacity:1;stroke:#000000;stroke-width:0.51743704;stroke-linecap:round;stroke-linejoin:round;stroke-miterlimit:4;stroke-opacity:1;stroke-dashoffset:0"
       d="M 6.151561,1.5669216 C 7.2337832,1.1629998 8.0528592,1.2277056 8.7938055,1.4553224 9.126208,1.5574358 9.3996148,1.7196826 9.5611772,2.069932 9.7783908,2.5408266 9.7365975,3.0881999 9.6576142,3.4657024 9.5839098,3.8179808 9.404608,4.1845375 9.1931465,4.4899584 L 8.1437357,5.0962531 6.351728,5.1889708 C 5.9466024,5.2099308 5.7390647,4.906077 5.5843561,4.5743614 5.2977321,3.9598025 5.096592,3.2882569 5.4555356,2.2433399 5.5733929,1.9002466 5.778546,1.7061435 6.151561,1.5669216 z"
       id="rect13325"
       inkscape:connector-curvature="0"
       sodipodi:nodetypes="ssssscssss" />
    <path
       style="fill:#ffffff;fill-opacity:1;stroke:#000000;stroke-width:0.66274911;stroke-linecap:round;stroke-linejoin:round;stroke-miterlimit:4;stroke-opacity:1;stroke-dashoffset:0"
       d="m 3.8911128,7.114373 c 1.2900173,-2.2499773 5.8223102,-2.4173284 7.2373302,0 0.147059,0.2512263 0.538704,0.2844269 0.538704,0.6377284 l 0,3.2564576 c 0,0.353302 -0.240261,0.637729 -0.538704,0.637729 l -7.2373302,0 c -0.2984424,0 -0.5387048,-0.284427 -0.5387048,-0.637729 l 0,-3.2564576 c 0,-0.3533015 0.3943626,-0.3859747 0.5387048,-0.6377284 z"
       id="rect13328"
       inkscape:connector-curvature="0"
       sodipodi:nodetypes="sssssssss" />
  </g>
</svg>
